/* XPM */
static char *result[] = {
/* columns rows colors chars-per-pixel */
"64 64 4 1 ",
"  c #4EBCB9",
". c black",
"X c #FFC579",
"o c #FFFDF5",
/* pixels */
"        ...XX...XXXooooooooooooooooooooooooooooooooooooooooooooo",
"        ...XX...XXXooooooooooooooooooooooooooooooooooooooooooooo",
"        ...XX...XXXooooooooooooooooooooooooooooooooooooooooooooo",
"        ...XX...XXXooooooooooooooooooooooooooooooooooooooooooooo",
"        ...XX...XXXooooooooooooooooooooooooooooooooooooooooooooo",
"        ...XX...XXXooooooooooooooooooooooooooooooooooooooooooooo",
"        ...XX...XXXooooooooooooooooooooooooooooooooooooooooooooo",
"        ...XX...XXXooooooooooooooooooooooooooooooooooooooooooooo",
"        ...XX...XXXooooooooooooooooooooooooooooooooooooooooooooo",
"        ...XX...XXXooooooooooooooooooooooooooooooooooooooooooooo",
"        ...XX...XXXooooooooooooooooooooooooooooooooooooooooooooo",
"        ...XX...XXXooooooooooooooooooooooooooooooooooooooooooooo",
"        ...XX...XXXooooooooooooooooooooooooooooooooooooooooooooo",
"        ...XX...XXXooooooooooooooooooooooooooooooooooooooooooooo",
"        ...XX...XXXooooooooooooooooooooooooooooooooooooooooooooo",
"        ...XX...XXXooooooooooooooooooooooooooooooooooooooooooooo",
"        ...XX...XXXooooooooooooooooooooooooooooooooooooooooooooo",
"        ...XX...XXXooooooooooooooooooooooooooooooooooooooooooooo",
"        ...XX...XXXooooooooooooooooooooooooooooooooooooooooooooo",
"        ...XX...XXXooooooooooooooooooooooooooooooooooooooooooooo",
"        ...XX...XXXooooooooooooooooooooooooooooooooooooooooooooo",
"        ...XX...XXXooooooooooooooooooooooooooooooooooooooooooooo",
"        ...XX...XXXooooooooooooooooooooooooooooooooooooooooooooo",
"        ...XX...XXXooooooooooooooooooooooooooooooooooooooooooooo",
"        ...XX...XXXooooooooooooooooooooooooooooooooooooooooooooo",
"        ...XX...XXXooooooooooooooooooooooooooooooooooooooooooooo",
"        ...XX...XXXooooooooooooooooooooooooooooooooooooooooooooo",
"        ...XX...XXXooooooooooooooooooooooooooooooooooooooooooooo",
"        ...XX...XXXooooooooooooooooooooooooooooooooooooooooooooo",
"        ...XX...XXXooooooooooooooooooooooooooooooooooooooooooooo",
"        ...XX...XXXooooooooooooooooooooooooooooooooooooooooooooo",
"        ...XX...XXXooooooooooooooooooooooooooooooooooooooooooooo",
"        ...XX...XXXooooooooooooooooooooooooooooooooooooooooooooo",
"        ...XX...XXXooooooooooooooooooooooooooooooooooooooooooooo",
"        ...XX...XXXooooooooooooooooooooooooooooooooooooooooooooo",
"        ...XX...XXXooooooooooooooooooooooooooooooooooooooooooooo",
"        ...XX...XXXooooooooooooooooooooooooooooooooooooooooooooo",
"        ...XX...XXXooooooooooooooooooooooooooooooooooooooooooooo",
"        ...XX...XXXooooooooooooooooooooooooooooooooooooooooooooo",
"        ...XX...XXXooooooooooooooooooooooooooooooooooooooooooooo",
"        ...XX...XXXooooooooooooooooooooooooooooooooooooooooooooo",
"        ...XX...XXXooooooooooooooooooooooooooooooooooooooooooooo",
"        ...XX...XXXooooooooooooooooooooooooooooooooooooooooooooo",
"        ...XX...XXXooooooooooooooooooooooooooooooooooooooooooooo",
"        ...XX...XXXooooooooooooooooooooooooooooooooooooooooooooo",
"        ...XX...XXXXXXXXXXXXXXXXXXXXXXXXXXXXXXXXXXXXXXXXXXXXXXXX",
"        ...XX...XXXXXXXXXXXXXXXXXXXXXXXXXXXXXXXXXXXXXXXXXXXXXXXX",
"        ...XX...XXXXXXXXXXXXXXXXXXXXXXXXXXXXXXXXXXXXXXXXXXXXXXXX",
"        ...XX...................................................",
"        ...XX...................................................",
"        ...XX...................................................",
"        ...XXXXXXXXXXXXXXXXXXXXXXXXXXXXXXXXXXXXXXXXXXXXXXXXXXXXX",
"        ...XXXXXXXXXXXXXXXXXXXXXXXXXXXXXXXXXXXXXXXXXXXXXXXXXXXXX",
"        ........................................................",
"        ........................................................",
"        ........................................................",
"                                                                ",
"                                                                ",
"                                                                ",
"                                                                ",
"                                                                ",
"                                                                ",
"                                                                ",
"                                                                "
};
