/* XPM */
static char *result[] = {
/* columns rows colors chars-per-pixel */
"64 64 4 1 ",
"  c #FFFDF5",
". c black",
"X c #4EBCB9",
"o c #FFC579",
/* pixels */
"                                                    ...XXXXXXXXX",
"                                                    ...XXXXXXXXX",
"                                                    ...XXXXXXXXX",
"                                                    ...XXXXXXXXX",
"                                                    ...XXXXXXXXX",
"                                                    ...XXXXXXXXX",
"                                                    ...XXXXXXXXX",
"                                                    ...XXXXXXXXX",
"                                                    ...XXXXXXXXX",
"                                                    ...XXXXXXXXX",
"                                                    ...XXXXXXXXX",
"                                                    ...XXXXXXXXX",
"                                                    ...XXXXXXXXX",
"                                                    ...XXXXXXXXX",
"                                                    ...XXXXXXXXX",
"                                                    ...XXXXXXXXX",
"                                                    ...XXXXXXXXX",
"                                                    ...XXXXXXXXX",
"                                                    ...XXXXXXXXX",
"                                                    ...XXXXXXXXX",
"                                                    ...XXXXXXXXX",
"                                                    ...XXXXXXXXX",
"                                                    ...XXXXXXXXX",
"                                                    ...XXXXXXXXX",
"                                                    ...XXXXXXXXX",
"                                                    ...XXXXXXXXX",
"                                                    ...XXXXXXXXX",
"                                                    ...XXXXXXXXX",
"                                                    ...XXXXXXXXX",
"                                                    ...XXXXXXXXX",
"                                                    ...XXXXXXXXX",
"                                                    ...XXXXXXXXX",
"                                                    ...XXXXXXXXX",
"                                                    ...XXXXXXXXX",
"                                                    ...XXXXXXXXX",
"                                                    ...XXXXXXXXX",
"                                                    ...XXXXXXXXX",
"                                                    ...XXXXXXXXX",
"                                                    ...XXXXXXXXX",
"                                                    ...XXXXXXXXX",
"                                                    ...XXXXXXXXX",
"                                                    ...XXXXXXXXX",
"                                                    ...XXXXXXXXX",
"                                                    ...XXXXXXXXX",
"                                                    ...XXXXXXXXX",
"oooooooooooooooooooooooooooooooooooooooooooooooooooo...XXXXXXXXX",
"oooooooooooooooooooooooooooooooooooooooooooooooooooo...XXXXXXXXX",
"oooooooooooooooooooooooooooooooooooooooooooooooooooo...XXXXXXXXX",
".......................................................XXXXXXXXX",
".......................................................XXXXXXXXX",
".......................................................XXXXXXXXX",
"ooooooooooooooooooooooooooooooooooooooooooooooo...XXXXXXXXXXXXXX",
"ooooooooooooooooooooooooooooooooooooooooooooooo...XXXXXXXXXXXXXX",
"..................................................XXXXXXXXXXXXXX",
"..................................................XXXXXXXXXXXXXX",
"..................................................XXXXXXXXXXXXXX",
"XXXXXXXXXXXXXXXXXXXXXXXXXXXXXXXXXXXXXXXXXXXXXXXXXXXXXXXXXXXXXXXX",
"XXXXXXXXXXXXXXXXXXXXXXXXXXXXXXXXXXXXXXXXXXXXXXXXXXXXXXXXXXXXXXXX",
"XXXXXXXXXXXXXXXXXXXXXXXXXXXXXXXXXXXXXXXXXXXXXXXXXXXXXXXXXXXXXXXX",
"XXXXXXXXXXXXXXXXXXXXXXXXXXXXXXXXXXXXXXXXXXXXXXXXXXXXXXXXXXXXXXXX",
"XXXXXXXXXXXXXXXXXXXXXXXXXXXXXXXXXXXXXXXXXXXXXXXXXXXXXXXXXXXXXXXX",
"XXXXXXXXXXXXXXXXXXXXXXXXXXXXXXXXXXXXXXXXXXXXXXXXXXXXXXXXXXXXXXXX",
"XXXXXXXXXXXXXXXXXXXXXXXXXXXXXXXXXXXXXXXXXXXXXXXXXXXXXXXXXXXXXXXX",
"XXXXXXXXXXXXXXXXXXXXXXXXXXXXXXXXXXXXXXXXXXXXXXXXXXXXXXXXXXXXXXXX"
};
