/* XPM */
static char *result[] = {
/* columns rows colors chars-per-pixel */
"64 64 4 1 ",
"  c #FFFDF5",
". c black",
"X c #4EBCB9",
"o c #FFC579",
/* pixels */
"                                                   ...XXXXXXXXXX",
"                                                   ...XXXXXXXXXX",
"                                                   ...XXXXXXXXXX",
"                                                   ...XXXXXXXXXX",
"                                                   ...XXXXXXXXXX",
"                                                   ...XXXXXXXXXX",
"                                                   ...XXXXXXXXXX",
"                                                   ...XXXXXXXXXX",
"                                                   ...XXXXXXXXXX",
"                                                   ...XXXXXXXXXX",
"                                                   ...XXXXXXXXXX",
"                                                   ...XXXXXXXXXX",
"                                                   ...XXXXXXXXXX",
"                                                   ...XXXXXXXXXX",
"                                                   ...XXXXXXXXXX",
"                                                   ...XXXXXXXXXX",
"                                                   ...XXXXXXXXXX",
"                                                   ...XXXXXXXXXX",
"                                                   ...XXXXXXXXXX",
"                                                   ...XXXXXXXXXX",
"                                                   ...XXXXXXXXXX",
"                                                   ...XXXXXXXXXX",
"                                                   ...XXXXXXXXXX",
"                                                   ...XXXXXXXXXX",
"                                                   ...XXXXXXXXXX",
"                                                   ...XXXXXXXXXX",
"                                                   ...XXXXXXXXXX",
"                                                   ...XXXXXXXXXX",
"                                                   ...XXXXXXXXXX",
"                                                   ...XXXXXXXXXX",
"                                                   ...XXXXXXXXXX",
"                                                   ...XXXXXXXXXX",
"                                                   ...XXXXXXXXXX",
"                                                   ...XXXXXXXXXX",
"                                                   ...XXXXXXXXXX",
"                                                   ...XXXXXXXXXX",
"                                                   ...XXXXXXXXXX",
"                                                   ...XXXXXXXXXX",
"                                                   ...XXXXXXXXXX",
"                                                   ...XXXXXXXXXX",
"                                                   ...XXXXXXXXXX",
"                                                   ...XXXXXXXXXX",
"                                                   ...XXXXXXXXXX",
"                                                   ...XXXXXXXXXX",
"                                                   ...XXXXXXXXXX",
"ooooooooooooooooooooooooooooooooooooooooooooooooooo...XXXXXXXXXX",
"ooooooooooooooooooooooooooooooooooooooooooooooooooo...XXXXXXXXXX",
"ooooooooooooooooooooooooooooooooooooooooooooooooooo...XXXXXXXXXX",
"......................................................XXXXXXXXXX",
"......................................................XXXXXXXXXX",
"......................................................XXXXXXXXXX",
"oooooooooooooooooooooooooooooooooooooooooooooo...XXXXXXXXXXXXXXX",
"oooooooooooooooooooooooooooooooooooooooooooooo...XXXXXXXXXXXXXXX",
".................................................XXXXXXXXXXXXXXX",
".................................................XXXXXXXXXXXXXXX",
".................................................XXXXXXXXXXXXXXX",
"XXXXXXXXXXXXXXXXXXXXXXXXXXXXXXXXXXXXXXXXXXXXXXXXXXXXXXXXXXXXXXXX",
"XXXXXXXXXXXXXXXXXXXXXXXXXXXXXXXXXXXXXXXXXXXXXXXXXXXXXXXXXXXXXXXX",
"XXXXXXXXXXXXXXXXXXXXXXXXXXXXXXXXXXXXXXXXXXXXXXXXXXXXXXXXXXXXXXXX",
"XXXXXXXXXXXXXXXXXXXXXXXXXXXXXXXXXXXXXXXXXXXXXXXXXXXXXXXXXXXXXXXX",
"XXXXXXXXXXXXXXXXXXXXXXXXXXXXXXXXXXXXXXXXXXXXXXXXXXXXXXXXXXXXXXXX",
"XXXXXXXXXXXXXXXXXXXXXXXXXXXXXXXXXXXXXXXXXXXXXXXXXXXXXXXXXXXXXXXX",
"XXXXXXXXXXXXXXXXXXXXXXXXXXXXXXXXXXXXXXXXXXXXXXXXXXXXXXXXXXXXXXXX",
"XXXXXXXXXXXXXXXXXXXXXXXXXXXXXXXXXXXXXXXXXXXXXXXXXXXXXXXXXXXXXXXX"
};
