/* XPM */
static char *result[] = {
/* columns rows colors chars-per-pixel */
"64 64 4 1 ",
"  c #4EBCB9",
". c black",
"X c #FFC579",
"o c #FFFDF5",
/* pixels */
"         ...XX...XXXoooooooooooooooooooooooooooooooooooooooooooo",
"         ...XX...XXXoooooooooooooooooooooooooooooooooooooooooooo",
"         ...XX...XXXoooooooooooooooooooooooooooooooooooooooooooo",
"         ...XX...XXXoooooooooooooooooooooooooooooooooooooooooooo",
"         ...XX...XXXoooooooooooooooooooooooooooooooooooooooooooo",
"         ...XX...XXXoooooooooooooooooooooooooooooooooooooooooooo",
"         ...XX...XXXoooooooooooooooooooooooooooooooooooooooooooo",
"         ...XX...XXXoooooooooooooooooooooooooooooooooooooooooooo",
"         ...XX...XXXoooooooooooooooooooooooooooooooooooooooooooo",
"         ...XX...XXXoooooooooooooooooooooooooooooooooooooooooooo",
"         ...XX...XXXoooooooooooooooooooooooooooooooooooooooooooo",
"         ...XX...XXXoooooooooooooooooooooooooooooooooooooooooooo",
"         ...XX...XXXoooooooooooooooooooooooooooooooooooooooooooo",
"         ...XX...XXXoooooooooooooooooooooooooooooooooooooooooooo",
"         ...XX...XXXoooooooooooooooooooooooooooooooooooooooooooo",
"         ...XX...XXXoooooooooooooooooooooooooooooooooooooooooooo",
"         ...XX...XXXoooooooooooooooooooooooooooooooooooooooooooo",
"         ...XX...XXXoooooooooooooooooooooooooooooooooooooooooooo",
"         ...XX...XXXoooooooooooooooooooooooooooooooooooooooooooo",
"         ...XX...XXXoooooooooooooooooooooooooooooooooooooooooooo",
"         ...XX...XXXoooooooooooooooooooooooooooooooooooooooooooo",
"         ...XX...XXXoooooooooooooooooooooooooooooooooooooooooooo",
"         ...XX...XXXoooooooooooooooooooooooooooooooooooooooooooo",
"         ...XX...XXXoooooooooooooooooooooooooooooooooooooooooooo",
"         ...XX...XXXoooooooooooooooooooooooooooooooooooooooooooo",
"         ...XX...XXXoooooooooooooooooooooooooooooooooooooooooooo",
"         ...XX...XXXoooooooooooooooooooooooooooooooooooooooooooo",
"         ...XX...XXXoooooooooooooooooooooooooooooooooooooooooooo",
"         ...XX...XXXoooooooooooooooooooooooooooooooooooooooooooo",
"         ...XX...XXXoooooooooooooooooooooooooooooooooooooooooooo",
"         ...XX...XXXoooooooooooooooooooooooooooooooooooooooooooo",
"         ...XX...XXXoooooooooooooooooooooooooooooooooooooooooooo",
"         ...XX...XXXoooooooooooooooooooooooooooooooooooooooooooo",
"         ...XX...XXXoooooooooooooooooooooooooooooooooooooooooooo",
"         ...XX...XXXoooooooooooooooooooooooooooooooooooooooooooo",
"         ...XX...XXXoooooooooooooooooooooooooooooooooooooooooooo",
"         ...XX...XXXoooooooooooooooooooooooooooooooooooooooooooo",
"         ...XX...XXXoooooooooooooooooooooooooooooooooooooooooooo",
"         ...XX...XXXoooooooooooooooooooooooooooooooooooooooooooo",
"         ...XX...XXXoooooooooooooooooooooooooooooooooooooooooooo",
"         ...XX...XXXoooooooooooooooooooooooooooooooooooooooooooo",
"         ...XX...XXXoooooooooooooooooooooooooooooooooooooooooooo",
"         ...XX...XXXoooooooooooooooooooooooooooooooooooooooooooo",
"         ...XX...XXXoooooooooooooooooooooooooooooooooooooooooooo",
"         ...XX...XXXoooooooooooooooooooooooooooooooooooooooooooo",
"         ...XX...XXXXXXXXXXXXXXXXXXXXXXXXXXXXXXXXXXXXXXXXXXXXXXX",
"         ...XX...XXXXXXXXXXXXXXXXXXXXXXXXXXXXXXXXXXXXXXXXXXXXXXX",
"         ...XX...XXXXXXXXXXXXXXXXXXXXXXXXXXXXXXXXXXXXXXXXXXXXXXX",
"         ...XX..................................................",
"         ...XX..................................................",
"         ...XX..................................................",
"         ...XXXXXXXXXXXXXXXXXXXXXXXXXXXXXXXXXXXXXXXXXXXXXXXXXXXX",
"         ...XXXXXXXXXXXXXXXXXXXXXXXXXXXXXXXXXXXXXXXXXXXXXXXXXXXX",
"         .......................................................",
"         .......................................................",
"         .......................................................",
"                                                                ",
"                                                                ",
"                                                                ",
"                                                                ",
"                                                                ",
"                                                                ",
"                                                                ",
"                                                                "
};
