/* XPM */
static char *result[] = {
/* columns rows colors chars-per-pixel */
"64 64 5 1 ",
"  c #4EBCB9",
". c black",
"X c #FFFDF5",
"o c #FFC579",
"O c #2F2F2E",
/* pixels */
"                      ..........................................",
"                      ..........................................",
"                      ...XXXXXXXXXXXXXXXXXXXXXXXXXXXXXXXXXXXXXXX",
"                    ..oooXXXXXXXXXXXXXXXXXXXXXXXXXXXXXXXXXXXXXXX",
"                    ..oooXXXXXXXXXXXXXXXXXXXXXXXXXXXXXXXXXXXXXXX",
"                    ..oooXXXXXXXXXXXXXXXXXXXXXXXXXXXXXXXXXXXXXXX",
"                    ..oooXXXXXXXXXXXXXXXXXXXXXXXXXXXXXXXXXXXXXXX",
"                    ..oooXXXXXXXXXXXXXXXXXXXXXXXXXXXXXXXXXXXXXXX",
"                    ..oooXXXXXXXXXXXXXXXXXXXXXXXXXXXXXXXXXXXXXXX",
"                    ..oooXXXXXXXXXXXXXXXXXXXXXXXXXXXXXXXXXXXXXXX",
"                    ..oooXXXXXXXXXXXXXXXXXXXXXXXXXXXXXXXXXXXXXXX",
"                    ..oooXXXXXXXXXXXXXXXXXXXXXXXXXXXXXXXXXXXXXXX",
"                    ..oooXXXXXXXXXXXXXXXXXXXXXXXXXXXXXXXXXXXXXXX",
"                    ..oooXXXXXXXXXXXXXXXXXXXXXXXXXXXXXXXXXXXXXXX",
" .....................oooXXXXXXXXXXXXXXXXXXXXXXXXXXXXXXXXXXXXXXX",
" .oooXXXXXXXXXXXXXXX..oooXXXXXXXXXXXXXXXXXXXXXXXXXXXXXXXXXXXXXXX",
" .oooXXXXXXXXXXXXXXX..oooXXXXXXXXXXXXXXXXXXXXXXXXXXXXXXXXXXXXXXX",
" .oooXXXXXXXXXXXXXXX..oooXXXXXXXXXXXXXXXXXXXXXXXXXXXXXXXXXXXXXXX",
" .oooXXXXXXXXXXXXXXX..oooXXXXXXXXXXXXXXXXXXXXXXXXXXXXXXXXXXXXXXX",
" .oooXXXXXXXXXXXXXXX..oooXXXXXXXXXXXXXXXXXXXXXXXXXXXXXXXXXXXXXXX",
" .oooXXXXXXXXXXXXXXX..oooXXXXXXXXXXXXXXXXXXXXXXXXXXXXXXXXXXXXXXX",
" .oooXXXXXXXXXXXXXXX..oooXXXXXXXXXXXXXXXXXXXXXXXXXXXXXXXXXXXXXXX",
" .oooXXXXXXXXXXXXXXX..oooXXXXXXXXXXXXXXXXXXXXXXXXXXXXXXXXXXXXXXX",
" .oooXXXXXXXXXXXXXXX..oooXXXXXXXXXXXXXXXXXXXXXXXXXXXXXXXXXXXXXXX",
" .oooXXXXXXXXXXXXXXX..oooXXXXXXXXXXXXXXXXXXXXXXXXXXXXXXXXXXXXXXX",
" .oooXXXXXXXXXXXXXXX..oooXXXXXXXXXXXXXXXXXXXXXXXXXXXXXXXXXXXXXXX",
" .oooXXXXXXXXXXXXXXX..oooXXXXXXXXXXXXXXXXXXXXXXXXXXXXXXXXXXXXXXX",
" .oooXXXXXXXXXXXXXXX..oooXXXXXXXXXXXXXXXXXXXXXXXXXXXXXXXXXXXXXXX",
" .oooXXXXXXXXXXXXXXX..oooXXXXXXXXXXXXXXXXXXXXXXXXXXXXXXXXXXXXXXX",
" .oooXXXXXXXXXXXXXXX..oooXXXXXXXXXXXXXXXXXXXXXXXXXXXXXXXXXXXXXXX",
" .oooXXXXXXXXXXXXXXX..oooXXXXXXXXXXXXXXXXXXXXXXXXXXXXXXXXXXXXXXX",
" .oooXXXXXXXXXXXXXXX..oooXXXXXXXXXXXXXXXXXXXXXXXXXXXXXXXXXXXXXXX",
" .oooXXXXXXXXXXXXXXX..oooXXXXXXXXXXXXXXXXXXXXXXXXXXXXXXXXXXXXXXX",
" .oooXXXXXXXXXXXXXXX..oooXXXXXXXXXXXXXXXXXXXXXXXXXXXXXXXXXXXXXXX",
" .oooXXXXXXXXXXXXXXX..oooXXXXXXXXXXXXXXXXXXXXXXXXXXXXXXXXXXXXXXX",
" .oooXXXXXXXXXXXXXXX..oooXXXXXXXXXXXXXXXXXXXXXXXXXXXXXXXXXXXXXXX",
" .oooXXXXXXXXXXXXXXX..oooXXXXXXXXXXXXXXXXXXXXXXXXXXXXXXXXXXXXXXX",
" .oooXXXXXXXXXXXXXXX..oooXXXXXXXXXXXXXXXXXXXXXXXXXXXXXXXXXXXXXXX",
" .oooXXXXXXXXXXXXXXX..oooXXXXXXXXXXXXXXXXXXXXXXXXXXXXXXXXXXXXXXX",
" .oooXXXXXXXXXXXXXXX..oooXXXXXXXXXXXXXXXXXXXXXXXXXXXXXXXXXXXXXXX",
" .oooXXXXXXXXXXXXXXX..oooXXXXXXXXXXXXXXXXXXXXXXXXXXXXXXXXXXXXXXX",
" .oooXXXXXXXXXXXXXXX..oooXXXXXXXXXXXXXXXXXXXXXXXXXXXXXXXXXXXXXXX",
" .oooXXXXXXXXXXXXXXX..oooXXXXXXXXXXXXXXXXXXXXXXXXXXXXXXXXXXXXXXX",
" .oooXXXXXXXXXXXXXXX..ooooXXXXXXXXXXXXXXXXXXXXXXXXXXXXXXXXXXXXXX",
" .oooXXXXXXXXXXXXXXX..ooooXXXXXXXXXXXXXXXXXXXXXXXXXXXXXXXXXXXXXX",
" .oooXXXXXXXXXXXXXXX..ooooXXXXXXXXXXXXXXXXXXXXXXXXXXXXXXXXXXXXXX",
" .oooXXXXXXXXXXXXXXX..oooooooooooooooooooooooooooooooooooooooooo",
" .oooXXXXXXXXXXXXXXXXX....oooooooooooooooooooooooooooooooooooooo",
" .oooXXXXXXXXXXXXXXXXX..........................................",
" .oooXXXXXXXXXXXXXXXXX..........................................",
" .oooXXXXXXXXXXXXXXXXXXXX.....oooo...                           ",
" .oooXXXXXXXXXXXXXXXXXXXX.....oooo...                           ",
" .oooXXXXXXXXXXXXXXXXXXXX.....oooo...                           ",
" .oooXXXXXXXXXXXXXXXXXXXX.....oooo...                           ",
" .oooXXXXXXXXXXXXXXXXXXXXXXXXX...o...                           ",
" .oooXXXXXXXXXXXXXXXXXXXXXXXXX...o...                           ",
" .oooXXXXXXXXXXXXXXXXXXXXXXXXX...o...                           ",
" .oooXXXXXXXXXXXXXXXXXXXXXXXXX...o...                           ",
" .ooooooooooooooooooooooooooooooo....                           ",
" .ooooooooooooooooooooooooooooooo....                           ",
" .ooooooooooooooooooooooooooooooo....                           ",
" .................................                              ",
" .................................                              ",
"                                                                "
};
