/* XPM */
static char *result[] = {
/* columns rows colors chars-per-pixel */
"64 64 7 1 ",
"  c black",
". c #83A448",
"X c #FFFDF5",
"o c #FFC579",
"O c #A0B74F",
"+ c #83883C",
"@ c #8BAC50",
/* pixels */
"                                         .......................",
"                                         .......................",
"XXXXXXXXXXXXXXXXXXXXXXXXXXXXXXXXXXXXXX   .......................",
"XXXXXXXXXXXXXXXXXXXXXXXXXXXXXXXXXXXXXXXXX   ....................",
"XXXXXXXXXXXXXXXXXXXXXXXXXXXXXXXXXXXXXXXXX   ....................",
"XXXXXXXXXXXXXXXXXXXXXXXXXXXXXXXXXXXXXXXXX   ....................",
"XXXXXXXXXXXXXXXXXXXXXXXXXXXXXXXXXXXXXXXXX   ....................",
"XXXXXXXXXXXXXXXXXXXXXXXXXXXXXXXXXXXXXXXXX   ....................",
"XXXXXXXXXXXXXXXXXXXXXXXXXXXXXXXXXXXXXXXXX   ....................",
"XXXXXXXXXXXXXXXXXXXXXXXXXXXXXXXXXXXXXXXXX   ....................",
"XXXXXXXXXXXXXXXXXXXXXXXXXXXXXXXXXXXXXXXXX   ....................",
"XXXXXXXXXXXXXXXXXXXXXXXXXXXXXXXXXXXXXXXXX   ....................",
"XXXXXXXXXXXXXXXXXXXXXXXXXXXXXXXXXXXXXXXXX   ....................",
"XXXXXXXXXXXXXXXXXXXXXXXXXXXXXXXXXXXXXXXXX   ....................",
"XXXXXXXXXXXXXXXXXXXXXXXXXXXXXXXXXXXXXXXXX                      .",
"XXXXXXXXXXXXXXXXXXXXXXXXXXXXXXXXXXXXXXXXX   XXXXXXXXXXXXXXXXXX .",
"XXXXXXXXXXXXXXXXXXXXXXXXXXXXXXXXXXXXXXXXX   XXXXXXXXXXXXXXXXXX .",
"XXXXXXXXXXXXXXXXXXXXXXXXXXXXXXXXXXXXXXXXX   XXXXXXXXXXXXXXXXXX .",
"XXXXXXXXXXXXXXXXXXXXXXXXXXXXXXXXXXXXXXXXX   XXXXXXXXXXXXXXXXXX .",
"XXXXXXXXXXXXXXXXXXXXXXXXXXXXXXXXXXXXXXXXX   XXXXXXXXXXXXXXXXXX .",
"XXXXXXXXXXXXXXXXXXXXXXXXXXXXXXXXXXXXXXXXX   XXXXXXXXXXXXXXXXXX .",
"XXXXXXXXXXXXXXXXXXXXXXXXXXXXXXXXXXXXXXXXX   XXXXXXXXXXXXXXXXXX .",
"XXXXXXXXXXXXXXXXXXXXXXXXXXXXXXXXXXXXXXXXX   XXXXXXXXXXXXXXXXXX .",
"XXXXXXXXXXXXXXXXXXXXXXXXXXXXXXXXXXXXXXXXX   XXXXXXXXXXXXXXXXXX .",
"XXXXXXXXXXXXXXXXXXXXXXXXXXXXXXXXXXXXXXXXX   XXXXXXXXXXXXXXXXXX .",
"XXXXXXXXXXXXXXXXXXXXXXXXXXXXXXXXXXXXXXXXX   XXXXXXXXXXXXXXXXXX .",
"XXXXXXXXXXXXXXXXXXXXXXXXXXXXXXXXXXXXXXXXX   XXXXXXXXXXXXXXXXXX .",
"XXXXXXXXXXXXXXXXXXXXXXXXXXXXXXXXXXXXXXXXX   XXXXXXXXXXXXXXXXXX .",
"XXXXXXXXXXXXXXXXXXXXXXXXXXXXXXXXXXXXXXXXX   XXXXXXXXXXXXXXXXXX .",
"XXXXXXXXXXXXXXXXXXXXXXXXXXXXXXXXXXXXXXXXX   XXXXXXXXXXXXXXXXXX .",
"XXXXXXXXXXXXXXXXXXXXXXXXXXXXXXXXXXXXXXXXX   XXXXXXXXXXXXXXXXXX .",
"XXXXXXXXXXXXXXXXXXXXXXXXXXXXXXXXXXXXXXXXX   XXXXXXXXXXXXXXXXXX .",
"XXXXXXXXXXXXXXXXXXXXXXXXXXXXXXXXXXXXXXXXX   XXXXXXXXXXXXXXXXXX .",
"XXXXXXXXXXXXXXXXXXXXXXXXXXXXXXXXXXXXXXXXX   XXXXXXXXXXXXXXXXXX .",
"XXXXXXXXXXXXXXXXXXXXXXXXXXXXXXXXXXXXXXXXX   XXXXXXXXXXXXXXXXXX .",
"XXXXXXXXXXXXXXXXXXXXXXXXXXXXXXXXXXXXXXXXX   XXXXXXXXXXXXXXXXXX .",
"XXXXXXXXXXXXXXXXXXXXXXXXXXXXXXXXXXXXXXXXX   XXXXXXXXXXXXXXXXXX .",
"XXXXXXXXXXXXXXXXXXXXXXXXXXXXXXXXXXXXXXXXX   XXXXXXXXXXXXXXXXXX .",
"XXXXXXXXXXXXXXXXXXXXXXXXXXXXXXXXXXXXXXXXX   XXXXXXXXXXXXXXXXXX .",
"XXXXXXXXXXXXXXXXXXXXXXXXXXXXXXXXXXXXXXXXX   XXXXXXXXXXXXXXXXXX .",
"XXXXXXXXXXXXXXXXXXXXXXXXXXXXXXXXXXXXXXXXX   XXXXXXXXXXXXXXXXXX .",
"XXXXXXXXXXXXXXXXXXXXXXXXXXXXXXXXXXXXXXXXX   XXXXXXXXXXXXXXXXXX .",
"XXXXXXXXXXXXXXXXXXXXXXXXXXXXXXXXXXXXXXXXX   XXXXXXXXXXXXXXXXXX .",
"XXXXXXXXXXXXXXXXXXXXXXXXXXXXXXXXXXXXXXXXX   XXXXXXXXXXXXXXXXXX .",
"XXXXXXXXXXXXXXXXXXXXXXXXXXXXXXXXXXXXXXXXX   XXXXXXXXXXXXXXXXXX .",
"XXXXXXXXXXXXXXXXXXXXXXXXXXXXXXXXXXXXXXXXX   XXXXXXXXXXXXXXXXXX .",
"ooooooooooooooooooooooooooooooooooooooooo   XXXXXXXXXXXXXXXXXX .",
"oooooooooooooooooooooooooooooooooooooooooXXXXXXXXXXXXXXXXXXXXX .",
"                                         XXXXXXXXXXXXXXXXXXXXX .",
"                                         XXXXXXXXXXXXXXXXXXXXX .",
".........OOOO....OO++++....  ooooo     XXXXXXXXXXXXXXXXXXXXXXX .",
".........OOOO....OO++++....  ooooo     XXXXXXXXXXXXXXXXXXXXXXX .",
"@..........OOOO............  ooooo     XXXXXXXXXXXXXXXXXXXXXXX .",
"@..........OOOO............  ooooo     XXXXXXXXXXXXXXXXXXXXXXX .",
"@........++++OO............  oo   XXXXXXXXXXXXXXXXXXXXXXXXXXXX .",
"@........++++OO............  oo   XXXXXXXXXXXXXXXXXXXXXXXXXXXX .",
"...........................  oo   XXXXXXXXXXXXXXXXXXXXXXXXXXXX .",
"...........................  oo   XXXXXXXXXXXXXXXXXXXXXXXXXXXX .",
"...........................    ooooooooooooooooooooooooooooooo .",
"...........................    ooooooooooooooooooooooooooooooo .",
"...........................    ooooooooooooooooooooooooooooooo .",
".............................                                  .",
".............................                                  .",
"................................................................"
};
