/* XPM */
static char *result[] = {
/* columns rows colors chars-per-pixel */
"64 64 57 1 ",
"  c black",
". c #FFFDF5",
"X c gray42",
"o c DimGray",
"O c gray40",
"+ c #6A6A6A",
"@ c #E4E4E4",
"# c #6C6C6C",
"$ c #FEFEFE",
"% c #6D6D6D",
"& c #6F6F6F",
"* c #F1F1F1",
"= c #E1E1E1",
"- c gray44",
"; c #7B7B7B",
": c #686868",
"> c gray77",
", c #C0C0C0",
"< c #C5C5C5",
"1 c gray39",
"2 c #A0A0A0",
"3 c gray76",
"4 c #656565",
"5 c gray80",
"6 c #767676",
"7 c #C1C1C1",
"8 c #B4B4B4",
"9 c gray59",
"0 c #9B9B9B",
"q c #AFAFAF",
"w c #D2D2D2",
"e c gray84",
"r c gray62",
"t c gray70",
"y c white",
"u c #B1B1B1",
"i c #FCFBFC",
"p c gray69",
"a c #FDFDFD",
"s c #9D9D9D",
"d c #717171",
"f c #F8F8F8",
"g c gray78",
"h c gray75",
"j c #646464",
"k c gray37",
"l c #C6C6C6",
"z c #B2B2B2",
"x c #B9B9B9",
"c c gray72",
"v c #747474",
"b c #FFC579",
"n c #83A448",
"m c #A0B74F",
"M c #83883C",
"N c #91AF55",
"B c #8BAC50",
/* pixels */
"                                                                ",
"                                                                ",
"................................................................",
"................................................................",
"................................................................",
"................................................................",
"................................................................",
"XoO..+ooo...@+o#................................................",
"$$$%.&$*o...=-$X................................................",
"#$$$;&$*o...=-$X................................................",
".%$$-&$*o...=-$X................................................",
".&$$X&$*o...=-$X................................................",
".%$$:&$*o...=-$X................................................",
".%>>OO>,+...=+<X................................................",
".&>>OO>,+...=+<X................................................",
"1233+43>5Ooo673X................................................",
">>3%#43>>>33>33X................................................",
"333&.8933333370q................................................",
":o-....oooooo+..................................................",
"................................................................",
"w333333,e.o++++++X......Xooooooo................................",
"rXXXXXXXt.o++++++X......X+ooooX+................................",
"rXy$$$X:u.o+yiii:o......XX$yyy++................................",
"rXy$$$+Op.:oyaaao+......XX$$yy++................................",
"s+y$$$+Op.:oyaaao+......XX$$$$++................................",
"s+y$$$+Op.:oyaaao+......XX$$$$++................................",
"s+y$$$+Op.:oyaa$$a+o....XX$$$$++................................",
"s+y$$$+Op.:oy$$$$iod....XX$$$$++................................",
"s+y$$$+Op.:oy$$$$y$fdd..XX$$$$++................................",
"s+y$$$+Op.:oy$$$$$$y##..#X$$$$++................................",
"s+y$$$+Op.:oy$$$$$y$yyXoOX$$$$++................................",
"sXy$$$oOp.:oyyyy$$yyyyXoo+yyyy++................................",
"rX5gggoOp.:+h7,,-j>><<<<%ogggg++................................",
"r#7333o:p.:+3777%&>>>>>>O:733>X+................................",
"r#>333oop.:+<777%%:k33>>773773#+................................",
"r#>333oop.:+<777%#oO,73>333333#+................................",
"r#>333oop.oXl333##..XX33333333X+................................",
"r#>333oop.oXl333##..oo37,73333#+................................",
"r#>333oop.oXl333#%....+:h3>333#+................................",
"r#>333oop.oXl333#%....Ok7<3333#+................................",
"rX3333oop.oXl333#%......X:3333X+................................",
"rX333>o:z.oX<>>>%X......#o,hhh#X................................",
"r+X+X#Xox.oX+####%......#XXXXX##................................",
"s:o:o4Ojc.O%#X+++%......vOOOOO::................................",
"................................................................",
"................................................................",
"bbbbbbbbbbbbbbbbbbbbbbbbbbbbbbbbbbbbbbbbbbbbbbbbbbbbbbbbbbbbbbbb",
"bbbbbbbbbbbbbbbbbbbbbbbbbbbbbbbbbbbbbbbbbbbbbbbbbbbbbbbbbbbbbbbb",
"                                                                ",
"                                                                ",
"nnnnnnnnnmmmmnnnnmmMMMMnnnnnnnnnnnnnnnnnnnnnnnNNnnnnNNNNnnnnnnnn",
"nnnnnnnnnmmmmnnnnmmMMMMnnnnnnnnnnnnnnnnnnnnnnnNNnnnnNNNNnnnnnnnn",
"BnnnnnnnnnnmmmmnnnnnnnnnnnnnnnnnnnnnnnnnnnnnnnNNNNnnNNMMMMnnnnnn",
"BnnnnnnnnnnmmmmnnnnnnnnnnnnnnnnnnnnnnnnnnnnnnnNNNNnnNNMMMMnnnnnn",
"BnnnnnnnnMMMMmmnnnnnnnnnnnnnnnnnnnnnnnnnnnnnMMMMNNnnnnnnnnnnnnnn",
"BnnnnnnnnMMMMmmnnnnnnnnnnnnnnnnnnnnnnnnnnnnnMMMMNNnnnnnnnnnnnnnn",
"nnnnnnnnnnnnnnnnnnnnnnnnnnnnnnnnnnnnnnnnnnnnnnnnnnnnnnnnnnnnnnnn",
"nnnnnnnnnnnnnnnnnnnnnnnnnnnnnnnnnnnnnnnnnnnnnnnnnnnnnnnnnnnnnnnn",
"nnnnnnnnnnnnnnnnnnnnnnnnnnnnnnnnnnnnnnnnnnnnnnnnnnnnnnnnnnnnnnnn",
"nnnnnnnnnnnnnnnnnnnnnnnnnnnnnnnnnnnnnnnnnnnnnnnnnnnnnnnnnnnnnnnn",
"nnnnnnnnnnnnnnnnnnnnnnnnnnnnnnnnnnnnnnnnnnnnnnnnnnnnnnnnnnnnnnnn",
"nnnnnnnnnnnnnnnnnnnnnnnnnnnnnnnnnnnnnnnnnnnnnnnnnnnnnnnnnnnnnnnn",
"nnnnnnnnnnnnnnnnnnnnnnnnnnnnnnnnnnnnnnnnnnnnnnnnnnnnnnnnnnnnnnnn",
"nnnnnnnnnnnnnnnnnnnnnnnnnnnnnnnnnnnnnnnnnnnnnnnnnnnnnnnnnnnnnnnn"
};
