/* XPM */
static char *result[] = {
/* columns rows colors chars-per-pixel */
"64 64 69 1 ",
"  c black",
". c #FFFDF5",
"X c #6A6A6A",
"o c #686868",
"O c gray42",
"+ c DimGray",
"@ c #FEFEFE",
"# c white",
"$ c gray40",
"% c gray45",
"& c #FDFDFD",
"* c #6C6C6C",
"= c #6D6D6D",
"- c #767676",
"; c #F9F9F9",
": c #6F6F6F",
"> c gray78",
", c #C1C1C1",
"< c #C5C5C5",
"1 c gray77",
"2 c #C6C6C6",
"3 c gray76",
"4 c #626262",
"5 c gray39",
"6 c gray49",
"7 c #C0C0C0",
"8 c #656565",
"9 c #646464",
"0 c gray38",
"q c #EAEAEA",
"w c #F6F6F6",
"e c #E9E9E9",
"r c gray95",
"t c gray98",
"y c #CECECE",
"u c #B9B9B9",
"i c #B2B2B2",
"p c #CDCDCD",
"a c gray72",
"s c #717171",
"d c gray44",
"f c gray80",
"g c gray75",
"h c #7B7B7B",
"j c #797979",
"k c gray",
"l c #B7B7B7",
"z c gray73",
"x c gray64",
"c c #AFAFAF",
"v c #B6B6B6",
"b c gray69",
"n c gray70",
"m c gray67",
"M c #A0A0A0",
"N c #A2A2A2",
"B c gray63",
"V c #9A9A9A",
"C c #A4A4A4",
"Z c #A5A5A5",
"A c gray47",
"S c gray51",
"D c #868686",
"F c #FFC579",
"G c #83A448",
"H c #A0B74F",
"J c #83883C",
"K c #91AF55",
"L c #8BAC50",
/* pixels */
"                                                                ",
"                                                                ",
"................................................................",
"................................................................",
"................................................................",
"................................................................",
"..............................................Xooo....XXXO..+o+X",
"..............................................X@@O....X#@$.O####",
"..............................................X@@O....X#@$%&&@*=",
"..............................................X@@X....X#@$*&&@..",
"..............................................X@@@+..+###oO&&&..",
"...............................................-@@;OO###:.o&&&..",
"................................................:>,,,,,o..O<<>..",
".................................................o,,,,X...:112..",
"..................................................X11+....%33145",
"..................................................O<<X....6331,1",
"..................................................O<<O.....+7,11",
"..................................................OOOO......X++o",
"................................................................",
"................................................................",
"...........++++++++++...............::XXOO:=+XXO.........:XXXoO:",
"...........X899$$$$0o...............**XXXX+++++=.........*XXXXX+",
"...........X899$$$$0o...............**XXXX+++++=.........*XXXXX+",
"...........*+&&&&&&=+.............+5@@#########@+X....++X@######",
"...........O+@@@@@@*O.............OO######@@@@@&o0....OO$######@",
"...........X+@@@@@@*O...........Oo&&&&@&==*****&&#O.%o&&&&@&&+=*",
"...........X+@@@@@@*O...........Xo&&@@qX.......*w@+.*o&&&@qXX...",
"...........X+@@@@@@*O...........Xo&&@@eX.......*&&o.:o&&&@eXX...",
"...........X+@@@@@@*O...........Xo&&@@eX.......*&&o.:o&&&@eXX...",
"...........X+@@@@@@*O...........Xo&&@@eX.......*&&+.Xo&&&@eXX...",
"...........X+@@@@@@*O...........Xo&&@@eX.......*&&+.oo&&&@eXX...",
"...........X+@@@@@@*O...........Xo&&@@eX.......*&&+.oo&&&@eXX...",
"...........X+######XO...........X=@@##r+.......*#t+.o=@@@#r++...",
"...........X+223333*O...........XXy<<<u*.......*i1+.XXyy<<u**...",
"...........XO223333*O...........X+p111aO.......*i1+.=+pp11aOO...",
"...........XO223333*O...........X+p111aO.......*i1+.:+pp11aOO...",
"...........XO223333*O...........X+p111aO.......*i1+.:+pp11aOO...",
"...........XX113333*O....sssssd.+of333<<88999%%g,,+.=off33<<<989",
"...........XX333333*OOOOOOO77+5.Oof3331<2211111332X.hoff331<<,21",
"...........XX113333$XX$$$OO,,O8.jskl,,3111333333gz-.xskkz,311113",
"...........XX113333$XX$$$OO,,O8.jskl,,3111333333gz-.xskkz,311113",
"...........XX<<33333ucaa71111X9...+8,,3111333337+X....++*,311113",
"...........X*vvbbbbvki77bnvvvX9...mvMMNxMMNNNBBVCZ....mmnMNxxxMN",
"...........XXXXXX::A6SDDoOX++O+.....++++oooooooX.........+++++oo",
"................................................................",
"................................................................",
"FFFFFFFFFFFFFFFFFFFFFFFFFFFFFFFFFFFFFFFFFFFFFFFFFFFFFFFFFFFFFFFF",
"FFFFFFFFFFFFFFFFFFFFFFFFFFFFFFFFFFFFFFFFFFFFFFFFFFFFFFFFFFFFFFFF",
"                                                                ",
"                                                                ",
"GGGGGGGGGHHHHGGGGHHJJJJGGGGGGGGGGGGGGGGGGGGGGGKKGGGGKKKKGGGGGGGG",
"GGGGGGGGGHHHHGGGGHHJJJJGGGGGGGGGGGGGGGGGGGGGGGKKGGGGKKKKGGGGGGGG",
"LGGGGGGGGGGHHHHGGGGGGGGGGGGGGGGGGGGGGGGGGGGGGGKKKKGGKKJJJJGGGGGG",
"LGGGGGGGGGGHHHHGGGGGGGGGGGGGGGGGGGGGGGGGGGGGGGKKKKGGKKJJJJGGGGGG",
"LGGGGGGGGJJJJHHGGGGGGGGGGGGGGGGGGGGGGGGGGGGGJJJJKKGGGGGGGGGGGGGG",
"LGGGGGGGGJJJJHHGGGGGGGGGGGGGGGGGGGGGGGGGGGGGJJJJKKGGGGGGGGGGGGGG",
"GGGGGGGGGGGGGGGGGGGGGGGGGGGGGGGGGGGGGGGGGGGGGGGGGGGGGGGGGGGGGGGG",
"GGGGGGGGGGGGGGGGGGGGGGGGGGGGGGGGGGGGGGGGGGGGGGGGGGGGGGGGGGGGGGGG",
"GGGGGGGGGGGGGGGGGGGGGGGGGGGGGGGGGGGGGGGGGGGGGGGGGGGGGGGGGGGGGGGG",
"GGGGGGGGGGGGGGGGGGGGGGGGGGGGGGGGGGGGGGGGGGGGGGGGGGGGGGGGGGGGGGGG",
"GGGGGGGGGGGGGGGGGGGGGGGGGGGGGGGGGGGGGGGGGGGGGGGGGGGGGGGGGGGGGGGG",
"GGGGGGGGGGGGGGGGGGGGGGGGGGGGGGGGGGGGGGGGGGGGGGGGGGGGGGGGGGGGGGGG",
"GGGGGGGGGGGGGGGGGGGGGGGGGGGGGGGGGGGGGGGGGGGGGGGGGGGGGGGGGGGGGGGG",
"GGGGGGGGGGGGGGGGGGGGGGGGGGGGGGGGGGGGGGGGGGGGGGGGGGGGGGGGGGGGGGGG"
};
