/* XPM */
static char *result[] = {
/* columns rows colors chars-per-pixel */
"64 64 76 1 ",
"  c #4EBCB9",
". c black",
"X c #FFFDF5",
"o c #FFC579",
"O c #6A6A6A",
"+ c #6D6D6D",
"@ c #686868",
"# c DimGray",
"$ c gray42",
"% c #6C6C6C",
"& c gray38",
"* c #A9A9A9",
"= c gray40",
"- c #646464",
"; c #656565",
": c gray66",
"> c gray49",
", c white",
"< c #FEFEFE",
"1 c #FDFDFD",
"2 c gray95",
"3 c #FCFBFC",
"4 c gray90",
"5 c #717171",
"6 c gray48",
"7 c gray98",
"8 c gray44",
"9 c #8B8B8B",
"0 c #F3F3F3",
"q c #E4E4E4",
"w c #A7A6A7",
"e c #7B7B7B",
"r c #909090",
"t c gray63",
"y c #AAAAAA",
"u c #E7E7E7",
"i c #EAEAEA",
"p c gray87",
"a c #A2A2A2",
"s c gray89",
"d c gainsboro",
"f c gray52",
"g c #6F6F6F",
"h c #F1F1F1",
"j c gray51",
"k c #DADADA",
"l c gray97",
"z c #D2D2D2",
"x c #808080",
"c c gray67",
"v c gray77",
"b c gray76",
"n c #C0C0C0",
"m c gray74",
"M c #C1C1C1",
"N c #777777",
"B c gray45",
"V c #767676",
"C c gray37",
"Z c gray70",
"A c #B1B1B1",
"S c gray75",
"D c gray79",
"F c #C8C8C8",
"G c #CDCDCD",
"H c #868686",
"J c #888888",
"K c gray69",
"L c #747474",
"P c #B4B4B4",
"I c #AFAFAF",
"U c #C5C5C5",
"Y c gray61",
"T c #B6B6B6",
"R c #797979",
"S c #349AA4",
/* pixels */
"                  SSSSSSSSSSSSSSSSSSSSSSSSSSSSSSSSSSSSSSSSS     ",
"                     SSSSSSSSSSSSSSSSSSSSSSSSSSSSSSSSSS         ",
"                                                                ",
"                                                                ",
"                                                                ",
"                                                                ",
"                                                                ",
"................................................................",
"................................................................",
"................................................................",
"XXXXXXXXXXXXXXXXXXXXXXXXXXXXXXXXXXXXXXXXXXXXXXXXXXXXXXXXXXXXXXXX",
"XXXXXXXXXXXXXXXXXXXXXXXXXXXXXXXXXXXXXXXXXXXXXXXXXXXXXXXXXXXXXXXX",
"XXXXXXXXXXXXXXXXXXXXXXXXXXXXXXXXXXXXXXXXXXXXXXXXXXXXXXXXXXXXXXXX",
"XXXXXXXXXXXXXXXXXXXXXXXXXXXXXXXXXXXXXXXXXXXXXXXXXXXXXXXXXXXXXXXX",
"XXXXXXXXXXXXXXXXXXXXXXXXXXXXXXXXXXXXXXXXXXXXXXXXXXXXXXXXXXXXXXXX",
"XXXXXXXXXXXXXXXXXXXXXXXXXXXXXXXXXXXXXXXXXXXXXXXXXXXXXXXXXXXXXXXX",
"XXXXXXXXXXXXXXXXXXXXXXXXXXXXXXXXXXXXXXXXXXXXXXXXXXXXXXXXXXXXXXXX",
"XXXXXXXXXXXXXXXXXXXXXXXXXXXXXXXXXXXXXXXXXXXXXXXXXXXXXXXXXXXXXXXX",
"oooooooooooooooooooooooooooooooooooooooooooooooooooooooooooooooo",
"OOXXXOO+OOOOOO@XXXX#OO$OOXXXX$##%&@**$#$##@@=--@;###:O@@@#>XXXX$",
"@@XX#,,<<<<<<<1##XX#2213OXXXX$<<<4$**51,<<11,<<<,,$$:O333@6XXXX$",
"@@XX#,,<<<<<<<1##XX#2213OXXXX$<<<4$**51,<<11,<<<,,$$:O333@6XXXX$",
"@@XX#,,<<<<<<<1##XX#2213OXXXX$<<<4$**51,<<11,<<<,,$$:O333@6XXXX$",
"@@X;711,,OOOOO<,,89#00<7#XXXX$<<<qO**51<###@#OOO$$OOw#111#eXXXX$",
"@@X$<<<,@XXXXX###Or#00<7#XXt#<,,<qOyy8<<##=XXXXXXXXXw#111,u#XXX$",
"@@X$<<<,#XXXXXXXXXi#00<7#ppa9,,,sdfyy8<<##gXXXXXXXXXw#1<<<hjkkX$",
"@@oO<<<,#oooooooooo#00<l#OOz,,,,gxoyy8<<888ooooooooow#1<<<<,%%o+",
"@@XO<<<,#XXXXXXXXXX#00<l#OOz,,,,gxXyy8<<888+8##XXXXXw#1<<<<,%%X+",
"@@XO<<<,#XXXXXXXXXX#00<l#OOz,,,,gxXyy8<<888+8##XXXXXw#1<<<<,%%X+",
"@@X@<11,OXXXXXXXXXX#00<<1,,<,,##XXXcc5,,<<,,,OOXXXXXw#1<<<<,,,$#",
"##X$vbbnOXXXXXXXXXX#mmbbMMMMn@XXXXXccNMMOOO@#OOXXXXXwObMMBVbMMvC",
"OOX$bvvMOXXXXX$###Z#AAbbbbbbvn##XXXyyVbb##OXXXXXXXXXwOnMM+++vvvm",
"$$X$bvvSrDFFFGHJJ+Z#KKbMAAAbbbOOXXX**Lbb###XXXXXXXXXwOnMM+g=MMbb",
"$$X$bvvSrDFFFGHJJ+Z#KKbMAAAbbbOOXXX**Lbb###XXXXXXXXXwOnMM+g=MMbb",
"$$o$bvvSrDFFFGHJJ+Z#KKbMAAAbbbOOooo**Lbb###ooooooooowOnMM+g=MMbb",
"OOX$bvvbb$$$$ObvvOP#IIbnO@@:UbMM#LX**Lbb##8XXXXXXXXX:$Mbb%6X##bn",
"OOXObvvvbbbbbbvvvOP#IIbnOXXY$vvvbP=**LbbOOOOOOOOOOOO:$Mbb%eXXXOS",
"##XX%nnUUvvvvvv@@XX#IIbS#XXXXObbbTO**LbbnnMMMbbbMM$$:$Mbb%eXXXX$",
"OOXXXBB$$$%%%%%XXXX#gg;5OXXXXO%%NR#**$%%$$$$$$$$$$==:$%++g>XXXX%",
"XXXXXXXXXXXXXXXXXXXXXXXXXXXXXXXXXXXXXXXXXXXXXXXXXXXXXXXXXXXXXXXX",
"XXXXXXXXXXXXXXXXXXXXXXXXXXXXXXXXXXXXXXXXXXXXXXXXXXXXXXXXXXXXXXXX",
"XXXXXXXXXXXXXXXXXXXXXXXXXXXXXXXXXXXXXXXXXXXXXXXXXXXXXXXXXXXXXXXX",
"oooooooooooooooooooooooooooooooooooooooooooooooooooooooooooooooo",
"XXXXXXXXXXXXXXXXXXXXXXXXXXXXXXXXXXXXXXXXXXXXXXXXXXXXXXXXXXXXXXXX",
"XXXXXXXXXXXXXXXXXXXXXXXXXXXXXXXXXXXXXXXXXXXXXXXXXXXXXXXXXXXXXXXX",
"XXXXXXXXXXXXXXXXXXXXXXXXXXXXXXXXXXXXXXXXXXXXXXXXXXXXXXXXXXXXXXXX",
"XXXXXXXXXXXXXXXXXXXXXXXXXXXXXXXXXXXXXXXXXXXXXXXXXXXXXXXXXXXXXXXX",
"XXXXXXXXXXXXXXXXXXXXXXXXXXXXXXXXXXXXXXXXXXXXXXXXXXXXXXXXXXXXXXXX",
"XXXXXXXXXXXXXXXXXXXXXXXXXXXXXXXXXXXXXXXXXXXXXXXXXXXXXXXXXXXXXXXX",
"XXXXXXXXXXXXXXXXXXXXXXXXXXXXXXXXXXXXXXXXXXXXXXXXXXXXXXXXXXXXXXXX",
"XXXXXXXXXXXXXXXXXXXXXXXXXXXXXXXXXXXXXXXXXXXXXXXXXXXXXXXXXXXXXXXX",
"XXXXXXXXXXXXXXXXXXXXXXXXXXXXXXXXXXXXXXXXXXXXXXXXXXXXXXXXXXXXXXXX",
"XXXXXXXXXXXXXXXXXXXXXXXXXXXXXXXXXXXXXXXXXXXXXXXXXXXXXXXXXXXXXXXX",
"XXXXXXXXXXXXXXXXXXXXXXXXXXXXXXXXXXXXXXXXXXXXXXXXXXXXXXXXXXXXXXXX",
"XXXXXXXXXXXXXXXXXXXXXXXXXXXXXXXXXXXXXXXXXXXXXXXXXXXXXXXXXXXXXXXX",
"XXXXXXXXXXXXXXXXXXXXXXXXXXXXXXXXXXXXXXXXXXXXXXXXXXXXXXXXXXXXXXXX",
"XXXXXXXXXXXXXXXXXXXXXXXXXXXXXXXXXXXXXXXXXXXXXXXXXXXXXXXXXXXXXXXX",
"XXXXXXXXXXXXXXXXXXXXXXXXXXXXXXXXXXXXXXXXXXXXXXXXXXXXXXXXXXXXXXXX",
"XXXXXXXXXXXXXXXXXXXXXXXXXXXXXXXXXXXXXXXXXXXXXXXXXXXXXXXXXXXXXXXX",
"XXXXXXXXXXXXXXXXXXXXXXXXXXXXXXXXXXXXXXXXXXXXXXXXXXXXXXXXXXXXXXXX",
"XXXXXXXXXXXXXXXXXXXXXXXXXXXXXXXXXXXXXXXXXXXXXXXXXXXXXXXXXXXXXXXX",
"XXXXXXXXXXXXXXXXXXXXXXXXXXXXXXXXXXXXXXXXXXXXXXXXXXXXXXXXXXXXXXXX",
"XXXXXXXXXXXXXXXXXXXXXXXXXXXXXXXXXXXXXXXXXXXXXXXXXXXXXXXXXXXXXXXX",
"XXXXXXXXXXXXXXXXXXXXXXXXXXXXXXXXXXXXXXXXXXXXXXXXXXXXXXXXXXXXXXXX"
};
