/* XPM */
static char *result[] = {
/* columns rows colors chars-per-pixel */
"64 64 47 1 ",
"  c #4EBCB9",
". c black",
"X c #FFC579",
"o c #FFFDF5",
"O c #6D6D6D",
"+ c gray42",
"@ c #6A6A6A",
"# c DimGray",
"$ c #C1C1C1",
"% c #FEFEFE",
"& c #A7A6A7",
"* c #6C6C6C",
"= c gray44",
"- c gray40",
"; c #7B7B7B",
": c #656565",
"> c gray37",
", c #FCFBFC",
"< c white",
"1 c gray48",
"2 c #6F6F6F",
"3 c #FDFDFD",
"4 c #DDDDDD",
"5 c #626262",
"6 c #686868",
"7 c gray87",
"8 c #D7D7D7",
"9 c #727272",
"0 c gray76",
"q c #646464",
"w c gray77",
"e c gray73",
"r c #C0C0C0",
"t c #C8C8C8",
"y c #8B8B8B",
"u c gray79",
"i c gray53",
"p c #848484",
"a c #B9B9B9",
"s c #C6C6C6",
"d c #767676",
"f c #C5C5C5",
"g c #9A9A9A",
"h c gray72",
"j c #B2B2B2",
"k c gray",
"l c #349AA4",
/* pixels */
"                  lllllllllllllllllllllllllllllllllllllllll     ",
"                     llllllllllllllllllllllllllllllllll         ",
"                                                                ",
"                                                                ",
"                                                                ",
"                                                                ",
"                                                                ",
"             ...................................................",
"             ...................................................",
"             ...................................................",
"             ...XXXooooooooooooooooooooooooooooooooooooooooooooo",
"             ...XXXooooooooooooooooooooooooooooooooooooooooooooo",
"        ........XXXooooooooooooooooooooooooooooooooooooooooooooo",
"        ........XXXooooooooooooooooooooooooooooooooooooooooooooo",
"        ........XXXooooooooooooooooooooooooooooooooooooooooooooo",
"        ...XX...XXXooooooooooO+@@@@@@#$$$ooooooooooooooooooooooo",
"        ...XX...XXXooooooo+++%%%%%%%%%%%&#oooooooooooooooooooooo",
"        ...XX...XXXooooooo+++%%%%%%%%%%%&#oooooooooooooooooooooo",
"        ...XX...XXXooooXXX+++%%%%%%%%%%%&#XXXXXXXXXXXXXXXXXXXXXX",
"        ...XX...XXXooooooo+++%%%%%%%%%%%&#o*###O#ooooo==-#oo@;::",
"        ...XX...XXXooooo:>,,,%<1@@@@@<%%%<2@3334+ooooo--<@oo@%%%",
"        ...XX...XXXooooo+5%%%%6oooooo2###@@@3334+ooooo--<@oo@%%%",
"        ...XX...XXXooooo+5%%%%#oooooooooooo@3334+ooooo--<@oo@%%%",
"        ...XX...XXXooooo=5%%%%#oooooooooooo@%%%7@ooooo66%@oo#3%%",
"        ...XX...XXXooooo=5%%%%#oooooooooooo@%%%7@ooooo66%@oo#3%%",
"        ...XX...XXXooooo=5%%%%#oooooooooooo@%%%7@ooooo**%@oo#3%%",
"        ...XX...XXXooooX=5%%%%#XXXXXXXXXXXX@%%%7@4488822%@XX#3%%",
"        ...XX...XXXooooo6-3333@oooooooooooo@%%%7@66@@@22%@oo#3%%",
"        ...XX...XXXooooo960000qoooooooooooo@%%%7@66@@@22%@oo#3%%",
"        ...XX...XXXooooo9#wwwwqoooooo*@@@##@%%%<<<<%%%,,3@oo#3%%",
"        ...XX...XXXooooo9#wwwwqoooooo*@@@###000e@@@@@@**r@oo@t$$",
"        ...XX...XXXooooo##wwwwyottttuyiiip#*000a#ooooo::r@oo@s00",
"        ...XX...XXXooooo##wwwwyottttuyiiip#+000a#oooooqqr@oo@s00",
"        ...XX...XXXooooo##wwwwyottttuyiiip#+000a#oooooqqr@oo@s00",
"        ...XX...XXXooooX##wwww0d+++++f000w@+000a#XXXXXqqr@XX@s00",
"        ...XX...XXXooooo#*wwwww$00000wwwww@*000a#ooooo::$@oo@s00",
"        ...XX...XXXooooo#*wwwww$00000wwwww@*000a#ooooo::$@oo@s00",
"        ...XX...XXXoooooooOOOwfwwwwwwwggg6o*000h#ooooo::0@oo@f00",
"        ...XX...XXXoooooooooo@++******ooooo-##6=#ooooo++6@oo@j0k",
"        ...XX...XXXooooooooooooooooooooooooooooooooooooooooooooo",
"        ...XX...XXXooooooooooooooooooooooooooooooooooooooooooooo",
"        ...XX...XXXooooooooooooooooooooooooooooooooooooooooooooo",
"        ...XX...XXXooooXXXXXXXXXXXXXXXXXXXXXXXXXXXXXXXXXXXXXXXXX",
"        ...XX...XXXooooooooooooooooooooooooooooooooooooooooooooo",
"        ...XX...XXXooooooooooooooooooooooooooooooooooooooooooooo",
"        ...XX...XXXooooooooooooooooooooooooooooooooooooooooooooo",
"        ...XX...XXXooooooooooooooooooooooooooooooooooooooooooooo",
"        ...XX...XXXooooooooooooooooooooooooooooooooooooooooooooo",
"        ...XX...XXXooooooooooooooooooooooooooooooooooooooooooooo",
"        ...XX...XXXooooooooooooooooooooooooooooooooooooooooooooo",
"        ...XX...XXXooooooooooooooooooooooooooooooooooooooooooooo",
"        ...XX...XXXooooooooooooooooooooooooooooooooooooooooooooo",
"        ...XX...XXXooooooooooooooooooooooooooooooooooooooooooooo",
"        ...XX...XXXooooooooooooooooooooooooooooooooooooooooooooo",
"        ...XX...XXXooooooooooooooooooooooooooooooooooooooooooooo",
"        ...XX...XXXooooooooooooooooooooooooooooooooooooooooooooo",
"        ...XX...XXXooooooooooooooooooooooooooooooooooooooooooooo",
"        ...XX...XXXooooooooooooooooooooooooooooooooooooooooooooo",
"        ...XX...XXXooooooooooooooooooooooooooooooooooooooooooooo",
"        ...XX...XXXooooooooooooooooooooooooooooooooooooooooooooo",
"        ...XX...XXXooooooooooooooooooooooooooooooooooooooooooooo",
"        ...XX...XXXooooooooooooooooooooooooooooooooooooooooooooo",
"        ...XX...XXXooooooooooooooooooooooooooooooooooooooooooooo",
"        ...XX...XXXooooooooooooooooooooooooooooooooooooooooooooo"
};
