/* XPM */
static char *result[] = {
/* columns rows colors chars-per-pixel */
"64 64 46 1 ",
"  c #4EBCB9",
". c black",
"X c #FFFDF5",
"o c #FFC579",
"O c #6F6F6F",
"+ c #6D6D6D",
"@ c gray42",
"# c gray38",
"$ c #C1C1C1",
"% c gray73",
"& c #A9A9A9",
"* c gray66",
"= c #A7A6A7",
"- c #A5A5A5",
"; c #B6B6B6",
": c #6C6C6C",
"> c white",
", c #686868",
"< c #6A6A6A",
"1 c #FEFEFE",
"2 c #FCFBFC",
"3 c #FDFDFD",
"4 c DimGray",
"5 c gray44",
"6 c #717171",
"7 c gray98",
"8 c gray40",
"9 c #818181",
"0 c gray91",
"q c #EEEEEE",
"w c #808080",
"e c #767676",
"r c #646464",
"t c gray77",
"y c #C5C5C5",
"u c gray76",
"i c gray",
"p c #C0C0C0",
"a c #656565",
"s c #C6C6C6",
"d c #BBBBBB",
"f c #5F5F5F",
"g c #747474",
"h c gray69",
"j c gray67",
"k c #349AA4", 
/* pixels */
"                kkkkkkkkkkkkkkk                                 ",
"                                                                ",
"                                                                ",
"                                                                ",
"                                                                ",
"                                                                ",
"                                                                ",
"......................................................          ",
"......................................................          ",
"......................................................          ",
"XXXXXXXXXXXXXXXXXXXXXXXXXXXXXXXXXXXXXXXXXXXXXXXXXXX...          ",
"XXXXXXXXXXXXXXXXXXXXXXXXXXXXXXXXXXXXXXXXXXXXXXXXXXX...          ",
"XXXXXXXXXXXXXXXXXXXXXXXXXXXXXXXXXXXXXXXXXXXXXXXXXXX...          ",
"XXXXXXXXXXXXXXXXXXXXXXXXXXXXXXXXXXXXXXXXXXXXXXXXXXX...          ",
"XXXXXXXXXXXXXXXXXXXXXXXXXXXXXXXXXXXXXXXXXXXXXXXXXXX...          ",
"XXXXXXXXXXXXXXXXXXXXXXXXXXXXXXXXXXXXXXXXXXXXXXXXXXX...          ",
"XXXXXXXXXXXXXXXXXXXXXXXXXXXXXXXXXXXXXXXXXXXXXXXXXXX...          ",
"XXXXXXXXXXXXXXXXXXXXXXXXXXXXXXXXXXXXXXXXXXXXXXXXXXX...          ",
"oooooooXXXXXXXXXXXXXXXXXXXXXXXXXXXXXXXXXXXXXXXXXXXX...          ",
"O++@#XXX$%&&&&*=---=&&&;XXXXXXXXXXXXXXXXXXXXXXXXXXX...          ",
":>>>,XXX<+>>>>122233>>>4XXXXXXXXXXXXXXXXXXXXXXXXXXX...          ",
":>>>,XXX<+>>>>122233>>>4XXXXXXXXXXXXXXXXXXXXXXXXXXX...          ",
":>>>,XXX<+>>>>122233>>>4XXXXXXXXXXXXXXXXXXXXXXXXXXX...          ",
":111,X++3>>>>4++5567>>>8XXXXXXXXXXXXXXXXXXXXXXXXXXX...          ",
":111,X44>1><<<XXXXX,<444XXXXXXXXXXXXXXXXXXXXXXXXXXX...          ",
":111,X44>1111<XXXXXXXXXXXXXXXXXXXXXXXXXXXXXXXXXXXXX...          ",
":111,o::>11119XXXXX0qXXXXXXXXXXXXXXXXXXXXXXXXXXXXXX...          ",
":111,X::>11119<<<<40qXXXXXXXXXXXXXXXXXXXXXXXXXXXXXX...          ",
":111,X::>111199999w0qXXXXXXXXXXXXXXXXXXXXXXXXXXXXXX...          ",
"@111,Xee>>>>>>>>>>1:888XXXXXXXXXXXXXXXXXXXXXXXXXXXX...          ",
"rttt<XXX,,<yyuttttutttt@XXXXXXXXXXXXXXXXXXXXXXXXXXX...          ",
"ippu@XXXXXX,,a8888stttt@XXXXXXXXXXXXXXXXXXXXXXXXXXX...          ",
"uuuu:XXXXXXXXXXXXXOdttt:XXXXXXXXXXXXXXXXXXXXXXXXXXX...          ",
"uuuu:XXXXXXXXXXXXXOdttt:XXXXXXXXXXXXXXXXXXXXXXXXXXX...          ",
"uuuu:off,8aXXXXXXXOdttt:XXXXXXXXXXXXXXXXXXXXXXXXXXX...          ",
"uuuu@X::O+gXXXXXXX8uttt:XXXXXXXXXXXXXXXXXXXXXXXXXXX...          ",
"uuuu@X::h$$44@@@@@utttt<XXXXXXXXXXXXXXXXXXXXXXXXXXX...          ",
"+uuu@X::h$uttuuuuuutj,,XXXXXXXXXXXXXXXXXXXXXXXXXXXX...          ",
"8@@@+XXX@<444444,,,4wXXXXXXXXXXXXXXXXXXXXXXXXXXXXXX...          ",
"XXXXXXXXXXXXXXXXXXXXXXXXXXXXXXXXXXXXXXXXXXXXXXXXXXX...          ",
"XXXXXXXXXXXXXXXXXXXXXXXXXXXXXXXXXXXXXXXXXXXXXXXXXXX...          ",
"XXXXXXXXXXXXXXXXXXXXXXXXXXXXXXXXXXXXXXXXXXXXXXXXXXX...          ",
"oooooooXXXXXXXXXXXXXXXXXXXXXXXXXXXXXXXXXXXXXXXXXXXX...          ",
"XXXXXXXXXXXXXXXXXXXXXXXXXXXXXXXXXXXXXXXXXXXXXXXXXXX...          ",
"XXXXXXXXXXXXXXXXXXXXXXXXXXXXXXXXXXXXXXXXXXXXXXXXXXX...          ",
"XXXXXXXXXXXXXXXXXXXXXXXXXXXXXXXXXXXXXXXXXXXXXXXXXXX...          ",
"XXXXXXXXXXXXXXXXXXXXXXXXXXXXXXXXXXXXXXXXXXXXXXXXXXX...          ",
"XXXXXXXXXXXXXXXXXXXXXXXXXXXXXXXXXXXXXXXXXXXXXXXXXXX...          ",
"XXXXXXXXXXXXXXXXXXXXXXXXXXXXXXXXXXXXXXXXXXXXXXXXXXX...          ",
"XXXXXXXXXXXXXXXXXXXXXXXXXXXXXXXXXXXXXXXXXXXXXXXXXXX...          ",
"XXXXXXXXXXXXXXXXXXXXXXXXXXXXXXXXXXXXXXXXXXXXXXXXXXX...          ",
"XXXXXXXXXXXXXXXXXXXXXXXXXXXXXXXXXXXXXXXXXXXXXXXXXXX...          ",
"XXXXXXXXXXXXXXXXXXXXXXXXXXXXXXXXXXXXXXXXXXXXXXXXXXX...          ",
"XXXXXXXXXXXXXXXXXXXXXXXXXXXXXXXXXXXXXXXXXXXXXXXXXXX...          ",
"XXXXXXXXXXXXXXXXXXXXXXXXXXXXXXXXXXXXXXXXXXXXXXXXXXX...          ",
"XXXXXXXXXXXXXXXXXXXXXXXXXXXXXXXXXXXXXXXXXXXXXXXXXXX...          ",
"XXXXXXXXXXXXXXXXXXXXXXXXXXXXXXXXXXXXXXXXXXXXXXXXXXX...          ",
"XXXXXXXXXXXXXXXXXXXXXXXXXXXXXXXXXXXXXXXXXXXXXXXXXXX...          ",
"XXXXXXXXXXXXXXXXXXXXXXXXXXXXXXXXXXXXXXXXXXXXXXXXXXX...          ",
"XXXXXXXXXXXXXXXXXXXXXXXXXXXXXXXXXXXXXXXXXXXXXXXXXXX...          ",
"XXXXXXXXXXXXXXXXXXXXXXXXXXXXXXXXXXXXXXXXXXXXXXXXXXX...          ",
"XXXXXXXXXXXXXXXXXXXXXXXXXXXXXXXXXXXXXXXXXXXXXXXXXXX...          ",
"XXXXXXXXXXXXXXXXXXXXXXXXXXXXXXXXXXXXXXXXXXXXXXXXXXX...          ",
"XXXXXXXXXXXXXXXXXXXXXXXXXXXXXXXXXXXXXXXXXXXXXXXXXXX...          "
};
