/* XPM */
static char *result[] = {
/* columns rows colors chars-per-pixel */
"64 64 43 1 ",
"  c #4EBCB9",
". c black",
"X c #FFFDF5",
"o c #6A6A6A",
"O c DimGray",
"+ c gray42",
"@ c white",
"# c gray40",
"$ c #FFC579",
"% c #FEFEFE",
"& c #FCFBFC",
"* c gray98",
"= c #FDFDFD",
"- c gray44",
"; c #6D6D6D",
": c #6C6C6C",
"> c #686868",
", c gray97",
"< c #6F6F6F",
"1 c #717171",
"2 c #F6F6F6",
"3 c gray45",
"4 c gray74",
"5 c #BBBBBB",
"6 c gray73",
"7 c gray75",
"8 c #C8C8C8",
"9 c gray80",
"0 c #CBCBCB",
"q c gray79",
"w c #C6C6C6",
"e c gray77",
"r c gray76",
"t c #C5C5C5",
"y c #656565",
"u c #5F5F5F",
"i c gray78",
"p c #C0C0C0",
"a c gray39",
"s c #C1C1C1",
"d c gray",
"f c gray49",
"V c #349AA4",
/* pixels */
"                  VVVVVVVVVVVVVVVVVVVVVVVVVVVVVVVVVVVVVVVVV     ",
"                     VVVVVVVVVVVVVVVVVVVVVVVVVVVVVVVVVV         ",
"                                                                ",
"                                                                ",
"                                                                ",
"                                                                ",
"                                                                ",
".......................................................         ",
".......................................................         ",
".......................................................         ",
"XXXXXXXXXXXXXXXXXXXXXXXXXXXXXXXXXXXXXXXXXXXXXXXXXXXX...         ",
"XXXXXXXXXXXXXXXXXXXXXXXXXXXXXXXXXXXXXXXXXXXXXXXXXXXX...         ",
"XXXXXXXXXXXXXXXXXXXXXXXXXXXXXXXXXXXXXXXXXXXXXXXXXXXX...         ",
"XXXXXXXXXXXXXXXXXXXXXXXXXXXXXXXXXXXXXXXXXXXXXXXXXXXX...         ",
"XXXXXXXXXXXXXXXXXXXXXXXXXXXXXXXXXXXXXXXXXXXXXXXXXXXX...         ",
"XXXXXXXXXXXXXXXXXXXXXXXXXXXXXXXXXXXXXXXXXXXXXXXXXXXX...         ",
"XXXXXXXXXXXXXXXXXXXXXXXXXXXXXXXXXXXXXXXXXXXXXXXXXXXX...         ",
"ooooOOo++++oOooXXXXXXXXXXXXXXXXXXXXXXXXXXXXXXXXXXXXX...         ",
"@@@@@@@@@@@@@@@#+$$$$XXXXXXXXXXXXXXXXXXXXXXXXXXXXXXX...         ",
"@@@@%%&*&===%@@#-XXXXXXXXXXXXXXXXXXXXXXXXXXXXXXXXXXX...         ",
"@@@;#+ooo+:%=%@>-XXXXXXXXXXXXXXXXXXXXXXXXXXXXXXXXXXX...         ",
"=@,oooooo+:@%@&+<XXXXXXXXXXXXXXXXXXXXXXXXXXXXXXXXXXX...         ",
"@o#XXXXXXXX>o+Oo1XXXXXXXXXXXXXXXXXXXXXXXXXXXXXXXXXXX...         ",
"2:+XXXXXXXX-<:<-3XXXXXXXXXXXXXXXXXXXXXXXXXXXXXXXXXXX...         ",
"%%@ooooooO>XXXXXXXXXXXXXXXXXXXXXXXXXXXXXXXXXXXXXXXXX...         ",
"%%&ooooooO>XXXXXXXXXXXXXXXXXXXXXXXXXXXXXXXXXXXXXXXXX...         ",
"%%@@%%%%%=&++oo$$$$$$XXXXXXXXXXXXXXXXXXXXXXXXXXXXXXX...         ",
"@@@@@@@@@%=:>##XXXXXXXXXXXXXXXXXXXXXXXXXXXXXXXXXXXXX...         ",
"o4564447456890q+;XXXXXXXXXXXXXXXXXXXXXXXXXXXXXXXXXXX...         ",
"Owereeetreeeeee:oXXXXXXXXXXXXXXXXXXXXXXXXXXXXXXXXXXX...         ",
"X>#y###>uieeree;+XXXXXXXXXXXXXXXXXXXXXXXXXXXXXXXXXXX...         ",
"X+ooooooy64reee;:XXXXXXXXXXXXXXXXXXXXXXXXXXXXXXXXXXX...         ",
"OXXXXXXXX>Opree;:XXXXXXXXXXXXXXXXXXXXXXXXXXXXXXXXXXX...         ",
"aXXXXXXXXy+sree;:XXXXXXXXXXXXXXXXXXXXXXXXXXXXXXXXXXX...         ",
"sO;;;;;;;8tdree;+$$$$XXXXXXXXXXXXXXXXXXXXXXXXXXXXXXX...         ",
"t>o++++++wreeee;oXXXXXXXXXXXXXXXXXXXXXXXXXXXXXXXXXXX...         ",
"rerppppserree;OXXXXXXXXXXXXXXXXXXXXXXXXXXXXXXXXXXXXX...         ",
"d7777777777pe+>XXXXXXXXXXXXXXXXXXXXXXXXXXXXXXXXXXXXX...         ",
"OOOOOOOO>>>OOXXXXXXXXXXXXXXXXXXXXXXXXXXXXXXXXXXXXXXX...         ",
"OOOoooooOOOofXXXXXXXXXXXXXXXXXXXXXXXXXXXXXXXXXXXXXXX...         ",
"XXXXXXXXXXXXXXXXXXXXXXXXXXXXXXXXXXXXXXXXXXXXXXXXXXXX...         ",
"XXXXXXXXXXXXXXXXXXXXXXXXXXXXXXXXXXXXXXXXXXXXXXXXXXXX...         ",
"$$$$$$$$$$$$$$$$$$$$$XXXXXXXXXXXXXXXXXXXXXXXXXXXXXXX...         ",
"XXXXXXXXXXXXXXXXXXXXXXXXXXXXXXXXXXXXXXXXXXXXXXXXXXXX...         ",
"XXXXXXXXXXXXXXXXXXXXXXXXXXXXXXXXXXXXXXXXXXXXXXXXXXXX...         ",
"XXXXXXXXXXXXXXXXXXXXXXXXXXXXXXXXXXXXXXXXXXXXXXXXXXXX...         ",
"XXXXXXXXXXXXXXXXXXXXXXXXXXXXXXXXXXXXXXXXXXXXXXXXXXXX...         ",
"XXXXXXXXXXXXXXXXXXXXXXXXXXXXXXXXXXXXXXXXXXXXXXXXXXXX...         ",
"XXXXXXXXXXXXXXXXXXXXXXXXXXXXXXXXXXXXXXXXXXXXXXXXXXXX...         ",
"XXXXXXXXXXXXXXXXXXXXXXXXXXXXXXXXXXXXXXXXXXXXXXXXXXXX...         ",
"XXXXXXXXXXXXXXXXXXXXXXXXXXXXXXXXXXXXXXXXXXXXXXXXXXXX...         ",
"XXXXXXXXXXXXXXXXXXXXXXXXXXXXXXXXXXXXXXXXXXXXXXXXXXXX...         ",
"XXXXXXXXXXXXXXXXXXXXXXXXXXXXXXXXXXXXXXXXXXXXXXXXXXXX...         ",
"XXXXXXXXXXXXXXXXXXXXXXXXXXXXXXXXXXXXXXXXXXXXXXXXXXXX...         ",
"XXXXXXXXXXXXXXXXXXXXXXXXXXXXXXXXXXXXXXXXXXXXXXXXXXXX...         ",
"XXXXXXXXXXXXXXXXXXXXXXXXXXXXXXXXXXXXXXXXXXXXXXXXXXXX...         ",
"XXXXXXXXXXXXXXXXXXXXXXXXXXXXXXXXXXXXXXXXXXXXXXXXXXXX...         ",
"XXXXXXXXXXXXXXXXXXXXXXXXXXXXXXXXXXXXXXXXXXXXXXXXXXXX...         ",
"XXXXXXXXXXXXXXXXXXXXXXXXXXXXXXXXXXXXXXXXXXXXXXXXXXXX...         ",
"XXXXXXXXXXXXXXXXXXXXXXXXXXXXXXXXXXXXXXXXXXXXXXXXXXXX...         ",
"XXXXXXXXXXXXXXXXXXXXXXXXXXXXXXXXXXXXXXXXXXXXXXXXXXXX...         ",
"XXXXXXXXXXXXXXXXXXXXXXXXXXXXXXXXXXXXXXXXXXXXXXXXXXXX...         ",
"XXXXXXXXXXXXXXXXXXXXXXXXXXXXXXXXXXXXXXXXXXXXXXXXXXXX...         ",
"XXXXXXXXXXXXXXXXXXXXXXXXXXXXXXXXXXXXXXXXXXXXXXXXXXXX...         "
};
