/* XPM */
static char *result[] = {
/* columns rows colors chars-per-pixel */
"64 64 104 2 ",
"   c #4EBCB9",
".  c black",
"X  c #FFFDF5",
"o  c gray40",
"O  c #6A6A6A",
"+  c gray42",
"@  c DimGray",
"#  c #686868",
"$  c #6C6C6C",
"%  c #CBCBCB",
"&  c #A9A9A9",
"*  c #6D6D6D",
"=  c #FFC579",
"-  c #656565",
";  c #646464",
":  c gray39",
">  c white",
",  c #FEFEFE",
"<  c #FCFBFC",
"1  c #F9F9F9",
"2  c #F8F8F8",
"3  c #F6F6F6",
"4  c gray97",
"5  c #FDFDFD",
"6  c #868686",
"7  c gray79",
"8  c #767676",
"9  c #EFEFEF",
"0  c gray38",
"q  c gray98",
"w  c #888888",
"e  c #C8C8C8",
"r  c #909090",
"t  c #727272",
"y  c #A4A4A4",
"u  c #6F6F6F",
"i  c gray85",
"p  c #898989",
"a  c #E1E1E1",
"s  c #D2D2D2",
"d  c #A5A5A5",
"f  c gray53",
"g  c gray52",
"h  c #848484",
"j  c #F1F1F1",
"k  c #AAAAAA",
"l  c #747474",
"4  c gray47",
"x  c #808080",
"c  c #BBBBBB",
"v  c gray55",
"b  c #B4B4B4",
"n  c #C1C1C1",
"m  c gray76",
"M  c gray64",
"N  c #D5D5D5",
"B  c #C0C0C0",
"V  c gray67",
"C  c #AFAFAF",
"^  c gray78",
"A  c gray91",
"S  c #E2E2E2",
"D  c #D7D7D7",
"F  c gray69",
"G  c gray83",
"H  c #929292",
"J  c #7B7B7B",
"K  c gray50",
"L  c gray77",
"P  c #C5C5C5",
"I  c #B2B2B2",
"U  c gray51",
"Y  c gray68",
"T  c gray48",
"R  c #C6C6C6",
"E  c gray58",
"W  c #939393",
"Q  c #8E8E8E",
"!  c #7E7E7E",
"~  c #777777",
"^  c gray44",
"/  c gray",
"(  c gray62",
")  c gray49",
"_  c #9B9B9B",
"`  c #818181",
"'  c #CDCDCD",
"]  c gray56",
"[  c gray73",
"{  c gray74",
"}  c gray81",
"|  c #A0A0A0",
" . c #626262",
".. c #9D9D9D",
"X. c gray61",
"o. c #B9B9B9",
"O. c gray72",
"+. c gray75",
"@. c gray80",
"#. c #A2A2A2",
"$. c gray63",
"%. c #9A9A9A",
"&. c #717171",
"Z  c #349AA4",
/* pixels */
"                                  Z Z Z Z Z Z Z Z Z Z Z Z Z Z Z Z Z Z Z Z Z Z Z Z Z Z Z Z Z Z Z Z Z Z Z Z Z Z Z Z Z Z           ",
"                                              Z Z Z Z Z Z Z Z Z Z Z Z Z Z Z Z Z Z Z Z Z Z Z Z Z Z Z Z Z Z Z Z Z                 ",
"                                                                                                                                ",
"                                                                                                                                ",
"                                                                                                                                ",
"                                                                                                                                ",
"                                                                                                                                ",
". . . . . . . . . . . . . . . . . . . . . . . . . . . . . . . . . . . . . . . . . . . . . . . . . . . . . . . . . . . . . . . . ",
". . . . . . . . . . . . . . . . . . . . . . . . . . . . . . . . . . . . . . . . . . . . . . . . . . . . . . . . . . . . . . . . ",
". . . . . . . . . . . . . . . . . . . . . . . . . . . . . . . . . . . . . . . . . . . . . . . . . . . . . . . . . . . . . . . . ",
"X X X X X X X X X X X X X X X X X X X X X X X X X X X X X X X X X X X X X X X X X X X X X X X X X X X X X X X X X X X X X X X X ",
"X X X X X X X X X X X X X X X X X X X X X X X X X X X X X X X X X X X X X X X X X X X X X X X X X X X X X X X X X X X X X X X X ",
"X X X X X X X X X X X X X X X X X X X X X X X X X X X X X X X X X X X X X X X X X X X X X X X X X X X X X X X X X X X X X X X X ",
"X X X X X X X X X X X X X X X X X X X X X X X X X X X X X X X X X X X X X X X X X X X X X X X X X X X X X X X X X X X X X X X X ",
"X X X X X X X X X X X X X X X X X X X X X X X X X X X X X X X X X X X X X X X X X X X X X X X X X X X X X X X X X X X X X X X X ",
"X X X X X X X X X X X X X X X X X X X X X X X X X X X X X X X X X X X X X X X X X X X X X X X X X X X X X X X X X X X X X X X X ",
"X X X X X X X X X X X X X X X X X X X X X X X X X X X X X X X X X X X X X X X X X X X X X X X X X X X X X X X X X X X X X X X X ",
"o O o + @ # $ @ @ o X X X X X + @ @ @ @ @ @ # X X X X X X O + + + + + O % X & O O O O O O O O O O O O O O O O O O O X X X X X @ ",
"@ O @ O O @ @ @ @ * = = = = = + + @ o - o @ @ = = = = = = @ ; : : : * # % = & O $ > > , > > > < 1 2 3 4 < 5 5 1 * O = = = o $ > ",
"> > > > > > > > > , @ O X X X @ O > , > 1 # # X X X X X X O ^ 5 , > 1 + 7 X & @ 8 5 , > , 5 5 5 , > , , , , > > o + X X X O # > ",
"> > 9 > > , , , , 5 # 0 X X X : o > > > q @ @ X X X X X X O w 5 , > 1 + e X & @ 8 5 5 , r + + $ O + O O O O + + t O X @ * q q 5 ",
"< 5 y u * $ $ $ i 5 5 > + * X @ # , > > q @ @ X X X X X X O w 5 , > 1 + e X & @ 8 5 5 , p @ @ @ # @ O O O O + + $ # X O O > , , ",
"a s d f g h h h d s j , @ * X O O > > > q @ @ X X X X X X O w 5 , > 1 + e X k O l , , , p @ 1 X X X X X X X X X X X X * O > , , ",
"O O X X X X X X x $ 5 5 # + X O @ , , > 1 # # X X X X X X O w 5 , > q O e X k O l , , , p @ l X X X X X X X X X X X X u O > , , ",
"O O X X X X X X x $ 5 5 # O X @ @ , , > 1 # # X X X X X X O w 5 , > < @ e X k O l , , , p @ + * $ * u u c X X X X X X u O > , , ",
"O O X X X X X X x $ 5 5 # @ X + @ , , > 1 # # X X X X X X O v , , > < @ e X k O l , , , p @ @ # o - # @ b X X X X X X $ + > , , ",
"O O = = = = = = x $ 5 5 @ # = $ @ , , , q n m M y = N & k B e , , > < @ e = V + 8 > > > > > > , 5 , $ O b = = = = = = $ + > , , ",
"O O X X X X X X x $ 5 5 @ * X @ # 5 , , > > > O + X C $ + , > , , > < @ 8 X V + 8 q q 5 , < 5 , 5 , - O b X X X X X X # O > > > ",
"# O X X X X X X x $ A S * * X X X 4 w s N N D O + X F $ @ D G G H J K X X X V $ J L P L 1 O O @ # @ $ O b X X X X X X X X # # # ",
"# $ X X X X X X x $ I L * * X X X + J P m m P # o X F + @ L n n U $ @ X X X V $ K n n n 1 $ - @ # @ @ O Y X X X X X X X X O O O ",
"o + X X X X X X x $ I L * * X X X u T R L L L E W e V H Q m m m U + + X X X k + ! n m m ~ O O X X X X X X X X X X X X X X X X X ",
"o + X X X X X X x $ I L * * X X X ^ J m m L m L / + ( L L L n L x O O X X X & O ) n m m ~ @ @ X X X X X X X X X X X X X X X X X ",
"6 J Y X X X X X _ ` F B $ * X X X ' m w ] n n L [ C [ L L L { g + + } X X X & O ) n m m ~ @ @ X X X X X X X X X X X X + + + + + ",
"L P w # @ O O O | n n L * # X X X X X * + n n m L n m L L L I O + X X X X X & O ) n m m ~ @ ^ X X X X X X X X X X X X + + ;  .: ",
"L P V ..X._ _ _ / m m P u # = = = = = * + n n m L m m L L L I O b = = = = = & O ) n m L 1 O + O O O O O O O O O O @ = + + F n n ",
"L P m L L m m m m m m R u @ X X X X X * + n n m L L L L L L I O b X X X X X & O ) n m L t @ # # # @ O O O O # # + O X + + F n n ",
"m L L P L m m m m m u O X X X X X X X o.O.X.H m m m m m m ..y o.X X X X X X & O ) n m P m +.n n n n B B B B n n : + X + + F n n ",
"m L L P L m m m m B @ O X X X X X X X X X # # m m m m m L @ h X X X X X X X & O ! R % @.7 R % % % e L m m m % % O O X + + F n / ",
"#.M M $.#.#.#.#.| %.y d X X X X X X X X X $ - # # # # # + O g X X X X X X X & O + O O + @ @ @ @ @ @ @ @ @ @ @ @ O @ X X X + + O ",
"@ @ @ o # # # # @ &.X X X X X X X X X X X O $ O O O O O O O g X X X X X X X & O + O @ @ @ @ @ @ @ @ @ @ @ @ @ @ @ @ X X X + + O ",
"X X X X X X X X X X X X X X X X X X X X X X X X X X X X X X X X X X X X X X X X X X X X X X X X X X X X X X X X X X X X X X X X ",
"X X X X X X X X X X X X X X X X X X X X X X X X X X X X X X X X X X X X X X X X X X X X X X X X X X X X X X X X X X X X X X X X ",
"= = = = = = = = = = = = = = = = = = = = = = = = = = = = = = = = = = = = = = = = = = = = = = = = = = = = = = = = = = = = = = = = ",
"X X X X X X X X X X X X X X X X X X X X X X X X X X X X X X X X X X X X X X X X X X X X X X X X X X X X X X X X X X X X X X X X ",
"X X X X X X X X X X X X X X X X X X X X X X X X X X X X X X X X X X X X X X X X X X X X X X X X X X X X X X X X X X X X X X X X ",
"X X X X X X X X X X X X X X X X X X X X X X X X X X X X X X X X X X X X X X X X X X X X X X X X X X X X X X X X X X X X X X X X ",
"X X X X X X X X X X X X X X X X X X X X X X X X X X X X X X X X X X X X X X X X X X X X X X X X X X X X X X X X X X X X X X X X ",
"X X X X X X X X X X X X X X X X X X X X X X X X X X X X X X X X X X X X X X X X X X X X X X X X X X X X X X X X X X X X X X X X ",
"X X X X X X X X X X X X X X X X X X X X X X X X X X X X X X X X X X X X X X X X X X X X X X X X X X X X X X X X X X X X X X X X ",
"X X X X X X X X X X X X X X X X X X X X X X X X X X X X X X X X X X X X X X X X X X X X X X X X X X X X X X X X X X X X X X X X ",
"X X X X X X X X X X X X X X X X X X X X X X X X X X X X X X X X X X X X X X X X X X X X X X X X X X X X X X X X X X X X X X X X ",
"X X X X X X X X X X X X X X X X X X X X X X X X X X X X X X X X X X X X X X X X X X X X X X X X X X X X X X X X X X X X X X X X ",
"X X X X X X X X X X X X X X X X X X X X X X X X X X X X X X X X X X X X X X X X X X X X X X X X X X X X X X X X X X X X X X X X ",
"X X X X X X X X X X X X X X X X X X X X X X X X X X X X X X X X X X X X X X X X X X X X X X X X X X X X X X X X X X X X X X X X ",
"X X X X X X X X X X X X X X X X X X X X X X X X X X X X X X X X X X X X X X X X X X X X X X X X X X X X X X X X X X X X X X X X ",
"X X X X X X X X X X X X X X X X X X X X X X X X X X X X X X X X X X X X X X X X X X X X X X X X X X X X X X X X X X X X X X X X ",
"X X X X X X X X X X X X X X X X X X X X X X X X X X X X X X X X X X X X X X X X X X X X X X X X X X X X X X X X X X X X X X X X ",
"X X X X X X X X X X X X X X X X X X X X X X X X X X X X X X X X X X X X X X X X X X X X X X X X X X X X X X X X X X X X X X X X ",
"X X X X X X X X X X X X X X X X X X X X X X X X X X X X X X X X X X X X X X X X X X X X X X X X X X X X X X X X X X X X X X X X ",
"X X X X X X X X X X X X X X X X X X X X X X X X X X X X X X X X X X X X X X X X X X X X X X X X X X X X X X X X X X X X X X X X ",
"X X X X X X X X X X X X X X X X X X X X X X X X X X X X X X X X X X X X X X X X X X X X X X X X X X X X X X X X X X X X X X X X ",
"X X X X X X X X X X X X X X X X X X X X X X X X X X X X X X X X X X X X X X X X X X X X X X X X X X X X X X X X X X X X X X X X ",
"X X X X X X X X X X X X X X X X X X X X X X X X X X X X X X X X X X X X X X X X X X X X X X X X X X X X X X X X X X X X X X X X ",
"X X X X X X X X X X X X X X X X X X X X X X X X X X X X X X X X X X X X X X X X X X X X X X X X X X X X X X X X X X X X X X X X "
};
