/* XPM */
static char *result[] = {
/* columns rows colors chars-per-pixel */
"64 64 68 1 ",
"  c #4EBCB9",
". c black",
"X c #FFC579",
"o c #FFFDF5",
"O c #6C6C6C",
"+ c gray42",
"@ c #6A6A6A",
"# c DimGray",
"$ c #5D5D5D",
"% c #6D6D6D",
"& c gray39",
"* c #686868",
"= c #656565",
"- c #626262",
"; c #8E8E8E",
": c #F8F8F8",
"> c #FDFDFD",
", c gray40",
"< c white",
"1 c #868686",
"2 c #F9F9F9",
"3 c #FEFEFE",
"4 c #646464",
"5 c #C0C0C0",
"6 c gray85",
"7 c #CDCDCD",
"8 c #E1E1E1",
"9 c gray63",
"0 c #9A9A9A",
"q c #F6F6F6",
"w c gray44",
"e c #747474",
"r c gray",
"t c #C1C1C1",
"y c gray76",
"u c #C5C5C5",
"i c gray77",
"p c #727272",
"a c gray75",
"s c #E4E4E4",
"d c gray90",
"f c #C6C6C6",
"g c #8D8D8D",
"h c gray72",
"j c #717171",
"k c gray78",
"l c #7B7B7B",
"z c gray55",
"x c gray74",
"c c #818181",
"v c #797979",
"b c #B4B4B4",
"n c #8B8B8B",
"m c gray47",
"M c gray38",
"N c #C8C8C8",
"B c #777777",
"V c #6F6F6F",
"C c gray83",
"Z c #B7B7B7",
"A c gray79",
"S c gray49",
"D c #B9B9B9",
"F c gray67",
"G c gray64",
"H c #A0A0A0",
"J c gray50",
"K c #349AA4",
/* pixels */
"                         KKKKKKKKKKKKKKKKKKKKKKKKKKKK           ",
"                                                                ",
"                                                                ",
"                                                                ",
"                                                                ",
"                                                                ",
"                                                                ",
"              ..................................................",
"              ..................................................",
"              ..................................................",
"              ...XXXoooooooooooooooooooooooooooooooooooooooooooo",
"              ...XXXoooooooooooooooooooooooooooooooooooooooooooo",
"         ........XXXoooooooooooooooooooooooooooooooooooooooooooo",
"         ........XXXoooooooooooooooooooooooooooooooooooooooooooo",
"         ........XXXoooooooooooooooooooooooooooooooooooooooooooo",
"         ...XX...XXXoooooooooooooooooooooooooooooooooooooooooooo",
"         ...XX...XXXooooooooO++++++@oooooooooooooo#OOOOOOOoooooo",
"         ...XX...XXXooooooooO@$++++#oooooooooooooo#%&*=-OOoooo;@",
"         ...XX...XXXooooXXXXO+:>>>@,XXXXXXXXXXXXXX#@><<<++XXXX1+",
"         ...XX...XXXoooooooo+@2333%Ooooooooooooooo4@3<<<+Ooo5#63",
"         ...XX...XXXoooooooo+@233<><+#oooooooooo@#<33<<<O%oo7+8<",
"         ...XX...XXXoooooooo+@23333<#@oooooooooo@@<<<<<<O%o+9>>3",
"         ...XX...XXXoooooooo+@23333<*@oooooooooo@@<<<<<<O%o@0>>3",
"         ...XX...XXXoooooooo+@23333<*@oooooooooo@@<<<<<<O%o@0>>3",
"         ...XX...XXXoooooooo+@23333<>q%woooooo+e><<<<<<<O%o@0>>3",
"         ...XX...XXXoooooooo+@23333<3<+,oooooo@+<<3<<<<<O%o@0>>3",
"         ...XX...XXXooooXXXX+@23333<<<#*XXXXXX@@<<<<<<<<O%X@0>>3",
"         ...XX...XXXoooooooo+@<<<<<<<<#*oooooo@*<<<<<<<<+%o@0>>3",
"         ...XX...XXXoooooooo+@rttttyyuri%poo@,yaitttra5y#%o@9ssd",
"         ...XX...XXXoooooooo+@tttttyyy55#%oo@Oyyytttyiif*%o@guuu",
"         ...XX...XXXoooooooo+@ttthpjyytty5@+kyyyyy#luiif*%o@ziii",
"         ...XX...XXXoooooooo+@ttth@+yyyyixc45ty5yk+vtiif#%o@ziii",
"         ...XX...XXXoooooooo+@ttth@@@%tyythyttybOO@vtyyu+%o#nyyy",
"         ...XX...XXXoooooooo+@ttth@@@*yyyyyyyyyy&##m5yyu+%o#nyyi",
"         ...XX...XXXooooXXXX+@ttth@@@*yyyyyyyyyy&##m5yyu+%X#nyyy",
"         ...XX...XXXoooooooo+@ttth@@+MuiyyyyytyNB@Ov5yyu+%o#nyyy",
"         ...XX...XXXoooooooo+@ttth@+oo#=yyyyyk+@ooVvtyyu+%ooC#Zt",
"         ...XX...XXXoooooooo+@Aiiy+,oo@@iiiii5@#oo%Siyyr+%oob#Dt",
"         ...XX...XXXoooooooo+@#@+++,oo+@@@@@@@@#oo%++O+@+%oooFGH",
"         ...XX...XXXoooooooo4,##,,,#oo*##@OwO=V$oo%**#*,*wooooJ#",
"         ...XX...XXXoooooooooooooooooooooooooooooooooooooooooooo",
"         ...XX...XXXoooooooooooooooooooooooooooooooooooooooooooo",
"         ...XX...XXXooooXXXXXXXXXXXXXXXXXXXXXXXXXXXXXXXXXXXXXXXX",
"         ...XX...XXXoooooooooooooooooooooooooooooooooooooooooooo",
"         ...XX...XXXoooooooooooooooooooooooooooooooooooooooooooo",
"         ...XX...XXXoooooooooooooooooooooooooooooooooooooooooooo",
"         ...XX...XXXoooooooooooooooooooooooooooooooooooooooooooo",
"         ...XX...XXXoooooooooooooooooooooooooooooooooooooooooooo",
"         ...XX...XXXoooooooooooooooooooooooooooooooooooooooooooo",
"         ...XX...XXXoooooooooooooooooooooooooooooooooooooooooooo",
"         ...XX...XXXoooooooooooooooooooooooooooooooooooooooooooo",
"         ...XX...XXXoooooooooooooooooooooooooooooooooooooooooooo",
"         ...XX...XXXoooooooooooooooooooooooooooooooooooooooooooo",
"         ...XX...XXXoooooooooooooooooooooooooooooooooooooooooooo",
"         ...XX...XXXoooooooooooooooooooooooooooooooooooooooooooo",
"         ...XX...XXXoooooooooooooooooooooooooooooooooooooooooooo",
"         ...XX...XXXoooooooooooooooooooooooooooooooooooooooooooo",
"         ...XX...XXXoooooooooooooooooooooooooooooooooooooooooooo",
"         ...XX...XXXoooooooooooooooooooooooooooooooooooooooooooo",
"         ...XX...XXXoooooooooooooooooooooooooooooooooooooooooooo",
"         ...XX...XXXoooooooooooooooooooooooooooooooooooooooooooo",
"         ...XX...XXXoooooooooooooooooooooooooooooooooooooooooooo",
"         ...XX...XXXoooooooooooooooooooooooooooooooooooooooooooo",
"         ...XX...XXXoooooooooooooooooooooooooooooooooooooooooooo"
};
