/* XPM */
static char *result[] = {
/* columns rows colors chars-per-pixel */
"64 64 80 1 ",
"  c black",
". c #FFFDF5",
"X c gray42",
"o c DimGray",
"O c gray40",
"+ c #6A6A6A",
"@ c #E4E4E4",
"# c #6C6C6C",
"$ c #FEFEFE",
"% c #6D6D6D",
"& c #6F6F6F",
"* c #F1F1F1",
"= c #E1E1E1",
"- c gray44",
"; c #7B7B7B",
": c #686868",
"> c gray77",
", c #C0C0C0",
"< c #C5C5C5",
"1 c gray39",
"2 c #A0A0A0",
"3 c gray76",
"4 c #656565",
"5 c gray80",
"6 c #767676",
"7 c #C1C1C1",
"8 c #B4B4B4",
"9 c gray59",
"0 c #9B9B9B",
"q c #AFAFAF",
"w c #646464",
"e c white",
"r c #FDFDFD",
"t c gray38",
"y c #EFEFEF",
"u c #F8F8F8",
"i c #F6F6F6",
"p c gray98",
"a c #F9F9F9",
"s c #929292",
"d c gray90",
"f c #848484",
"g c gray45",
"h c #808080",
"j c #747474",
"k c gray92",
"l c #BBBBBB",
"z c gray53",
"x c #FCFBFC",
"c c #B6B6B6",
"v c #B2B2B2",
"b c gray50",
"n c gray85",
"m c gainsboro",
"M c gray49",
"N c #7E7E7E",
"B c #888888",
"V c gray75",
"C c gray56",
"Z c gray",
"A c #C6C6C6",
"S c #8D8D8D",
"D c gray73",
"F c #717171",
"G c #939393",
"H c gray72",
"J c gray48",
"K c #A2A2A2",
"L c gray63",
"P c #9A9A9A",
"I c #A4A4A4",
"U c #A5A5A5",
"Y c gray66",
"T c gray62",
"R c #9D9D9D",
"E c gray68",
"W c #818181",
"Q c #FFC579",
"! c #4EBCB9",
"~ c #2F2F2E",
/* pixels */
"                                                                ",
"                                                                ",
"................................................................",
"................................................................",
"................................................................",
"................................................................",
"XoO..+ooo...@+o#................................................",
"$$$%.&$*o...=-$X................................................",
"#$$$;&$*o...=-$X................................................",
".%$$-&$*o...=-$X................................................",
".&$$X&$*o...=-$X................................................",
".%$$:&$*o...=-$X................................................",
".%>>OO>,+...=+<X................................................",
".&>>OO>,+...=+<X................................................",
"1233+43>5Ooo673X................................................",
">>3%#43>>>33>33X................................................",
"333&.8933333370q................................................",
":o-....oooooo+..................................................",
"................................................................",
"................................................................",
"%o+X.........++O:Xoo:+++++oXXw...+1111111111111111111...........",
"ooo%.........oo+++oooXXXXX++++...O+++++++++++++++++++...........",
"ooo%.........oo+++oooXXXXX++++...O+++++++++++++++++++...........",
"eee$oo+.....#eeeeeeee$rrrr$eee%..OX$eeerrrre$$$$eeXX+...........",
"$$$r::t...y.%eeeee$$$uiprpr$$eO..OXr$$rpapppaaaappXXX...........",
"###rrreX..s:e$$ee1&&##++Xdr$$eo..OXr$$rooooo++++XX%%o...........",
"...#ii$o..f+$$$a+........go++oX..:+$$$eo........................",
"...#rrr:..h+$$$e4........j+::+X..:+$$$eo........................",
"...#rrr:..h+$$$e$X++++++:k.......:+$$$eoX%%%&&l.................",
"...#rrro..zX$$$$$+++++++:y.......:+$$$e--&&&&o8.................",
"...#rrro..sX$$$$ee$$$$$$x;X+++...oXeeeeeeeeeuXc.................",
"...#rrro..sX$$$$ee$$$$$$x;X+++...oXeeeeeeeeeuXc.................",
"...#eepo..v&eeep$e$$$$$$xb+ooo...o#r$$eeeeeea+8.................",
"...#vv>o....:::X<3>>>>>37><>>>#..o%777<++oooo+8.................",
"...#vv>o....nnnmbMMMMMNB><>>>>%..:#777<o........................",
"...#vv>o........Xo+++++&3>>>>>%..OX333>o........................",
"...#vv>o........Xo+++++&3>>>>>%..OX333>o........................",
"wwgV777o..C&XXXO........oZ3>>>%..OX333>o........................",
">>>333A+..SX777>&%%%%%%:<53>>>%..OX333<+++++++++++++o...........",
"3333VVD6..SX777,F#####bG3>>ZZHo..OX333AJ;;;;;;;;;;::+...........",
"3333VVD6..SX777,F#####bG3>>ZZHo..OX333AJ;;;;;;;;;;::+...........",
"333,oo+...SX7773>33333333>>ww:...OX333>,7777333377ooX...........",
"KKLPIIU...lYT2222RTTTT2TT2REEU...OXWWWhbbbbbbbbbbbOO:...........",
":::+........XoooooooooooooO......OXoooooooooooooooooo...........",
"................................................................",
"................................................................",
"QQQQQQQQQQQQQQQQQQQQQQQQQQQQQQQQQQQQQQQQQQQQQQQQQQQQQQQQQQQQQQQQ",
"QQQQQQQQQQQQQQQQQQQQQQQQQQQQQQQQQQQQQQQQQQQQQQQQQQQQQQQQQQQQQQQQ",
"                                                                ",
"                                                                ",
"!!!!!!!!!!!!!!!!!!!!!!!!!!!!!!!!!!!!!!!!!!!!!!!!!!!!!!!!!!!!!!!!",
"!!!!!!!!!!!!!!!!!!!!!!!!!!!!!!!!!!!!!!!!!!!!!!!!!!!!!!!!!!!!!!!!",
"!!!!!!!!!!!!!!!!!!!!!!!!!!!!!!!!!!!!!!!!!!!!!!!!!!!!!!!!!!!!!!!!",
"!!!!!!!!!!!!!!!!!!!!!!!!!!!!!!!!!!!!!!!!!!!!!!!!!!!!!!!!!!!!!!!!",
"!!!!!!!!!!!!!!!!!!!!!!!!!!!!!!!!!!!!!!!!!!!!!!!!!!!!!!!!!!!!!!!!",
"!!!!!!!!!!!!!!!!!!!!!!!!!!!!!!!!!!!!!!!!!!!!!!!!!!!!!!!!!!!!!!!!",
"!!!!!!!!!!!!!!!!!!!!!!!!!!!!!!!!!!!!!!!!!!!!!!!!!!!!!!!!!!!!!!!!",
"!!!!!!!!!!!!!!!!!!!!!!!!!!!!!!!!!!!!!!!!!!!!!!!!!!!!!!!!!!!!!!!!",
"!!!!!!!!!!!!!!!!!!!!!!!!!!!!!!!!!!!!!!!!!!!!!!!!!!!!!!!!!!!!!!!!",
"!!!!!!!!!!!!!!!!!!!!!!!!!!!!!!!!!!!!!!!!!!!!!!!!!!!!!!!!!!!!!!!!",
"!!!!!!!!!!!!!!!!!!!!!!!!!!!!!!!!!!!!!!!!!!!!!!!!!!!!!!!!!!!!!!!!",
"!!!!!!!!!!!!!!!!!!!!!!!!!!!!!!!!!!!!!!!!!!!!!!!!!!!!!!!!!!!!!!!!",
"!!!!!!!!!!!!!!!!!!!!!!!!!!!!!!!!!!!!!!!!!!!!!!!!!!!!!!!!!!!!!!!!",
"!!!!!!!!!!!!!!!!!!!!!!!!!!!!!!!!!!!!!!!!!!!!!!!!!!!!!!!!!!!!!!!!"
};
