/* XPM */
static char *result[] = {
/* columns rows colors chars-per-pixel */
"64 64 77 1 ",
"  c black",
". c #FFFDF5",
"X c #6A6A6A",
"o c #686868",
"O c gray42",
"+ c DimGray",
"@ c #FEFEFE",
"# c white",
"$ c gray40",
"% c gray45",
"& c #FDFDFD",
"* c #6C6C6C",
"= c #6D6D6D",
"- c #767676",
"; c #F9F9F9",
": c #6F6F6F",
"> c gray78",
", c #C1C1C1",
"< c #C5C5C5",
"1 c gray77",
"2 c #C6C6C6",
"3 c gray76",
"4 c #626262",
"5 c gray39",
"6 c gray49",
"7 c #C0C0C0",
"8 c #B4B4B4",
"9 c #AAAAAA",
"0 c gray60",
"q c gray44",
"w c gray58",
"e c #939393",
"r c #717171",
"t c #EAEAEA",
"y c #8D8D8D",
"u c #F6F6F6",
"i c #8B8B8B",
"p c gray95",
"a c gray98",
"s c #F1F1F1",
"d c gray36",
"f c #727272",
"g c #909090",
"h c #F3F3F3",
"j c #979797",
"k c gray63",
"l c gray96",
"z c #747474",
"x c gray97",
"c c #FCFBFC",
"v c gray38",
"b c gray67",
"n c #D0D0D0",
"m c #CDCDCD",
"M c gray80",
"N c gray74",
"B c gray72",
"V c gray81",
"C c #CECECE",
"Z c gray79",
"A c #B7B7B7",
"S c #CBCBCB",
"D c gray",
"F c gray75",
"G c #C8C8C8",
"H c #868686",
"J c gray92",
"K c #B9B9B9",
"L c gray51",
"P c #656565",
"I c gray48",
"U c #ECECEC",
"Y c #BBBBBB",
"T c #646464",
"R c #FFC579",
"E c #4EBCB9",
"W c #2F2F2E",
/* pixels */
"                                                                ",
"                                                                ",
"................................................................",
"................................................................",
"................................................................",
"................................................................",
"................................................................",
"..............................................Xooo....XXXO..+o+X",
"..............................................X@@O....X#@$.O####",
"..............................................X@@O....X#@$%&&@*=",
"..............................................X@@X....X#@$*&&@..",
"..............................................X@@@+..+###oO&&&..",
"...............................................-@@;OO###:.o&&&..",
"................................................:>,,,,,o..O<<>..",
".................................................o,,,,X...:112..",
"..................................................X11+....%33145",
"..................................................O<<X....6331,1",
"..................................................O<<O.....+7,11",
"..................................................OOOO......X++o",
"................................................................",
"..............................8ooooooo................=XXXXXXX..",
"..............................9XXXXXXX................+OOOOOO:..",
"..............................0O&@##=O....qXOOOO+X....+Oo@@@@*..",
"..............................wO&@##OO....*XOOOO+X....+O5@@@@X..",
"..............................eO&@##OO....r$;;;;tX....+O5@@@@X..",
"..............................yO&@##OO....r$####uX....+O5@@@@X..",
"..............................iX@#@@*O....ro####uX....+O5@@@@X..",
"..............................iX@#@@*O....ro@###pX....+O5@@@@X..",
"..............................yX@#@@*O..$O;a&@@#&sdXf.+O5@@@@X..",
"..............................gX@#@@*O..+Xh#&@@#&&$XO.+O5@@@@X..",
"..............................jX@#@@*O..oXh#####@@o+X.+O4@@@@X..",
"..............................kXlull-z..$+tuxcuuu#++%.fOvxcllX..",
"..............................bXnmMMNBOX1,MVCZVVV>,,A+A13S2m>O..",
"..............................M*<13333OX1,3<<2221133,$,<131<D:..",
"................................+OF111=X<313OOOOf333,$,111+XX...",
"................................+OF111*O2313OOOOf333>X3331+XX...",
"................................+XF311<<2313OOOOf333,<G331oXX...",
"................................+XF31133113D++++qF21131111oXX...",
"................................+XF3<11111Ho....J$F1111111oXX...",
"................................z:KN331111Lo....JPF311117,qXO...",
"..................................PPN31111I=....UPD31111Y4......",
"..................................+O3311116O....U$D1<<<<FO......",
"..................................X*O*+XOOOO....UOX+XXXXO*......",
"..................................r:Xo5ToOOo....JXOXOOOOo$......",
"................................................................",
"................................................................",
"RRRRRRRRRRRRRRRRRRRRRRRRRRRRRRRRRRRRRRRRRRRRRRRRRRRRRRRRRRRRRRRR",
"RRRRRRRRRRRRRRRRRRRRRRRRRRRRRRRRRRRRRRRRRRRRRRRRRRRRRRRRRRRRRRRR",
"                                                                ",
"                                                                ",
"EEEEEEEEEEEEEEEEEEEEEEEEEEEEEEEEEEEEEEEEEEEEEEEEEEEEEEEEEEEEEEEE",
"EEEEEEEEEEEEEEEEEEEEEEEEEEEEEEEEEEEEEEEEEEEEEEEEEEEEEEEEEEEEEEEE",
"EEEEEEEEEEEEEEEEEEEEEEEEEEEEEEEEEEEEEEEEEEEEEEEEEEEEEEEEEEEEEEEE",
"EEEEEEEEEEEEEEEEEEEEEEEEEEEEEEEEEEEEEEEEEEEEEEEEEEEEEEEEEEEEEEEE",
"EEEEEEEEEEEEEEEEEEEEEEEEEEEEEEEEEEEEEEEEEEEEEEEEEEEEEEEEEEEEEEEE",
"EEEEEEEEEEEEEEEEEEEEEEEEEEEEEEEEEEEEEEEEEEEEEEEEEEEEEEEEEEEEEEEE",
"EEEEEEEEEEEEEEEEEEEEEEEEEEEEEEEEEEEEEEEEEEEEEEEEEEEEEEEEEEEEEEEE",
"EEEEEEEEEEEEEEEEEEEEEEEEEEEEEEEEEEEEEEEEEEEEEEEEEEEEEEEEEEEEEEEE",
"EEEEEEEEEEEEEEEEEEEEEEEEEEEEEEEEEEEEEEEEEEEEEEEEEEEEEEEEEEEEEEEE",
"EEEEEEEEEEEEEEEEEEEEEEEEEEEEEEEEEEEEEEEEEEEEEEEEEEEEEEEEEEEEEEEE",
"EEEEEEEEEEEEEEEEEEEEEEEEEEEEEEEEEEEEEEEEEEEEEEEEEEEEEEEEEEEEEEEE",
"EEEEEEEEEEEEEEEEEEEEEEEEEEEEEEEEEEEEEEEEEEEEEEEEEEEEEEEEEEEEEEEE",
"EEEEEEEEEEEEEEEEEEEEEEEEEEEEEEEEEEEEEEEEEEEEEEEEEEEEEEEEEEEEEEEE",
"EEEEEEEEEEEEEEEEEEEEEEEEEEEEEEEEEEEEEEEEEEEEEEEEEEEEEEEEEEEEEEEE"
};
