/* XPM */
static char *result[] = {
/* columns rows colors chars-per-pixel */
"64 64 22 1 ",
"  c #83A448",
". c #8BAC50",
"X c #8CB541",
"o c #91AF55",
"O c #B27B0D",
"+ c #A0B74F",
"@ c #83883C",
"# c #E8E6E2",
"$ c #101415",
"% c #DC9F28",
"& c #C18A1E",
"* c #E14020",
"= c #DFDCD6",
"- c #DBD7D1",
"; c #D7D3CD",
": c #D3CFC9",
"> c #D0CBC5",
", c #86A154",
"< c #CDC7C1",
"1 c #A47820",
"2 c #C79124",
"3 c #2F2F2E",
/* pixels */
"                                                                ",
"                                                                ",
"                                                                ",
"                                                                ",
"                                                                ",
"                                                                ",
"                                                                ",
"                                                                ",
".                                                               ",
".                                                               ",
"                                                                ",
"                                                                ",
"               XX                                               ",
"               XX                                               ",
"               XX                X                              ",
"               XX                X                              ",
"               XX              XX                               ",
"               XX              XX                               ",
"         XX    XXXX          XX                       oooo      ",
"         XX    XXXX          XX                       oooo      ",
"           XX    XX    XX  ooXX                     oooo        ",
"           XX    XX    XX  ooXX                     oooo        ",
"   XX      XX    XX    XX  XX  OO           ++++    oo@@@@      ",
"   XX      XX    XX    XX  XX  OO           ++++    oo@@@@      ",
"     XX    XXXXooXX  ooXXoOOOOO               ++++              ",
"     XX    XXXXooXX  ooXXoOOOOO               ++++              ",
"     XXXX  ooXXooXXXXooXXoOOOOO             @@@@++              ",
"     XXXX  ooXXooXXXXoo########OOOOO        @@@@++              ",
" XX    XXooooXXooXXXXXX########OOOOO                ++++++      ",
" XX    XXooooXXooXXXXXX###$$#####                   ++++++      ",
" XXoo  XXXXXXXXooooooXX###$$#####                   @@++++++    ",
" XXoo  XXXXXXXXooooooXX###$$#####                   @@++++++    ",
"   XXooooXXXXXXXXXX  %%&&&$$#####OOO                  @@@@      ",
"   XXooooXXXXXXXXXX  %%&&&$$#####OOO                  @@@@      ",
" ooXXooXXXXXXXXXX      ***#####==                               ",
" ooXXooXXXXXXXXXX      ***#####==                               ",
"@XXooXXXXXXXX@@@@      ***#####==     ..                        ",
"@XXooXXXXXXXX@@@@         ##----------..   OOOOO                ",
" XXooXXXXXXXX             ##----------..   OOOOO                ",
" XXooXXXXXXXX          ###;;==========---  OOO  OOOOO           ",
" XXXX  XXXX            ###;;==========---  OOO  OOOOO           ",
" XXXX  XXXX          #####::----------===-----OO                ",
" @@XX                #####::----------===-----OO                ",
" @@XX                #####::----------===-----OO                ",
"                     #####>>---------------,,,                  ",
"                     #####>>---------------,,,                  ",
".                  ++++#####<<<----------             oo        ",
".                  ++++#####<<<----------             oo        ",
"                 ++++  #####<<<----------           oooo        ",
"                 ++++       ###<<---<<              oooo        ",
"         ++++    ++@@@@     ###<<---<<        oo    oooo        ",
"         ++++    ++@@@@     111  111          oo    oooo        ",
".          ++++             111  111          oooo  oo@@@@      ",
".          ++++             111  111          oooo  oo@@@@      ",
".        @@@@++           22   &&           @@@@oo              ",
".        @@@@++           22   &&           @@@@oo              ",
"                                                                ",
"                                                                ",
"                                                                ",
"                                                                ",
"                                                                ",
"                                                                ",
"                                                                ",
"                                                                "
};
