/* XPM */
static char *result[] = {
/* columns rows colors chars-per-pixel */
"64 64 22 1 ",
"  c #83A448",
". c #8BAC50",
"X c #8CB541",
"o c #91AF55",
"O c #83883C",
"+ c #A0B74F",
"@ c #B27B0D",
"# c #E8E6E2",
"$ c #101415",
"% c #C18A1E",
"& c #DC9F28",
"* c #DFDCD6",
"= c #E14020",
"- c #DBD7D1",
"; c #D7D3CD",
": c #D3CFC9",
"> c #86A154",
", c #D0CBC5",
"< c #CDC7C1",
"1 c #A47820",
"2 c #C79124",
"3 c #2F2F2E",
/* pixels */
"                                                                ",
"                                                                ",
"                                                                ",
"                                                                ",
"                                                                ",
"                                                                ",
"                                                                ",
"                                                                ",
"                                                               .",
"                                                               .",
"                                                                ",
"                                                                ",
"                                               XX               ",
"                                               XX               ",
"                              X                XX               ",
"                              X                XX               ",
"                               XX              XX               ",
"                               XX              XX               ",
"      oooo                       XX          XXXX    XX         ",
"      oooo                       XX          XXXX    XX         ",
"        oooo                     XXoo  XX    XX    XX           ",
"        oooo                     XXoo  XX    XX    XX           ",
"      OOOOoo    ++++           @@  XX  XX    XX    XX      XX   ",
"      OOOOoo    ++++           @@  XX  XX    XX    XX      XX   ",
"              ++++               @@@@@oXXoo  XXooXXXX    XX     ",
"              ++++               @@@@@oXXoo  XXooXXXX    XX     ",
"              ++OOOO             @@@@@oXXooXXXXooXXoo  XXXX     ",
"              ++OOOO        @@@@@########ooXXXXooXXoo  XXXX     ",
"      ++++++                @@@@@########XXXXXXooXXooooXX    XX ",
"      ++++++                   #####$$###XXXXXXooXXooooXX    XX ",
"    ++++++OO                   #####$$###XXooooooXXXXXXXX  ooXX ",
"    ++++++OO                   #####$$###XXooooooXXXXXXXX  ooXX ",
"      OOOO                  @@@#####$$%%%&&  XXXXXXXXXXooooXX   ",
"      OOOO                  @@@#####$$%%%&&  XXXXXXXXXXooooXX   ",
"                               **#####===      XXXXXXXXXXooXXoo ",
"                               **#####===      XXXXXXXXXXooXXoo ",
"                        ..     **#####===      OOOOXXXXXXXXooXXO",
"                @@@@@   ..----------##         OOOOXXXXXXXXooXXO",
"                @@@@@   ..----------##             XXXXXXXXooXX ",
"           @@@@@  @@@  ---**********;;###          XXXXXXXXooXX ",
"           @@@@@  @@@  ---**********;;###            XXXX  XXXX ",
"                @@-----***----------::#####          XXXX  XXXX ",
"                @@-----***----------::#####                XXOO ",
"                @@-----***----------::#####                XXOO ",
"                  >>>---------------,,#####                     ",
"                  >>>---------------,,#####                     ",
"        oo             ----------<<<#####++++                  .",
"        oo             ----------<<<#####++++                  .",
"        oooo           ----------<<<#####  ++++                 ",
"        oooo              <<---<<###       ++++                 ",
"        oooo    oo        <<---<<###     OOOO++    ++++         ",
"        oooo    oo          111  111     OOOO++    ++++         ",
"      OOOOoo  oooo          111  111             ++++          .",
"      OOOOoo  oooo          111  111             ++++          .",
"              ooOOOO           %%   22           ++OOOO        .",
"              ooOOOO           %%   22           ++OOOO        .",
"                                                                ",
"                                                                ",
"                                                                ",
"                                                                ",
"                                                                ",
"                                                                ",
"                                                                ",
"                                                                "
};
