/* XPM */
static char *result[] = {
/* columns rows colors chars-per-pixel */
"64 64 17 1 ",
"  c #83A448",
". c #FFFFF2",
"X c #A0B74F",
"o c #8BAC50",
"O c #83883C",
"+ c #041528",
"@ c #EB9661",
"# c #BFC3C6",
"$ c #91AF55",
"% c #FEE1B8",
"& c #D1401F",
"* c #7C191A",
"= c #111111",
"- c #F4B41B",
"; c #AA272C",
": c #3F4549",
"> c #2F2F2E",
/* pixels */
"                                                                ",
"                                                                ",
"                                                                ",
"                                                                ",
"                                                                ",
"                                                                ",
"                                                                ",
"                                                                ",
"                                                                ",
"                                                                ",
"                                  ....                          ",
"                                  ....                          ",
"            XX                  ..    ..                   oo   ",
"            XX                  ..    ..                   oo   ",
"            XXXX                      ..    oo     oo      oo   ",
"            XXXX                      ..    oo     oo      oo   ",
"            XXXX    XXXX    ..........      ooooo  oo    oooo   ",
"            XXXX    XXXX    ..........      ooooo  oo    oooo   ",
"          OOOOXX  XXXX    ..............      ooo    oo  oo     ",
"          OOOOXX  XXXX    ..............      ooo    oo  oo     ",
"                  XXOOOO  ..............      ooooo  oo  oo     ",
"                  XXOOOO  ..............      ooooo  oo  oo     ",
"                        ................         oo  oo         ",
"                        ................         oo  oo         ",
"                        ................         oo             ",
"                        ................         oo             ",
"                      ..........++@@..##                        ",
"                      ..........++@@..##                        ",
"                      ........@@++@@@@##                        ",
"                      ........@@++@@@@##                        ",
"              $$$$    ........@@%%%%%%##                        ",
"              $$$$    ........@@%%%%%%##                        ",
"    XXXX    $$$$    ........&&**====**####             XX       ",
"    XXXX    $$$$    ........&&**====**####             XX       ",
"      XXXX  $$OOOO  ........&&&&****&&####    XXX    XXXX       ",
"      XXXX  $$OOOO  ........&&&&****&&####    XXX    XXXX       ",
"    OOOOXX          ##......&&&&&&----####    XXXXX  XXOOOO     ",
"    OOOOXX          ##......&&&&&&----####    XXXXX  XXOOOO     ",
"                    ####..;;;;;;&&****####  OOOOOXX             ",
"                    ####..;;;;;;&&****####  OOOOOXX             ",
"                XXXX######;;;;;;;;====##                        ",
"                XXXX######;;;;;;;;====##                        ",
"                  XXXX##;;;;;;;;;;******                        ",
"                  XXXX##;;;;;;;;;;******                        ",
"              OOOOOOXX##**;;;;;;**====**::                      ",
"              OOOOOOXX##**;;;;;;**====**::                      ",
"                    ::**********======**::::                    ",
"                    ::**********======**::::                    ",
"                    ::::******========::::::  ooo               ",
"                    ::::******========::::::  ooo               ",
"                    ::::::::====::::==::::::oo                  ",
"                    ::::::::====::::==::::::oo                  ",
"          oo        ::::::::==::::::::::::::     oo             ",
"          oo        ::::::::==::::::::::::::     oo             ",
"            oooo  oooo::::::::::::::::::::    ooo               ",
"            oooo  oooo::::::::::::::::::::    ooo               ",
"        oo    oooo  oooo::::::::::::::::    ooooo               ",
"        oo    oooo  oooo::::::::::::::::    ooooo               ",
"          oo    oo    oo    ::::::::        oo                  ",
"          oo    oo    oo    ::::::::        oo                  ",
"          oooo                                                  ",
"          oooo                                                  ",
"            oo                                                  ",
"            oo                                                  "
};
