/* XPM */
static char *result[] = {
/* columns rows colors chars-per-pixel */
"64 64 18 1 ",
"  c #83A448",
". c #8BAC50",
"X c #FFFFF2",
"o c #8CB541",
"O c #91AF55",
"+ c #A0B74F",
"@ c #83883C",
"# c #041528",
"$ c #EB9661",
"% c #FEE1B8",
"& c #AA272C",
"* c #111111",
"= c #D1401F",
"- c #BFC3C6",
"; c #F4B41B",
": c #7C191A",
"> c #3F4549",
", c #2F2F2E",
/* pixels */
"                                                                ",
"                                                                ",
"                                                                ",
"                                                                ",
"                                                                ",
"                                                                ",
"                                                                ",
"                                                                ",
".                             XXXX                              ",
".                             XXXX                              ",
"                            XX    XX                            ",
"                            XX    XX                            ",
"               oo                 XX                            ",
"               oo                 XX                            ",
"               oo               XX                              ",
"               oo               XX                              ",
"               oo           XXXXXXXX                            ",
"               oo           XXXXXXXX                            ",
"         oo    oooo       XXXXXXXXXXXX                OOOO      ",
"         oo    oooo       XXXXXXXXXXXX                OOOO      ",
"           oo    oo    oXXXXXXXXXXXXXXXX            OOOO        ",
"           oo    oo    oXXXXXXXXXXXXXXXX            OOOO        ",
"   oo      oo    oo    oXXXXXXXXXXXXXXXX    ++++    OO@@@@      ",
"   oo      oo    oo    oXXXXXXXXXXXXXXXX    ++++    OO@@@@      ",
"     oo    ooooOOoo  OOoXXXXXXXXXXXXXXXX      ++++              ",
"     oo    ooooOOoo  OOoXXXXXXXXXXXXXXXX      ++++              ",
"     oooo  OOooOOooooOXXXXXX##$$XX##XXXXXX  @@@@++              ",
"     oooo  OOooOOooooOXXXXXX##$$XX##XXXXXX  @@@@++              ",
" oo    ooOOOOooOOoooooXXXXXX##$$$$##XXXXXX          ++++++      ",
" oo    ooOOOOooOOoooooXXXXXX##$$$$##XXXXXX          ++++++      ",
" ooOO  ooooooooOOOOOOoXXXXXX%%%%%%%%XXXXXX          @@++++++    ",
" ooOO  ooooooooOOOOOOoXXXXXX%%%%%%%%XXXXXX          @@++++++    ",
"   ooOOOOoooooooooo XXXXXXXX&&****&&XXXXXXXX          @@@@      ",
"   ooOOOOoooooooooo XXXXXXXX&&****&&XXXXXXXX          @@@@      ",
" OOooOOoooooooooo   XXXXXXXX==&&&&==XXXXXXXX                    ",
" OOooOOoooooooooo   XXXXXXXX==&&&&==XXXXXXXX                    ",
"@ooOOoooooooo@@@@   --XXXX============XXXX--                    ",
"@ooOOoooooooo@@@@   --XXXX============XXXX--                    ",
" ooOOoooooooo       ------====;;;;====------                    ",
" ooOOoooooooo       ------====;;;;====------                    ",
" oooo  oooo           --&&&&==****==&&&&--                      ",
" oooo  oooo           --&&&&==****==&&&&--                      ",
" @@oo                 &&&&&&&&****&&&&&&&&                      ",
" @@oo                 &&&&&&&&****&&&&&&&&                      ",
"                      ::&&&&&&****&&&&&&::                      ",
"                      ::&&&&&&****&&&&&&::                      ",
".                  +>>::::::::****::::::::>>          OO        ",
".                  +>>::::::::****::::::::>>          OO        ",
"                 +++>>>>::::********::::>>>>        OOOO        ",
"                 +++>>>>::::********::::>>>>        OOOO        ",
"         ++++    ++@>>>>>>****>>>>****>>>>>>  OO    OOOO        ",
"         ++++    ++@>>>>>>****>>>>****>>>>>>  OO    OOOO        ",
".          ++++     >>>>>>**>>>>>>>>**>>>>>>  OOOO  OO@@@@      ",
".          ++++     >>>>>>**>>>>>>>>**>>>>>>  OOOO  OO@@@@      ",
".        @@@@++       >>>>>>>>>>>>>>>>>>>>  @@@@OO              ",
".        @@@@++       >>>>>>>>>>>>>>>>>>>>  @@@@OO              ",
"                        >>>>>>>>>>>>>>>>                        ",
"                        >>>>>>>>>>>>>>>>                        ",
"                            >>>>>>>>                            ",
"                            >>>>>>>>                            ",
"                                                                ",
"                                                                ",
"                                                                ",
"                                                                "
};
