/* XPM */
static char *result[] = {
/* columns rows colors chars-per-pixel */
"64 64 11 1 ",
"  c #83A448",
". c #91AF55",
"X c #FFFFF2",
"o c #83883C",
"O c #8CB541",
"+ c #BFC3C6",
"@ c #7C191A",
"# c #3F4549",
"$ c #A0B74F",
"% c #111111",
"& c #2F2F2E",
/* pixels */
"                                                                ",
"                                                                ",
"                                                                ",
"                                                                ",
"                                                                ",
"                                                                ",
"                                               ..               ",
"                                               ..               ",
"                                               ....  ......     ",
"                                               ....  ......     ",
"                              XXXX             ....  oo......   ",
"                              XXXX             ....  oo......   ",
"                            XX    XX         oooo..    oooo     ",
"                            XX    XX         oooo..    oooo     ",
"                            XX                                  ",
"                            XX                                  ",
"                     OO     XXXXXXXXO                           ",
"                     OO     XXXXXXXXO                           ",
"                 OO  OO   XXXXXXXXXXXXO                         ",
"                 OO  OO   XXXXXXXXXXXXO                         ",
"           OO    OO  OO XXXXXXXXXXXXXXXXO    OO            OO   ",
"           OO    OO  OO XXXXXXXXXXXXXXXXO    OO            OO   ",
"       OO    OO  OO  OO XXXXXXXXXXXXXXXXO    OO          OO     ",
"       OO    OO  OO  OO XXXXXXXXXXXXXXXXO    OO          OO     ",
"         OO  OO  OO..OOOXXXXXXXXXXXXXXXXOOO..OO    OO    OO     ",
"         OO  OO  OO..OOOXXXXXXXXXXXXXXXXOOO..OO    OO    OO     ",
"         OO  OOOOOOOOOXXXXXXXXXXXXXXXXXXXXO..OOOO..OO  ..OO     ",
"         OO  OOOOOOOOOXXXXXXXXXXXXXXXXXXXXO..OOOO..OO  ..OO     ",
"         ..OO..OOOOOO.XXXXXXXXXXXXXXXXXXXXOOO..OOOOOOOOOOOO     ",
"         ..OO..OOOOOO.XXXXXXXXXXXXXXXXXXXXOOO..OOOOOOOOOOOO     ",
"           OO..OOOO  .XXXXXXXXXXXXXXXXXXXXOOOOOOOOOOOOOOO       ",
"           OO..OOOO  .XXXXXXXXXXXXXXXXXXXXOOOOOOOOOOOOOOO       ",
"           ooOOOOOO XXXXXXXXXXXXXXXXXXXXXXXXO..OO  OO..OOoooo   ",
"           ooOOOOOO XXXXXXXXXXXXXXXXXXXXXXXXO..OO  OO..OOoooo   ",
"         ooooOO     XXXXXXXXXXXXXXXXXXXXXXXXO      OO..OOoo     ",
"         ooooOO     XXXXXXXXXXXXXXXXXXXXXXXXO      OO..OOoo     ",
"                    ++XXXXXXXXXXXXXXXXXXXX++       OO           ",
"                    ++XXXXXXXXXXXXXXXXXXXX++       OO           ",
"                    ++++XXXXXXXXXXXXXXXX++++                    ",
"                    ++++XXXXXXXXXXXXXXXX++++                    ",
"                      ++++XXXXXXXXXXXX++++                      ",
"                      ++++XXXXXXXXXXXX++++                      ",
"                      ++++++++++++++++++++                      ",
"                      ++++++++++++++++++++                      ",
"                      @@++++++++++++++++@@                      ",
"                      @@++++++++++++++++@@                      ",
"                    ##@@@@@@@@@@@@@@@@@@@@##                    ",
"                    ##@@@@@@@@@@@@@@@@@@@@##                    ",
"                    ####@@@@@@@@@@@@@@@@####           $$$$$$   ",
"                    ####@@@@@@@@@@@@@@@@####           $$$$$$   ",
"               .... ######%%%%####%%%%######     $$    $$$$     ",
"               .... ######%%%%####%%%%######     $$    $$$$     ",
"             ....   ######%%########%%######     $$$$  $$oooo   ",
"             ....   ######%%########%%######     $$$$  $$oooo   ",
"     $$$$    ..oooo   ####################       $$$$           ",
"     $$$$    ..oooo   ####################       $$$$           ",
"       $$$$             ################       oooo$$           ",
"       $$$$             ################       oooo$$           ",
"     oooo$$                 ########                            ",
"     oooo$$                 ########                            ",
"                                                                ",
"                                                                ",
"                                                                ",
"                                                                "
};
