/* XPM */
static char *result[] = {
/* columns rows colors chars-per-pixel */
"64 64 16 1 ",
"  c #83A448",
". c #8BAC50",
"X c #FFFFF2",
"o c #91AF55",
"O c #83883C",
"+ c #BFC3C6",
"@ c #EB9661",
"# c #041528",
"$ c #FEE1B8",
"% c #7C191A",
"& c #111111",
"* c #D1401F",
"= c #F4B41B",
"- c #AA272C",
"; c #3F4549",
": c #2F2F2E",
/* pixels */
"                                                                ",
"                                                                ",
"                                                       ..       ",
"                                                       ..       ",
"                                         ..    ..      ..       ",
"                                         ..    ..      ..       ",
"                                         ....  ..    ....       ",
"                                         ....  ..    ....       ",
"                                           ..    ..  ..         ",
"                                           ..    ..  ..         ",
"                          XXXX             ....  ..  ..         ",
"                          XXXX             ....  ..  ..         ",
"                        XX    XX             ..  ..             ",
"                        XX    XX             ..  ..             ",
"                        XX                   ..        oo       ",
"                        XX                   ..        oo       ",
"            ooooo         XXXXXXXXXX                   oooo     ",
"            ooooo         XXXXXXXXXX                   oooo     ",
"              ooooo     XXXXXXXXXXXXXX                 oooo     ",
"              ooooo     XXXXXXXXXXXXXX                 oooo     ",
"            OOOOOoo    oXXXXXXXXXXXXXX               OOOOoo     ",
"            OOOOOoo    oXXXXXXXXXXXXXX               OOOOoo     ",
"                       oXXXXXXXXXXXXXXXX       oooooo           ",
"                       oXXXXXXXXXXXXXXXX       oooooo           ",
"                        XXXXXXXXXXXXXXXX   ooooooooOO           ",
"                        XXXXXXXXXXXXXXXX   ooooooooOO           ",
"                        ++XX@@##XXXXXXXXXX   OOOOOO             ",
"                        ++XX@@##XXXXXXXXXX   OOOOOO             ",
"                        ++@@@@##@@XXXXXXXX                      ",
"                        ++@@@@##@@XXXXXXXX                      ",
"                        ++$$$$$$@@XXXXXXXX.                     ",
"                        ++$$$$$$@@XXXXXXXX.                     ",
"                      ++++%%&&&&%%**XXXXXXXX                    ",
"                      ++++%%&&&&%%**XXXXXXXX                    ",
"              ...     ++++**%%%%****XXXXXXXX.                   ",
"              ...     ++++**%%%%****XXXXXXXX.                   ",
"                 .... ++++====******XXXXXX++                    ",
"                 .... ++++====******XXXXXX++                    ",
"            ..     ...++++%%%%**------XX++++                    ",
"            ..     ...++++%%%%**------XX++++                    ",
"              ...    .. ++&&&&--------++++++                    ",
"              ...    .. ++&&&&--------++++++                    ",
"              .....     %%%%%%----------++                      ",
"              .....     %%%%%%----------++                      ",
"                 ..   ;;%%&&&&%%------%%++                      ",
"                 ..   ;;%%&&&&%%------%%++                      ",
"                    ;;;;%%&&&&&&%%%%%%%%%%;;                    ",
"                    ;;;;%%&&&&&&%%%%%%%%%%;;                    ",
"        ..          ;;;;;;&&&&&&&&%%%%%%;;;;     oooo           ",
"        ..          ;;;;;;&&&&&&&&%%%%%%;;;;     oooo           ",
"        ..       .. ;;;;;;&&;;;;&&&&;;;;;;;;   oooo             ",
"        ..       .. ;;;;;;&&;;;;&&&&;;;;;;;;   oooo             ",
"    ..  ..       .. ;;;;;;;;;;;;;;&&;;;;;;;;   ooOOOO           ",
"    ..  ..       .. ;;;;;;;;;;;;;;&&;;;;;;;;   ooOOOO           ",
"    ..  ....  .....   ;;;;;;;;;;;;;;;;;;;;                      ",
"    ..  ....  .....   ;;;;;;;;;;;;;;;;;;;;                      ",
"    ....  ..  .....     ;;;;;;;;;;;;;;;;                        ",
"    ....  ..  .....     ;;;;;;;;;;;;;;;;                        ",
"      ..  ..  ...           ;;;;;;;;                            ",
"      ..  ..  ...           ;;;;;;;;                            ",
"      ..      ...                                               ",
"      ..      ...                                               ",
"                                                                ",
"                                                                "
};
