/* XPM */
static char *result[] = {
/* columns rows colors chars-per-pixel */
"64 64 13 1 ",
"  c #83A448",
". c #A0B74F",
"X c #33222E",
"o c #9F4949",
"O c #D4876F",
"+ c #EEC39A",
"@ c #91AF55",
"# c #F4F0DC",
"$ c #83883C",
"% c #8BAC50",
"& c #C3C6DF",
"* c #8A87B7",
"= c white",
/* pixels */
"                                                      ..        ",
"                                                      ..        ",
"                        XXooooooooooXX              ....        ",
"                        XXooooooooooXX              ....        ",
"                      XXOO++++++++++OOXX      @@    ....        ",
"                      XXOO++++++++++OOXX      @@    ....        ",
"                    XXoo++##++++++++++OOXX    @@@@  ..$$$$      ",
"                    XXoo++##++++++++++OOXX    @@@@  ..$$$$      ",
"$        %%    %%   XXOO##++++++++++++++XX  $$$$@@              ",
"$        %%    %%   XXOO##++++++++++++++XX  $$$$@@              ",
"         %%%%  %%   XXOO++++++++++++++++XX                      ",
"         %%%%  %%   XXOO++++++++++++++++XX                      ",
"           %%    %% XXOO++++++++++++++++XX                      ",
"           %%    %% XXOO++++++++++++++++XX                      ",
"           %%%%  %% XXooOOooooOOOOXXXXOOXX              ..      ",
"           %%%%  %% XXooOOooooOOOOXXXXOOXX              ..      ",
"             %%  %% XXooooXX++++OO&&XX++XX@@            ....    ",
"             %%  %% XXooooXX++++OO&&XX++XX@@            ....    ",
"             %%       XXooXX++++++##oo++++XX            ....    ",
"             %%       XXooXX++++++##oo++++XX            ....    ",
"                      XXooooXX++++++++++OOXX$$  ......$$$$..    ",
"                      XXooooXX++++++++++OOXX$$  ......$$$$..    ",
"                        XXXXOOOO++++++OOXX        ......        ",
"                        XXXXOOOO++++++OOXX        ......        ",
"                        XXooOO++++++ooXX        $$$$$$..        ",
"                        XXooOO++++++ooXX        $$$$$$..        ",
"                        oo++##++++++OOXX                        ",
"                        oo++##++++++OOXX                        ",
"                     @XX++##++++++++++XXXX                      ",
"                     @XX++##++++++++++XXXX                      ",
"             @@    @@@oo++++++OO++++++XXXX                  %%  ",
"             @@    @@@oo++++++OO++++++XXXX                  %%  ",
"             @@@@  @XXOO++++OOOO++++++XXooXX      %%%%  %%%%    ",
"             @@@@  @XXOO++++OOOO++++++XXooXX      %%%%  %%%%    ",
"             @@@@   oo++++++ooOO++++++XXOOXX    %%%%  %%%%    %%",
"             @@@@   oo++++++ooOO++++++XXOOXX    %%%%  %%%%    %%",
"           $$$$@@   oo++++++XXooOO++**XXOOXX    %%    %%    %%  ",
"           $$$$@@   oo++++++XXooOO++**XXOOXX    %%    %%    %%  ",
"                    oo++++++++XX####&&XXXX%%%%            %%%%  ",
"                    oo++++++++XX####&&XXXX%%%%            %%%%  ",
"                    XXOO++++++XX####**XX%%  %%%%          %%    ",
"                    XXOO++++++XX####**XX%%  %%%%          %%    ",
"                      XXOO++++XX****XXXX%%    %%                ",
"                      XXOO++++XX****XXXX%%    %%                ",
"                      XXXXXXXXOOooXXooXX                        ",
"                      XXXXXXXXOOooXXooXX                        ",
"                        XXOO++++OOXXooXX                        ",
"                        XXOO++++OOXXooXX                        ",
"                        XXOO++++OOooOOXX                        ",
"                        XXOO++++OOooOOXX                        ",
"                        XXooOO++XXOOOOXX                        ",
"                        XXooOO++XXOOOOXX                        ",
"                        ooOO++++XXOOOOOOXX                      ",
"                        ooOO++++XXOOOOOOXX                      ",
"                      XX++++++++XXooOOOOOOoo                    ",
"                      XX++++++++XXooOOOOOOoo                    ",
"                      XX++++++++ooXXXXXXXXXX                    ",
"                      XX++++++++ooXXXXXXXXXX                    ",
"                      XX++++++++OOXX                            ",
"                      XX++++++++OOXX                            ",
"                      XXOO++++++++++XX                          ",
"                      XXOO++++++++++XX                          ",
"                      XXXXXXXXXXXXXXXX                          ",
"                      XXXXXXXXXXXXXXXX                          "
};
