/* XPM */
static char *result[] = {
/* columns rows colors chars-per-pixel */
"64 64 13 1 ",
"  c #83A448",
". c #A0B74F",
"X c #33222E",
"o c #9F4949",
"O c #D4876F",
"+ c #EEC39A",
"@ c #91AF55",
"# c #8BAC50",
"$ c #F4F0DC",
"% c #83883C",
"& c #8A87B7",
"* c #C3C6DF",
"= c white",
/* pixels */
"                                                      ..        ",
"                                                      ..        ",
"                            XXooooooooXX            ....        ",
"                            XXooooooooXX            ....        ",
"                          XXOO++++++++OOXX    @@    ....        ",
"                          XXOO++++++++OOXX    @@    ....        ",
"                       #XXOO++++$$$$++++OOXX  @@@@  ..%%%%      ",
"                       #XXOO++++$$$$++++OOXX  @@@@  ..%%%%      ",
"%        ##    ##      #XX++++++++++++++++XX%%%%@@              ",
"%        ##    ##      #XX++++++++++++++++XX%%%%@@              ",
"         ####  ##    ###XX++++++++++++++++XX                    ",
"         ####  ##    ###XX++++++++++++++++XX                    ",
"           ##    ##  ## XX++++++++++++++++XX                    ",
"           ##    ##  ## XX++++++++++++++++XX                    ",
"           ####  ##  #XXOOOO++++++++++++OOOOXX          ..      ",
"           ####  ##  #XXOOOO++++++++++++OOOOXX          ..      ",
"             ##  ##   XXOOooOO++++++++OOooOOXX          ....    ",
"             ##  ##   XXOOooOO++++++++OOooOOXX          ....    ",
"             ##         XXooOOOOOOOOOOOOooXX            ....    ",
"             ##         XXooOOOOOOOOOOOOooXX            ....    ",
"                          XXooOOOOOOOOooXX%%%%  ......%%%%..    ",
"                          XXooOOOOOOOOooXX%%%%  ......%%%%..    ",
"                          XXXXooOOOOooXXXX        ......        ",
"                          XXXXooOOOOooXXXX        ......        ",
"                        XXOO++++++++++++OOXX    %%%%%%..        ",
"                        XXOO++++++++++++OOXX    %%%%%%..        ",
"                      XX++++++++++++++++++++XX                  ",
"                      XX++++++++++++++++++++XX                  ",
"                     @oo++++++++++++++++OO++oo                  ",
"                     @oo++++++++++++++++OO++oo                  ",
"             @@    @XXOO++OO++++++++++OOoo++++oo            ##  ",
"             @@    @XXOO++OO++++++++++OOoo++++oo            ##  ",
"             @@@@  @oo++++ooOOOO++++OOooXX++++oo  ####  ####    ",
"             @@@@  @oo++++ooOOOO++++OOooXX++++oo  ####  ####    ",
"             @@@@   oo++++ooOO++++++++++XXOOOOXX####  ####    ##",
"             @@@@   oo++++ooOO++++++++++XXOOOOXX####  ####    ##",
"           %%%%@@ XXOOOOOOXXoo++++++++OOXXOOOOXX##    ##    ##  ",
"           %%%%@@ XXOOOOOOXXoo++++++++OOXXOOOOXX##    ##    ##  ",
"                  XXOOOOooXX&&OO++++OO&&XXooOOXX          ####  ",
"                  XXOOOOooXX&&OO++++OO&&XXooOOXX          ####  ",
"                  XXooOOXX&&$$$$$$$$$$**&&XXooXX          ##    ",
"                  XXooOOXX&&$$$$$$$$$$**&&XXooXX          ##    ",
"                    XXooXX****$$$$$$******XXXX##                ",
"                    XXooXX****$$$$$$******XXXX##                ",
"                      XXXX&&&&XXXXXXXX&&&&XX                    ",
"                      XXXX&&&&XXXXXXXX&&&&XX                    ",
"                        XXooooooXXXXooOOOOXX                    ",
"                        XXooooooXXXXooOOOOXX                    ",
"                        XXOOOOooXXXXooOOOOXX                    ",
"                        XXOOOOooXXXXooOOOOXX                    ",
"                        XXOOOOooXX  XXOOOOoo                    ",
"                        XXOOOOooXX  XXOOOOoo                    ",
"                        XXOOooooXX  XXOOOOooXX                  ",
"                        XXOOooooXX  XXOOOOooXX                  ",
"                        XXOOOOooXX  XXOOOOOOXX                  ",
"                        XXOOOOooXX  XXOOOOOOXX                  ",
"                        XXOOOOOOXX  XXOOOOOOOOoo                ",
"                        XXOOOOOOXX  XXOOOOOOOOoo                ",
"                        XXOO++++XX  XXooOOOOOOoo                ",
"                        XXOO++++XX  XXooOOOOOOoo                ",
"                      XXooOO++++XX  XXXXXXXXXXXX                ",
"                      XXooOO++++XX  XXXXXXXXXXXX                ",
"                      XXXXXXooooXX                              ",
"                      XXXXXXooooXX                              "
};
