/* XPM */
static char *result[] = {
/* columns rows colors chars-per-pixel */
"64 64 14 1 ",
"  c #83A448",
". c #33222E",
"X c #9F4949",
"o c #D4876F",
"O c #EEC39A",
"+ c #F4F0DC",
"@ c #8BAC50",
"# c #8CB541",
"$ c #C3C6DF",
"% c #91AF55",
"& c #A0B74F",
"* c #83883C",
"= c #8A87B7",
"- c white",
/* pixels */
"                                                                ",
"                                                                ",
"                            ..XXXXXXXX..                        ",
"                            ..XXXXXXXX..                        ",
"                          ..ooOOOOOOOOoo..                      ",
"                          ..ooOOOOOOOOoo..                      ",
"                        ..XXOO++++OOOOOOXX..                    ",
"                        ..XXOO++++OOOOOOXX..                    ",
"@                       ..ooOOOOOOOOOOOOoo..                    ",
"@                       ..ooOOOOOOOOOOOOoo..                    ",
"                        ..OOOOOOOOOOOOOOOO..                    ",
"                        ..OOOOOOOOOOOOOOOO..                    ",
"               ##       ..OOOOOOOOOOOOOOOO..                    ",
"               ##       ..OOOOOOOOOOOOOOOO..                    ",
"               ##     ..ooOO....oooo....OOoo..                  ",
"               ##     ..ooOO....oooo....OOoo..                  ",
"               ##     ..ooOO$$..oooo..$$OOoo..                  ",
"               ##     ..ooOO$$..oooo..$$OOoo..                  ",
"         ##    ####     ..OO++XXOOOOXX++OO..          %%%%      ",
"         ##    ####     ..OO++XXOOOOXX++OO..          %%%%      ",
"           ##    ##    ## ..OOOOOOOOOOOO..          %%%%        ",
"           ##    ##    ## ..OOOOOOOOOOOO..          %%%%        ",
"   ##      ##    ##    ## ..XXOOOOOOOO....  &&&&    %%****      ",
"   ##      ##    ##    ## ..XXOOOOOOOO....  &&&&    %%****      ",
"     ##    ####%%##  %%#..OOOOXXooooXXooXX..  &&&&              ",
"     ##    ####%%##  %%#..OOOOXXooooXXooXX..  &&&&              ",
"     ####  %%##%%####%..OO++OOOOOOOOOOOOooXX..**&&              ",
"     ####  %%##%%####%..OO++OOOOOOOOOOOOooXX..**&&              ",
" ##    ##%%%%##%%#####XX++OOOOOOOOOOOOOOoooo..      &&&&&&      ",
" ##    ##%%%%##%%#####XX++OOOOOOOOOOOOOOoooo..      &&&&&&      ",
" ##%%  ########%%%%%..ooOOOOooOOOOOOOOooXXoo..      **&&&&&&    ",
" ##%%  ########%%%%%..ooOOOOooOOOOOOOOooXXoo..      **&&&&&&    ",
"   ##%%%%########## XXOOOOooXXooooOOOOOOXXoo..        ****      ",
"   ##%%%%########## XXOOOOooXXooooOOOOOOXXoo..        ****      ",
" %%##%%##########   XXOOOOXXooooOOOOOOOO..ooXX..                ",
" %%##%%##########   XXOOOOXXooooOOOOOOOO..ooXX..                ",
"*##%%########**** XXooOOoo..ooooOOOOOOOO..oooo..                ",
"*##%%########**** XXooOOoo..ooooOOOOOOOO..oooo..                ",
" ##%%########     XXooOOOO..XXooooOOOO==..XXoo..                ",
" ##%%########     XXooOOOO..XXooooOOOO==..XXoo..                ",
" ####  ####       ..XXOOoo..==$$++++++$$==..XX..                ",
" ####  ####       ..XXOOoo..==$$++++++$$==..XX..                ",
" **##               ..OO..==$$$$++++..$$$$....                  ",
" **##               ..OO..==$$$$++++..$$$$....                  ",
"                      ....========..======..                    ",
"                      ....========..======..                    ",
"@                  &&&& ..OOOOoo....XXoooo..          %%        ",
"@                  &&&& ..OOOOoo....XXoooo..          %%        ",
"                 &&&& ..OOOOOOXX....XXoooo..        %%%%        ",
"                 &&&& ..OOOOOOXX....XXoooo..        %%%%        ",
"         &&&&    &&***..OOOOoo..  ..XXXXoo..  %%    %%%%        ",
"         &&&&    &&***..OOOOoo..  ..XXXXoo..  %%    %%%%        ",
"@          &&&&       ..ooooXX..  ..XXoooo..  %%%%  %%****      ",
"@          &&&&       ..ooooXX..  ..XXoooo..  %%%%  %%****      ",
"@        ****&&     XXooOOoo..    ..oooooo..****%%              ",
"@        ****&&     XXooOOoo..    ..oooooo..****%%              ",
"                    XXOOOOoo..    ..ooooooXX..                  ",
"                    XXOOOOoo..    ..ooooooXX..                  ",
"                  XXOOOOOOoo..    ..XXooOOOOOO..                ",
"                  XXOOOOOOoo..    ..XXooOOOOOO..                ",
"                  XXOOOOooXX..    ....XXXXXXXX..                ",
"                  XXOOOOooXX..    ....XXXXXXXX..                ",
"                  ..XXXXXX....                                  ",
"                  ..XXXXXX....                                  "
};
