/* XPM */
static char *result[] = {
/* columns rows colors chars-per-pixel */
"64 64 13 1 ",
"  c #83A448",
". c #33222E",
"X c #9F4949",
"o c #D4876F",
"O c #EEC39A",
"+ c #F4F0DC",
"@ c #91AF55",
"# c #83883C",
"$ c #A0B74F",
"% c #C3C6DF",
"& c #8BAC50",
"* c #8A87B7",
"= c white",
/* pixels */
"                                                                ",
"                                                                ",
"                          ..XXXXXXXXXX..                        ",
"                          ..XXXXXXXXXX..                        ",
"                        ..ooOOOOOOOOOOoo..                      ",
"                        ..ooOOOOOOOOOOoo..                      ",
"                      ..ooOOOOOOOOOO++OOXX..                    ",
"                      ..ooOOOOOOOOOO++OOXX..                    ",
"                      ..OOOOOOOOOOOOOO++oo..                    ",
"                      ..OOOOOOOOOOOOOO++oo..                    ",
"                      ..OOOOOOOOOOOOOOOOoo..                    ",
"                      ..OOOOOOOOOOOOOOOOoo..                    ",
"        @@            ..OOOOOOOOOOOOOOOOoo..                    ",
"        @@            ..OOOOOOOOOOOOOOOOoo..                    ",
"  @@@@  @@@@          ..oo....ooooXXXXooXX..                    ",
"  @@@@  @@@@          ..oo....ooooXXXXooXX..                    ",
"    @@@@##@@    $$    ..OO..%%ooOOOO..XXXX..&&                  ",
"    @@@@##@@    $$    ..OO..%%ooOOOO..XXXX..&&                  ",
"  ####@@        $$$$..OOOOXX++OOOOOO..XX..  &&                  ",
"  ####@@        $$$$..OOOOXX++OOOOOO..XX..  &&                  ",
"                ##$$..ooOOOOOOOOOO..XXXX..          &&          ",
"                ##$$..ooOOOOOOOOOO..XXXX..          &&          ",
"                      ..ooOOOOOOoooo....  &&&&  &&&&            ",
"                      ..ooOOOOOOoooo....  &&&&  &&&&            ",
"                        ..XXOOOOOOooXX..&&&&  &&&&    &&        ",
"                        ..XXOOOOOOooXX..&&&&  &&&&    &&        ",
"                        ..ooOOOOOO++OOXX&&    &&    &&          ",
"                        ..ooOOOOOO++OOXX&&    &&    &&          ",
"          @@@@        ....OOOOOOOOOO++OO..        &&&&          ",
"          @@@@        ....OOOOOOOOOO++OO..        &&&&          ",
"  @@    @@@@          ....OOOOOOooOOOOOOXX        &&            ",
"  @@    @@@@          ....OOOOOOooOOOOOOXX        &&            ",
"  @@@@  @@####      ..XX..OOOOOOooooOOOOoo..                    ",
"  @@@@  @@####      ..XX..OOOOOOooooOOOOoo..                    ",
"  ##@@              ..oo..OOOOOOooXXOOOOOOXX                    ",
"  ##@@              ..oo..OOOOOOooXXOOOOOOXX                    ",
"                $$$$..oo..**OOooXX..OOOOOOXX                    ",
"                $$$$..oo..**OOooXX..OOOOOOXX                    ",
"                  $$$$....%%++++..OOOOOOOOXX                    ",
"                  $$$$....%%++++..OOOOOOOOXX                    ",
"                ####$$  ..**++++..OOOOOOoo..                    ",
"                ####$$  ..**++++..OOOOOOoo..                    ",
"                        ....****..OOOOoo..                      ",
"                        ....****..OOOOoo..                      ",
"                        ..XX..XXoo........                      ",
"                        ..XX..XXoo........                      ",
"                        ..XX..ooOOOOoo..&&                      ",
"                        ..XX..ooOOOOoo..&&                      ",
"                        ..ooXXooOOOOoo..&&      &&              ",
"                        ..ooXXooOOOOoo..&&      &&              ",
"                        ..oooo..OOooXX..&&      &&              ",
"                        ..oooo..OOooXX..&&      &&              ",
"                      ..oooooo..OOOOooXX&&&&  &&&&              ",
"                      ..oooooo..OOOOooXX&&&&  &&&&              ",
"                    XXooooooXX..OOOOOOOO..&&  &&&&              ",
"                    XXooooooXX..OOOOOOOO..&&  &&&&              ",
"                    ..........XXOOOOOOOO..&&  &&                ",
"                    ..........XXOOOOOOOO..&&  &&                ",
"                            ..ooOOOOOOOO..    &&                ",
"                            ..ooOOOOOOOO..    &&                ",
"                          ..OOOOOOOOOOoo..                      ",
"                          ..OOOOOOOOOOoo..                      ",
"                          ................                      ",
"                          ................                      "
};
