/* XPM */
static char *result[] = {
/* columns rows colors chars-per-pixel */
"64 64 24 1 ",
"  c #83A448",
". c #8BAC50",
"X c #8CB541",
"o c #2F2F2E",
"O c #983636",
"+ c #7E3030",
"@ c #91AF55",
"# c gray69",
"$ c white",
"% c #804020",
"& c #A06040",
"* c #A0B74F",
"= c #83883C",
"- c #C0942D",
"; c #DAA935",
": c #6F4827",
"> c #443122",
", c #9299A4",
"< c #285DAA",
"1 c #7E8590",
"2 c #2D6AC5",
"3 c #50565D",
"4 c #255190",
"5 c #D4D4D7",
/* pixels */
"                                                                ",
"                                                                ",
"                                                                ",
"                                                                ",
"                                                                ",
"                                                                ",
"                                                                ",
"                                                                ",
".                                                               ",
".                                                               ",
"                                                                ",
"                                                                ",
"               XX                                               ",
"               XX                                               ",
"               XX                X                              ",
"               XX      oooo      X                              ",
"               XX   oooOOOOooooXX                               ",
"               XX  oOOO+++OOOOOoo                               ",
"         XX    XXXo++O+o++OOOOOOOo  o                 @@@@      ",
"         XX    XXo+++Oo#o+++OOOOOOoo#o                @@@@      ",
"           XX   o+++++o#$o+ooooo+Oo$#o              @@@@        ",
"           XX  o++++++o#$oo%%%%%ooo$#o              @@@@        ",
"   XX      XX o+++++++o#$o%&&&&&&%%o#o      ****    @@====      ",
"   XX      XX o+++++ooo#$$o&&&&&&&&%o       ****    @@====      ",
"     XX    XXXo++++o%%%#$$$%&&&%&&&&o         ****              ",
"     XX    XXoo++++o%%%%#$%&%%&&%&%&%o        ****              ",
"     XXXX  @o%o+++++oo%%%%%o##%&%%&%#o      ====**              ",
"     XXXX  o%%%o++++++o%%%%o#$$o%%o#$o      ====**              ",
" XX    XX@o%&&%o++++++o%%%%%ooo%%%%oo%o             ******      ",
" XX    XX@o&&&&%o++++++o%%%%%%%&&&&&&&%o            ******      ",
" XX@@  XXXo&&&&%o+++++++o%%%%%%%&&&&&&%o            ==******    ",
" XX@@  XXXo&&&&%o++++++++o%%%%%%%ooooo%o            ==******    ",
"   XX@@@@Xo&&&&%%o++++++++o%%%%%oooooooo              ====      ",
"   XX@@@@Xo&&&&%%o+++++++++oo%%%o-ooo;o               ====      ",
" @@XX@@XXXo%&&%%%o+++++++++++oooo-ooo;o                         ",
" @@XX@@XXXo%%%%%%%o+++++++++O++++o-;;o                          ",
"=XX@@XXXXXo%%%&&&%oo++++++++OOOOOOooo ..                        ",
"=XX@@XXXXXXo%%&&&&&oooo+++OOOOOOOOo   ..                        ",
" XX@@XXXXXXo%%&&&&&o%%%o+OOOOOOOOOo   ..                        ",
" XX@@XXXXXXXo%&&&&&o%%&&oOOoOOOOOoo   ..                        ",
" XXXX  XXXX o%&&&&&%o%&&&oo%ooOoo%o ....                        ",
" XXXX  XXXX  o%&&&&%%o%&&%%%%%o%o%%o....                        ",
" ==XX        o%&&&%%oo&&&&%%%&&%o%%o....                        ",
" ==XX         o&&&&%ooooo%%%%%&o%%%o....                        ",
"              o%&&&%%o::>oooo&%ooooo..                          ",
"               o%%%%%oo::::>ooo&&&&o..                          ",
".               oooooo,oooo:::o%&&&o..                @@        ",
".              o&&%o<oooo,1oooo%%%&&oooo              @@        ",
"              o&&&%%o<<<<oooo22o%%%%o::>oo          @@@@        ",
"             o&&&%%%o<<<<22222o&ooooooo:::ooo       @@@@        ",
"         ***o&&&%%ooo<<<<2222<o&&o     oo3333ooo    @@@@        ",
"         ***o&&%%o444o<<<<22<<o&&&o   o,,,,,,333ooooo@@@        ",
".          *o&&%%o444o<<<<2<<<o&&%o  o5555555,,,3333:oo===      ",
".          *o%%%%ooooo<<<<<<<<o&%%ooo5555555555,,,ooo>:o==      ",
".        ===ooooo    o<<<<<<<<<ooo5555555555555555o  ooo        ",
".        ===ooooo     ooooooooooooo5555555555555oo              ",
"                                  o$555555555555o $$$$$         ",
"                                   o$$55555555$$$$$$$           ",
"                                    oo$$5$$$$$$$$$$             ",
"                                      oo$$$$$$oooo              ",
"                                        oooooo                  ",
"                                                                ",
"                                                                ",
"                                                                "
};
