/* XPM */
static char *result[] = {
/* columns rows colors chars-per-pixel */
"64 64 25 1 ",
"  c #83A448",
". c #8BAC50",
"X c #8CB541",
"o c #2F2F2E",
"O c #983636",
"+ c #7E3030",
"@ c #91AF55",
"# c gray69",
"$ c white",
"% c #804020",
"& c #A0B74F",
"* c #83883C",
"= c #A06040",
"- c #C0942D",
"; c #DAA935",
": c #6F4827",
"> c #443122",
", c #D4D4D7",
"< c #9299A4",
"1 c #285DAA",
"2 c #7E8590",
"3 c #2D6AC5",
"4 c #50565D",
"5 c #9D5E3F",
"6 c #255190",
/* pixels */
"                                                                ",
"                                                                ",
"                                                                ",
"                                                                ",
"                                                                ",
"                                                                ",
"                                                                ",
"                                                                ",
".                                                               ",
".                                                               ",
"                                                                ",
"                                                                ",
"               XX                                               ",
"               XX                                               ",
"               XX                X                              ",
"               XX                X                              ",
"               XXoooo          XX                               ",
"              oooOOOOoooo      XX                               ",
"         XX  oOOO+++OOOOOoo  XX                       @@@@      ",
"         XX o++O+o++OOOOOOOo Xo                       @@@@      ",
"           o+++Oo#o+++OOOOOOoo#o                    @@@@        ",
"          o+++++o#$o+ooooo+Oo$#o                    @@@@        ",
"   XX    o++++++o#$oo%%%%%ooo$#o            &&&&    @@****      ",
"   XX   o+++++++o#$o%======%%o#o            &&&&    @@****      ",
"     XX o+++++ooo#$$o========%o               &&&&              ",
"     XX o++++o%%%#$$$%===%====o               &&&&              ",
"     XXoo++++o%%%%#$%=%%==%=%=%o            ****&&              ",
"     Xo%o+++++oo%%%%%o##%=%%=%#o            ****&&              ",
" XX  o%%%o++++++o%%%%o#$$o%%o#$o                    &&&&&&      ",
" XX o%==%o++++++o%%%%%ooo%%%%oo%o                   &&&&&&      ",
" XX@o====%o++++++o%%%%%%%=======%o                  **&&&&&&    ",
" XX@o====%o+++++++o%%%%%%%======%o                  **&&&&&&    ",
"   Xo====%o++++++++o%%%%%%%ooooo%o                    ****      ",
"   Xo====%%o++++++++o%%%%%oooooooo                    ****      ",
" @@Xo====%%o+++++++++oo%%%o-ooo;o                               ",
" @@Xo%==%%%o+++++++++++ooooo-ooo;o                              ",
"*XX@o%%%%%%%o+++++++++O+++++o-;;o     ..                        ",
"*XX@o%%%===%oo++++++++OOOOOOoooo.     ..                        ",
" XX@@o%%=====oooo+++OOOOOOOOo  ..     ..                        ",
" XX@@o%%=====o%%%o+OOOOOOOOOo  ..     ..                        ",
" XXXX o%=====o%%==oOOoOOOOOoo  ...  ....                        ",
" XXXX o%=====%o%===oo%ooOoo%o  ...  ....                        ",
" **X$$$o%====%%o%==%%%%%o%o%%o.  .  ....                        ",
"$$$$$$$$%===%%oo====%%%==%o%%o$$$.  ....                        ",
"$       o====%ooooo%%%%%=o%%%o. $$$$$$$$$$$$$                   ",
"        o%===%%o::>oooo=%ooooo.  .  ..,$$$$$$$$$$               ",
".        o%%%%%oo::::>ooo====o.     ..     ,$$$$$$$$$$$$$       ",
".         oooooo<oooo:::o%===o.     ..        ,$$$$$$$$$$$$$    ",
"         o==%o1oooo<2oooo%%%==oooo             ,$$$$$$$$$$$$$   ",
"        o===%%o1111oooo33o%%%%o::>oo           ,$$$$$$$$$$$$$$  ",
"       o===%%%o111133333o=ooooooo:::ooo      ,,,$$$$$$$$$$$$$$$ ",
"      oo==%%ooo111113331o==o     oo4444ooo,,,,$$$$$$$$$$$$$$$$$$",
".     o5=%%o66o111113331o===o   o<<<<<<4,,,$$$$$$$$$$$$$$$$$$$$$",
".     o==%%o66o1111113311o=%o  o,,,,,,,,$$$$$$$$$$$$$$$$$$$$$$$ ",
".     ooooooooooo111111111ooooo,$$$$$$$$$$$$$$$$$$$$$$$$$$$$$$  ",
".     ooooo**&&  ooooooooooo$$$$$$$$$$$$$$$$$$$$$$$$$$$$$$$$$   ",
"                           o$$$$$$$$$$$$$$$$$$$$$$$$$$$$$$      ",
"                            o$$$$$$$$$$$$$$$$$$$$$$$$$          ",
"                             o$$$$$$$$$$$$$$$$$$$               ",
"                              oo$$$$$$$$$$$$$$                  ",
"                                oo$$$$$$oooo                    ",
"                                  oooooo                        ",
"                                                                ",
"                                                                "
};
