/* XPM */
static char *result[] = {
/* columns rows colors chars-per-pixel */
"64 64 21 1 ",
"  c #83A448",
". c #8BAC50",
"X c #8CB541",
"o c #2F2F2E",
"O c #983636",
"+ c #7E3030",
"@ c #91AF55",
"# c gray69",
"$ c white",
"% c #804020",
"& c #A06040",
"* c #A0B74F",
"= c #83883C",
"- c #DAA935",
"; c #C0942D",
": c #443122",
"> c #6F4827",
", c #9299A4",
"< c #7E8590",
"1 c #285DAA",
"2 c #255190",
/* pixels */
"                                                                ",
"                                                                ",
"                                                                ",
"                                                                ",
"                                                                ",
"                                                                ",
"                                                                ",
"                                                                ",
".                                                               ",
".                                                               ",
"                                                                ",
"                                                                ",
"               XX                                               ",
"               XX                                               ",
"               XX                X                              ",
"               XX               oooo                            ",
"               XX           ooooOOOOooo                         ",
"               XX         ooOOOOO+++OOOo                        ",
"         XX    XXXX   o  oOOOOOOO++o+O++o             @@@@      ",
"         XX    XXXX  o#ooOOOOOO+++o#oO+++o            @@@@      ",
"           XX    XX  o#$oO+ooooo+o$#o+++++o         @@@@        ",
"           XX    XX  o#$ooo%%%%%oo$#o++++++o        @@@@        ",
"   XX      XX    XX  o#o%%&&&&&&%o$#o+++++++o***    @@====      ",
"   XX      XX    XX   o%&&&&&&&&o$$#ooo+++++o***    @@====      ",
"     XX    XXXX@@XX  @o&&&&%&&&%$$$#%%%o++++o ****              ",
"     XX    XXXX@@XX  o%&%&%&&%%&%$#%%%%o++++oo****              ",
"     XXXX  @@XX@@XXXXo#%&%%&%##o%%%%%oo+++++o%o=**              ",
"     XXXX  @@XX@@XXXXo$#o%%o$$#o%%%%o++++++o%%%o**              ",
" XX    XX@@@@XX@@XXXo%oo%%%%ooo%%%%%o++++++o%&&%o   ******      ",
" XX    XX@@@@XX@@XXo%&&&&&&&%%%%%%%o++++++o%&&&&o   ******      ",
" XX@@  XXXXXXXX@@@@o%&&&&&&%%%%%%%o+++++++o%&&&&o   ==******    ",
" XX@@  XXXXXXXX@@@@o%ooooo%%%%%%%o++++++++o%&&&&o   ==******    ",
"   XX@@@@XXXXXXXXXXoooooooo%%%%%o++++++++o%%&&&&o     ====      ",
"   XX@@@@XXXXXXXXXX o-ooo;o%%%oo+++++++++o%%&&&&o     ====      ",
" @@XX@@XXXXXXXXXX  o-ooo;ooooo+++++++++++o%%%&&%o               ",
" @@XX@@XXXXXXXXXX   o--;o+++++O+++++++++o%%%%%%%o               ",
"=XX@@XXXXXXXX====    ooooOOOOOO++++++++oo%&&&%%%o               ",
"=XX@@XXXXXXXX====       oOOOOOOOO+++oooo&&&&&%%o                ",
" XX@@XXXXXXXX           oOOOOOOOOO+o%%%o&&&&&%%o                ",
" XX@@XXXXXXXX           ooOOOOOoOOo&&%%o&&&&&%o               $$",
" XXXX  XXXX             o%ooOoo%oo&&&%o%&&&&&%o             $$  ",
" XXXX  XXXX            o%%o%o%%%%%&&%o%%&&&&%o            $$$   ",
" ==XX                  o%%o%&&%%%&&&&oo%%&&&%o           $$$    ",
" ==XX                  o%%%o&%%%%%ooooo%&&&&o          $$$$     ",
"                       ooooo%&oooo:>>o%%&&&%o       $$$$$$      ",
"    $$$$$$$$$          o&&&&ooo:>>>>oo%%%%%o   $$$$$$$$$        ",
". $$$$$$$$$$$$$    ****o&&&%o>>>oooo,oooooo $$$$$$$$$$$@        ",
".$$$$$$$$$$$$$$$$$$$ooo&&%%%oooo<,oooo$$$$$$$$$$$$$$  @@        ",
"$$$$$$$$$$$$$$$$$$$$$$$$$$$$$$$$$$$$$$$$$$$$$$$$    @@@@        ",
"o$$$$$$$$$$$$$$$$$$$$$$$$$$$$$$$$$$$$$$$$$$$&o      @@@@        ",
" oo$$$$$$$$$$$$$$$$$$$$$$$$$$$$$$$$$$$$oo%%&&&o@    @@@@        ",
"   o$$$$$$$$$$$$$$$$$$$$$$$$$$$$$$$$$1o22o%%&&o@    @@@@        ",
".  oo>$$$$$$$$$$$$$$$$$$$$$$$$$$$1111o222o%%&&o@@@  @@====      ",
". o>>>>>>>oooo$$$$$$$$$$$$$%%oo1111111oooo%%%%o@@@  @@====      ",
". oooooooo===**         oooo%oooooooooo   ooooo=@@              ",
".        ====**         ooooo             ooooo=@@              ",
"                                                                ",
"                                                                ",
"                                                                ",
"                                                                ",
"                                                                ",
"                                                                ",
"                                                                ",
"                                                                "
};
