/* XPM */
static char *result[] = {
/* columns rows colors chars-per-pixel */
"64 64 17 1 ",
"  c #83A448",
". c #8BAC50",
"X c #8CB541",
"o c #2F2F2E",
"O c white",
"+ c #7E3030",
"@ c #983636",
"# c gray69",
"$ c #91AF55",
"% c #83883C",
"& c #A0B74F",
"* c #A06040",
"= c #804020",
"- c #9299A4",
"; c #285DAA",
": c #2F5489",
"> c #255190",
/* pixels */
"                                                                ",
"                                                                ",
"                                                                ",
"                                                                ",
"                                                                ",
"                                                                ",
"                                                                ",
"                                                                ",
".                                                               ",
".                                                               ",
"                                                                ",
"                                                                ",
"               XX                                               ",
"               XX                                               ",
"               XX                X                              ",
"               XX              o X   oooo                       ",
"               XX             oOo ooo+@@@oo                     ",
"               XX             oO#o+@@@@@@@@oo                   ",
"         XX    XXXX          XoOo+@@@@@@@@@@+oo       $$$$      ",
"         XX    XXXX          Xoo++@@@@@@@@@@@@+o      $$$$      ",
"           XX    XX    XX  $$Xo+++@@@@@@@@@@@@@+o   $$$$        ",
"           XX    XX    XX  $$o++++@@@@@@@@@@@@@@+o  $$$$        ",
"   XX      XX    XX    XX  Xo++++++@@@@@@@@@@@@@@o  $$%%%%      ",
"   XX      XX    XX    XX  Xo++++++++@@@@@@@@@@@@o  $$%%%%      ",
"     XX    XXXX$$XX  $$XX$$Xo++++++++@@@@@@@@@@@@+o             ",
"     XX    XXXX$$XX  $$XX$$Xo++++++++@@@@@@@@@@@@@o             ",
"     XXXX  $$XX$$XXXX$$XX$$Xo+++++++++@@@@@@@@@@@@o             ",
"     XXXX  $$XX$$XXXX$$XX$$XXo+++++++++@@@@@@@@@@@o             ",
" XX    XX$$$$XX$$XXXXXXXXXX  o++++++++++@@@@@@@@@@o &&&&&&      ",
" XX    XX$$$$XX$$XXXXXXXXXX   o++++++++++@@@@@@@@@o &&&&&&      ",
" XX$$  XXXXXXXX$$$$$$XXXXXX%%oo++++++++++++@@@@@@@o %%&&&&&&    ",
" XX$$  XXXXXXXX$$$$$$XXXXXX%o**o+++++++++++@@@@+@@o %%&&&&&&    ",
"   XX$$$$XXXXXXXXXX  XX  XXo=**o++++++++++++@@@+++o   %%%%      ",
"   XX$$$$XXXXXXXXXX  XX  XXo==*o++++++++++++@@++++o   %%%%      ",
" $$XX$$XXXXXXXXXX          o===o+++++++++++++@+++o              ",
" $$XX$$XXXXXXXXXX          o====o++++++++++++++++o              ",
"%XX$$XXXXXXXX%%%%           o====o+++++++++++++++o              ",
"%XX$$XXXXXXXX%%%%            oo===o+++++++++++++o               ",
" XX$$XXXXXXXX              ..o===**o++++++++++++o               ",
" XX$$XXXXXXXX              ..o===***o+++++++++o                 ",
" XXXX  XXXX                ..o====***ooo+++++oOOO               ",
" XXXX  XXXX           OOOOOOOOo====****=oo+ooOOOOOO             ",
" %%XX            OOOOOOOOOOOOOo======**=**o*oOOOOOOO            ",
" %%XX          OOOOOOOOOOOOOOOOo=====***=**=oOOOOOOO            ",
"           OOOOOOOOO        OOOo======**=**oOOOOOOOO            ",
"        OOOOOO               .. ooooo=**=**oOOOOOO              ",
".    OOOOO         &&&&      ..o-----oo*=*=o          $$        ",
".   OOOO           &&&&      .ooooooo--oooo           $$        ",
"    OOOOO        &&&&        o*=o;;;;oo----o        $$$$        ",
"     OOOOOOO     &&&&       o**=o;;;;::ooooo        $$$$        ",
"        OOOOOOOOO&&%%%%    o**==o;;;OOOO;;o*oOO$    $$$$        ",
"         &&&&   OOOOOOOOOOOOOOOo>o;;;;;:;;o*o $$    $$$$        ",
".          &&&&            ooooo>o;;;;;::;;o*o$$$$  $$%%%%      ",
".          &&&&                 ooo;;;;;:;;o=o$$$$  $$%%%%      ",
".        %%%%&&                   ooooo;;;;ooo%%$$              ",
".        %%%%&&                        ooooooo%%$$              ",
"                                                                ",
"                                                                ",
"                                                                ",
"                                                                ",
"                                                                ",
"                                                                ",
"                                                                ",
"                                                                "
};
