/* XPM */
static char *result[] = {
/* columns rows colors chars-per-pixel */
"64 64 24 1 ",
"  c #83A448",
". c #8BAC50",
"X c #8CB541",
"o c #2F2F2E",
"O c #983636",
"+ c #7E3030",
"@ c #91AF55",
"# c gray69",
"$ c white",
"% c #804020",
"& c #A0B74F",
"* c #83883C",
"= c #A06040",
"- c #443122",
"; c #6F4827",
": c #50565D",
"> c #9299A4",
", c #C0942D",
"< c #DAA935",
"1 c #D4D4D7",
"2 c #7E8590",
"3 c #285DAA",
"4 c #2D6AC5",
"5 c #255190",
/* pixels */
"                                                                ",
"                                                                ",
"                                                                ",
"                                                                ",
"                                                                ",
"                                                                ",
"                                                                ",
"                                                                ",
".                                                               ",
".                                                               ",
"                                                                ",
"                                                                ",
"               XX                                               ",
"               XX                                               ",
"               XX                X                              ",
"               XX                X                              ",
"               XX      oooo    XX                               ",
"               XX   oooOOOOooooXX                               ",
"         XX    XXXXoOOO+++OOOOOoo                     @@@@      ",
"         XX    XXXo++O+o++OOOOOOOo  o                 @@@@      ",
"           XX    o+++Oo#o+++OOOOOOoo#o              @@@@        ",
"           XX   o+++++o#$o+ooooo+Oo$#o              @@@@        ",
"   XX      XX  o++++++o#$oo%%%%%ooo$#o      &&&&    @@****      ",
"   XX      XX o+++++++o#$o%======%%o#o      &&&&    @@****      ",
"     XX    XXXo+++++ooo#$$o========%o         &&&&              ",
"     XX    XXXo++++o%%%#$$$%===%====o         &&&&              ",
"     XXXX  @@oo++++o%%%%#$%=%%==%=%=%o      ****&&              ",
"     XXXX  @o%o+++++oo%%%%%o##%=%%=%#o      ****&&              ",
" XX    XX@@o%%%o++++++o%%%%o#$$o%%o#$o              &&&&&&      ",
" XX    XX@o%==%o++++++o%%%%%ooo%%%%oo%o             &&&&&&      ",
" XX@@  XXXo====%o++++++o%%%%%%%=======%o            **&&&ooo    ",
" XX@@  XXXo====%o+++++++o%%%%%%%======%o            ooooo-;o    ",
"   XX@@@@Xo====%o++++++++o%%%%%%%ooooo%o         ooo::::;oo     ",
"   XX@@@@Xo====%%o++++++++o%%%%%oooooooo     oooo:::>>>>>>o     ",
" @@XX@@XXXo====%%o+++++++++oo%%%o,ooo<ooooooo::::>>>111111o     ",
" @@XX@@XXXo%==%%%o+++++++++++oooo,ooo<o%===o;;>>>1111111111ooo  ",
"*XX@@XXXXXXo%%%%%%o+++++++++O++++o,<<oo%%==ooo1111111111111111o ",
"*XX@@XXXXXXo%===%%oo++++++++OOOooooooo%%%%=o  oo1111111111111o  ",
" XX@@XXXXXXo=====oo%ooo+++Ooooo;;;oooo%%%%%o   o111111111111$o  ",
" XX@@XXXXXXo=====o%%%%%oooo;;;;-ooo   ooooo   o11111111111$$o   ",
" XXXX  XXXXo=====%o%%%oo;;;;-ooooo  ....      o$$$111111$$oo    ",
" XXXX  XXXX o====%%ooo;;-oooooOooo  ....      oooo$$$$$$oo      ",
" **XX       o===%%oo;;;oo%%%%%o%o.  ....          oooooo        ",
" **XX       o====%%oooo===%%%==%o.  ....                        ",
"          ooo%===%%o%%===%%%%%=o .  ..                          ",
"         o;;;o%%%%%oo%%==oooo=%o .  ..                          ",
".         ooo oooooo>oooo>222oo     ..                @@        ",
".               ooooo>>22>2222>o    ..                @@        ",
"               o==%o3oooo>222ooo                    @@@@        ",
"              o===%%o3333oooo44ooo                  @@@@        ",
"         &&&& o===%%o333344444o===o           @@    @@@@        ",
"         &&&&o===%%oo333344443o===o           @@    @@@@        ",
".          &&o==%%o5o333334433o===%o          @@@@  @@****      ",
".          &&o%%%%o5oo3333433o%%%%%o          @@@@  @@****      ",
".        ****ooooooooo3333333o%ooooo        ****@@              ",
".        ****ooooo   ooooooooooooooo        ****@@              ",
"                                                                ",
"                                                                ",
"                                                                ",
"                                                                ",
"                                                                ",
"                                                                ",
"                                                                ",
"                                                                "
};
