/* XPM */
static char *result[] = {
/* columns rows colors chars-per-pixel */
"64 64 24 1 ",
"  c #83A448",
". c #8BAC50",
"X c #8CB541",
"o c #2F2F2E",
"O c #983636",
"+ c #7E3030",
"@ c #91AF55",
"# c gray69",
"$ c white",
"% c #804020",
"& c #A06040",
"* c #A0B74F",
"= c #83883C",
"- c #C0942D",
"; c #DAA935",
": c #6F4827",
"> c #443122",
", c #D4D4D7",
"< c #9299A4",
"1 c #285DAA",
"2 c #7E8590",
"3 c #2D6AC5",
"4 c #50565D",
"5 c #255190",
/* pixels */
"                                                                ",
"                                                                ",
"                                                                ",
"                                                                ",
"                                                                ",
"                                                                ",
"                                                                ",
"                                                                ",
".                                                               ",
".                                                               ",
"                                                                ",
"                                                                ",
"               XX                                               ",
"               XX                                               ",
"               XX                X                              ",
"               XX     oooo       X                              ",
"               XX  oooOOOOoooo XX                               ",
"               XX oOOO+++OOOOOooX                               ",
"         XX    XXo++O+o++OOOOOOOo  o                  @@@@      ",
"         XX    Xo+++Oo#o+++OOOOOOoo#o                 @@@@      ",
"           XX  o+++++o#$o+ooooo+Oo$#o               @@@@        ",
"           XX o++++++o#$oo%%%%%ooo$#o               @@@@        ",
"   XX      XXo+++++++o#$o%&&&&&&%%o#o       ****    @@====      ",
"   XX      XXo+++++ooo#$$o&&&&&&&&%o        ****    @@====      ",
"     XX    XXo++++o%%%#$$$%&&&%&&&&o          ****              ",
"     XX    Xoo++++o%%%%#$%&%%&&%&%&%o         ****              ",
"     XXXX  o%o+++++oo%%%%%o##%&%%&%#o       ====**              ",
"     XXXX o%%%o++++++o%%%%o#$$o%%o#$o       ====**              ",
" XX    XXo%&&%o++++++o%%%%%ooo%%%%oo%o              ******      ",
" XX    XXo&&&&%o++++++o%%%%%%%&&&&&&&%o             ******      ",
" XX@@  XXo&&&&%o+++++++o%%%%%%%&&&&&&%o             ==******    ",
" XX@@  XXo&&&&%o++++++++o%%%%%%%ooooo%o             ==******    ",
"   XX@@@@o&&&&%%o++++++++o%%%%%oooooooo               ====      ",
"   XX@@@@o&&&&%%o+++++++++oo%%%o-ooo;o                ====      ",
" @@XX@@XXo%&&%%%o+++++++++++oooo-ooo;o                          ",
" @@XX@@XXo%%%%%%%o+++++++++O++++o-;;o                           ",
"=XX@@XXXXo%%%&&&%oo++++++++OOOOOOooo  ..                        ",
"=XX@@XXXXXo%%&&&&&oooo+++OOOOOOOOo    ..                        ",
" XX@@XXXXXo%%&&&&&o%%%o+OOOOOOOOOo    ..                        ",
" XX@@XXXXXXo%&&&&&o%%&&oOOoOOOOOoo    ..                        ",
" XXXX  XXXXo%&&&&&%o%&&&oo%ooOoo%o  ....                        ",
" XXXX  XXXX o%&&&&%%o%&&%%%%%o%o%%o ....                        ",
" ==XX       o%&&&%%oo&&&&%%%&&%o%%o ....                        ",
" ==XX        o&&&&%ooooo%%%%%&o%%%o ....                        ",
"             o%&&&%%o::>oooo&%ooooo$..$$$  $$$                  ",
"              o%%%%%oo::::>ooo&&&&o ..       ,$$$$$             ",
".              oooooo<oooo:::o%&&&o ..          ,$$$$$@@        ",
".             o&&%o1oooo<2oooo%%%&&oooo           ,$$$$$        ",
"             o&&&%%o1111oooo33o%%%%o::>oo           ,$$$$$      ",
"            o&&&%%%o111133333o&ooooooo:::ooo        @@,$$$$$    ",
"         **o&&&%%ooo111113331o&&o     oo4444ooo@    @@@$$$$$$$  ",
"         **o&&%%o555o11113311o&&&o   o<<<<<<444ooooo@@@$$$$$$$$ ",
".          o&&%%o555o111113111o&%o  o,,,,,,,<<<4444:o,$$$$$$$$$$",
".          o%%%%oooooo11111111o%%ooo,,,,,,,,,,<<<o,,$$$$$$$$$$$$",
".        ==ooooo     o111111111oo,,,,,,,,,,,,,,,$$$$$$$$$$$$$$$ ",
".        ==ooooo      oooooooooooo,,,,,,,,,,,,$$$$$$$$$$$$$$$$  ",
"                                 o$,,,,,,,,,$$$$$$$$$$$$$$$$$   ",
"                                  o$$$$$$$$$$$$$$$$$$$$$$$$     ",
"                                   oo$$$$$$$$$$$$$$$$$$$$       ",
"                                     oo$$$$$$$$$$$$$$           ",
"                                       ooo$$$$$$                ",
"                                                                ",
"                                                                ",
"                                                                "
};
