/* XPM */
static char *result[] = {
/* columns rows colors chars-per-pixel */
"64 64 24 1 ",
"  c #83A448",
". c #8BAC50",
"X c #8CB541",
"o c #2F2F2E",
"O c #983636",
"+ c #7E3030",
"@ c #91AF55",
"# c gray69",
"$ c white",
"% c #804020",
"& c #A06040",
"* c #83883C",
"= c #A0B74F",
"- c #6F4827",
"; c #443122",
": c #50565D",
"> c #DAA935",
", c #C0942D",
"< c #9299A4",
"1 c #D4D4D7",
"2 c #7E8590",
"3 c #285DAA",
"4 c #2D6AC5",
"5 c #255190",
/* pixels */
"                                                                ",
"                                                                ",
"                                                                ",
"                                                                ",
"                                                                ",
"                                                                ",
"                                                                ",
"                                                                ",
".                                                               ",
".                                                               ",
"                                                                ",
"                                                                ",
"               XX                                               ",
"               XX                                               ",
"               XX                X                              ",
"               XX                X   oooo                       ",
"               XX              XXooooOOOOooo                    ",
"               XX              ooOOOOO+++OOOo                   ",
"         XX    XXXX        o XoOOOOOOO++o+O++o        @@@@      ",
"         XX    XXXX       o#ooOOOOOO+++o#oO+++o       @@@@      ",
"           XX    XX    XX o#$oO+ooooo+o$#o+++++o    @@@@        ",
"           XX    XX    XX o#$ooo%%%%%oo$#o++++++o   @@@@        ",
"   XX      XX    XX    XX o#o%%&&&&&&%o$#o+++++++o  @@****      ",
"   XX      XX    XX    XX  o%&&&&&&&&o$$#ooo+++++o  @@****      ",
"     XX    XXXX@@XX  @@XX@@o&&&&%&&&%$$$#%%%o++++o              ",
"     XX    XXXX@@XX  @@XX@o%&%&%&&%%&%$#%%%%o++++oo             ",
"     XXXX  @@XX@@XXXX@@XX@o#%&%%&%##o%%%%%oo+++++o%o            ",
"     XXXX  @@XX@@XXXX@@XX@o$#o%%o$$#o%%%%o++++++o%%%o           ",
" XX    XX@@@@XX@@XXXXXXXXo%oo%%%%ooo%%%%%o++++++o%&&%o====      ",
" XX    XX@@@@XX@@XXXXXXXo%&&&&&&&%%%%%%%o++++++o%&&&&o====      ",
" XX@@  XXXXXXXX@@@@@@XXXo%&&&&&&%%%%%%%o+++++++o%&&&&o======    ",
" XX@@  XoooXXXX@@@@@@XXXo%ooooo%%%%%%%o++++++++o%&&&&o======    ",
"   XX@@@o-;oooooXXX  XX oooooooo%%%%%o++++++++o%%&&&&o****      ",
"   XX@@@@oo-::::ooo  XX  o>ooo,o%%%oo+++++++++o%%&&&&o****      ",
" @@XX@@XXo<<<<<<:::oooo o>ooo,ooooo+++++++++++o%%%&&%o          ",
" @@XX@@XXo111111<<<::::ooo>>,o+++++O+++++++++oo%%%%%%o          ",
"*XX@@Xooo1111111111<<<---ooooo+OOOOO++++++++o%o%%&&&%o          ",
"*XX@@o1111111111111111oo;-----oooOOOOO+++ooo%%o%&&&&&o          ",
" XX@@Xo1111111111111oo  ooooo;---ooooOO+o%%%%%%o&&&&&o          ",
" XX@@Xo$111111111111o   o&&&%ooo;----oooo&%%%%oo&&&&&o          ",
" XXXX  o$$11111111111o  o%%%%%oooooo;----ooooo%%&&&&&o          ",
" XXXX  Xoo$$111111$$$o  o%%%%o o%&%%ooo;------o%&&&&o           ",
" **XX     oo$$$$$$oooo   oooo..o%&&%%%&oooo;--o%%&&&o           ",
" **XX       oooooo         .... o&%%%%%&&&%oooo%&&&&oo          ",
"                             .. o%&oooo&&%%ooo%%&&&%o;oo        ",
"                             ..  oo222<oooo<<o%%%%%ooo--o       ",
".                  ====      .. o<2222<22<<oooooooo   oo        ",
".                  ====      .. ooo222<oooo3o%&&o     @@        ",
"                 ====          oo44oooo33333o%&&&o  @@@@        ",
"                 ====         o&&o444443333o%%&&&o  @@@@        ",
"         ====    ==****       o&&o344443333oo%%&&&o @@@@        ",
"         ====    ==****      o&&&o334433333o5o%%&&o @@@@        ",
".          ====              o%&&%o3343333o55o%%&&o @@****      ",
".          ====              o%%%%o3333333oooo%%%%o @@****      ",
".        ****==               ooo%ooooooooo **ooooo             ",
".        ****==               oooo          **ooooo             ",
"                                                                ",
"                                                                ",
"                                                                ",
"                                                                ",
"                                                                ",
"                                                                ",
"                                                                ",
"                                                                "
};
