/* XPM */
static char *result[] = {
/* columns rows colors chars-per-pixel */
"64 64 24 1 ",
"  c #83A448",
". c #8BAC50",
"X c #8CB541",
"o c #2F2F2E",
"O c #983636",
"+ c #7E3030",
"@ c gray69",
"# c #91AF55",
"$ c white",
"% c #804020",
"& c #A06040",
"* c #83883C",
"= c #A0B74F",
"- c #6F4827",
"; c #443122",
": c #50565D",
"> c #9299A4",
", c #D4D4D7",
"< c #DAA935",
"1 c #C0942D",
"2 c #7E8590",
"3 c #285DAA",
"4 c #2D6AC5",
"5 c #255190",
/* pixels */
"                                                                ",
"                                                                ",
"                                                                ",
"                                                                ",
"                                                                ",
"                                                                ",
"                                                                ",
"                                                                ",
".                                                               ",
".                                                               ",
"                                                                ",
"                                                                ",
"               XX                                               ",
"               XX                                               ",
"               XX                X   oooo                       ",
"               XX                ooooOOOOooo                    ",
"               XX              ooOOOOO+++OOOo                   ",
"               XX          o  oOOOOOOO++o+O++o                  ",
"         XX    XXXX       o@ooOOOOOO+++o@oO+++o       ####      ",
"         XX    XXXX       o@$oO+ooooo+o$@o+++++o      ####      ",
"           XX    XX    XX o@$ooo%%%%%oo$@o++++++o   ####        ",
"           XX    XX    XX o@o%%&&&&&&%o$@o+++++++o  ####        ",
"   XX      XX    XX    XX  o%&&&&&&&&o$$@ooo+++++o  ##****      ",
"   XX      XX    XX    XX  o&&&&%&&&%$$$@%%%o++++oo ##****      ",
"     XX    XXXX##XX  ##XX#o%&%&%&&%%&%$@%%%%o++++o%o            ",
"     XX    XXXX##XX  ##XX#o@%&%%&%@@o%%%%%oo+++++o%%o           ",
"     XXXX  ##XX##XXXX##XX#o$@o%%o$$@o%%%%o++++++o%&&%o          ",
"     XXXX  ##XX##XXXX##XXo%oo%%%%ooo%%%%%o++++++o&&&&o          ",
" XX    Xooo##XX##XXXXXXXo%&&&&&&&%%%%%%%o++++++o%&&&&o====      ",
" XX    Xo-;ooooo#XXXXXXXo%&&&&&&%%%%%%%o+++++++o%&&&&o====      ",
" XX##  XXoo-::::ooo##XXXo%ooooo%%%%%%%o++++++++o%&&&&o======    ",
" XX##  XXo>>>>>>:::ooooXoooooooo%%%%%o++++++++o%%&&&&o======    ",
"   XX####o,,,,,,>>>::::ooo<ooo1o%%%oo+++++++++o%%%&&%o****      ",
"   XX#ooo,,,,,,,,,,>>>---o<ooo1oooo+++++++++++o%%%%%%o****      ",
" ##XXo,,,,,,,,,,,,,,,,oo;-o<<1ooo++O+++++++++oo%%&&&%o          ",
" ##XX#o,,,,,,,,,,,,,oo  oooooo---ooo++++++++o%o%&&&&&o          ",
"*XX##Xo$,,,,,,,,,,,,o   o&&&%ooo;---ooo++ooo%%%o&&&&&o          ",
"*XX##XXo$$,,,,,,,,,,,o  o%%%%o%oooo;---ooo%%%%oo&&&&&o          ",
" XX##XXXoo$$,,,,,,$$$o  o%%%%%oo%&&oo;----oooo%%&&&&&o          ",
" XX##XXXXXoo$$$$$$oooo   ooooo o%&%%%ooo;-----o%&&&&o           ",
" XXXX  XXXX oooooo         ..  o%&%%%%%&oooo;-o%%&&&o           ",
" XXXX  XXXX                ..  o%&&%%%&&&&%%ooo%&&&&oo          ",
" **XX                      .... o&%%%%%&&&%%%o%%&&&%o;oo        ",
" **XX                      .... o%&%%%&&&%%%%o%%%%%ooo--o       ",
"                             .. o%%oooo&&%%oooooooo   oo        ",
"                             ..  oo222>oooo>>>o                 ",
".                  ====      .. o>2222>22>>ooo&o      ##        ",
".                  ====      .. ooo222>oooo3o%&&o     ##        ",
"                 ====          ooo4oooo3333o%%&&&o  ####        ",
"                 ====         o&&o344443333o%%&&&o  ####        ",
"         ====    ==****       o&&o344433333oo%%&&&o ####        ",
"         ====    ==****      o&&&%o3443333o55o%%&&o ####        ",
".          ====              o%&&%o3333333o55o%%&&o ##****      ",
".          ====              o%%%%o3333333oooo%%%%o ##****      ",
".        ****==               ooo%oooooooo  **ooooo             ",
".        ****==               oooo          **ooooo             ",
"                                                                ",
"                                                                ",
"                                                                ",
"                                                                ",
"                                                                ",
"                                                                ",
"                                                                ",
"                                                                "
};
