/* XPM */
static char *result[] = {
/* columns rows colors chars-per-pixel */
"64 64 24 1 ",
"  c #83A448",
". c #8BAC50",
"X c #8CB541",
"o c #2F2F2E",
"O c #983636",
"+ c #7E3030",
"@ c #91AF55",
"# c gray69",
"$ c white",
"% c #804020",
"& c #A06040",
"* c #A0B74F",
"= c #83883C",
"- c #443122",
"; c #6F4827",
": c #C0942D",
"> c #DAA935",
", c #50565D",
"< c #9299A4",
"1 c #D4D4D7",
"2 c #7E8590",
"3 c #285DAA",
"4 c #2D6AC5",
"5 c #255190",
/* pixels */
"                                                                ",
"                                                                ",
"                                                                ",
"                                                                ",
"                                                                ",
"                                                                ",
"                                                                ",
"                                                                ",
".                                                               ",
".                                                               ",
"                                                                ",
"                                                                ",
"               XX                                               ",
"               XX                                               ",
"               XX                X                              ",
"               XX      oooo      X                              ",
"               XX   oooOOOOooooXX                               ",
"               XX  oOOO+++OOOOOoo                               ",
"         XX    XXXo++O+o++OOOOOOOo  o                 @@@@      ",
"         XX    XXo+++Oo#o+++OOOOOOoo#o                @@@@      ",
"           XX   o+++++o#$o+ooooo+Oo$#o              @@@@        ",
"           XX  o++++++o#$oo%%%%%ooo$#o              @@@@        ",
"   XX      XX o+++++++o#$o%&&&&&&%%o#o      ****    @@====      ",
"   XX      XX o+++++ooo#$$o&&&&&&&&%o       ****    @@====      ",
"     XX    XXXo++++o%%%#$$$%&&&%&&&&o         ****              ",
"     XX    XXoo++++o%%%%#$%&%%&&%&%&%o        ****              ",
"     XXXX  @o%o+++++oo%%%%%o##%&%%&%#o      ====**              ",
"     XXXX  o%%%o++++++o%%%%o#$$o%%o#$o      ====**              ",
" XX    XX@o%&&%o++++++o%%%%%ooo%%%%oo%o             ******      ",
" XX    XX@o&&&&%o++++++o%%%%%%%&&&&&&&%o            ******      ",
" XX@@  XXXo&&&&%o+++++++o%%%%%%%&&&&&&%o            ==******    ",
" XX@@  XXXo&&&&%o++++++++o%%%%%%%ooooo%o            =ooo****    ",
"   XX@@@@Xo&&&&%%o++++++++o%%%%%oooooooo        ooooo-;o==      ",
"   XX@@@@Xo&&&&%%o+++++++++oo%%%o:ooo>o      ooo,,,,;oo===      ",
" @@XX@@XXXo%&&%%%o+++++++++++ooooo:ooo>o oooo,,,<<<<<<o         ",
" @@XX@@XXXo%%%%%%oo+++++++++O+++++o:>>ooo,,,,<<<111111o         ",
"=XX@@XXXXXo%&&&%%o%o++++++++OOOOO+ooooo;;;<<<1111111111ooo      ",
"=XX@@XXXXXo&&&&&%o%%ooo+++OOOOOooo;;;;;-oo1111111111111111o     ",
" XX@@XXXXXo&&&&&o%%%%%%o+OOoooo;;;-ooooo  oo1111111111111o      ",
" XX@@XXXXXo&&&&&oo%%%%&oooo;;;;-ooo%&&&o   o111111111111$o      ",
" XXXX  XXXo&&&&&%%ooooo;;;;-oooooo%%%%%o  o11111111111$$o       ",
" XXXX  XXXXo&&&&%o;;;;;;-ooo%%&%o.o%%%%o  o$$$111111$$oo        ",
" ==XX      o&&&%%o;;-oooo&%%%&&%o. oooo.  oooo$$$$$$oo          ",
" ==XX     oo&&&&%oooo%&&&%%%%%&o .  ....      oooooo            ",
"        oo-o%&&&%%ooo%%&&oooo&%o .  ..                          ",
"       o;;ooo%%%%%o<<oooo<222oo  .  ..                          ",
".       oo   oooooooo<<22<2222<o    ..                @@        ",
".              o&&%o3oooo<222ooo    ..                @@        ",
"              o&&&%o33333oooo44oo                   @@@@        ",
"              o&&&%%o333344444o&&o                  @@@@        ",
"         ****o&&&%%oo333344443o&&o            @@    @@@@        ",
"         ****o&&%%o5o333334433o&&&o           @@    @@@@        ",
".          **o&&%%o55o3333433o%&&%o           @@@@  @@====      ",
".          **o%%%%oooo3333333o%%%%o           @@@@  @@====      ",
".        ====ooooo   ooooooooo%ooo          ====@@              ",
".        ====ooooo            oooo          ====@@              ",
"                                                                ",
"                                                                ",
"                                                                ",
"                                                                ",
"                                                                ",
"                                                                ",
"                                                                ",
"                                                                "
};
