/* XPM */
static char *result[] = {
/* columns rows colors chars-per-pixel */
"64 64 24 1 ",
"  c #83A448",
". c #8BAC50",
"X c #8CB541",
"o c #2F2F2E",
"O c #983636",
"+ c #7E3030",
"@ c gray69",
"# c #91AF55",
"$ c white",
"% c #804020",
"& c #A06040",
"* c #83883C",
"= c #A0B74F",
"- c #6F4827",
"; c #443122",
": c #50565D",
"> c #9299A4",
", c #DAA935",
"< c #C0942D",
"1 c #D4D4D7",
"2 c #7E8590",
"3 c #285DAA",
"4 c #2D6AC5",
"5 c #255190",
/* pixels */
"                                                                ",
"                                                                ",
"                                                                ",
"                                                                ",
"                                                                ",
"                                                                ",
"                                                                ",
"                                                                ",
".                                                               ",
".                                                               ",
"                                                                ",
"                                                                ",
"               XX                                               ",
"               XX                                               ",
"               XX                X                              ",
"               XX                X   oooo                       ",
"               XX              XXooooOOOOooo                    ",
"               XX          o   ooOOOOO++oOOOo                   ",
"         XX    XXXX       o@oXoOOOOOOO+o@oO++o        ####      ",
"         XX    XXXX       o@$oO+ooooo+o$@oO+++o       ####      ",
"           XX    XX    XX o@$ooo%%%%%oo$@o+++++o    ####        ",
"           XX    XX    XX o@o%%&&&&&&%o$@o++++++o   ####        ",
"   XX      XX    XX    XX  o%&&&&&&&&o$$@ooo+++++o  ##****      ",
"   XX      XX    XX    XX  o&&&&%&&&%$$$@%%%o++++o  ##****      ",
"     XX    XXXX##XX  ##XX#o%&%&%&&%%&%$@%%%%o++++oo             ",
"     XX    XXXX##XX  ##XX#o@%&%%&%@@o%%%%%oo+++++o%o            ",
"     XXXX  ##XX##XXXX##XX#o$@o%%o$$@o%%%%o++++++o%%%o           ",
"     XXXX  ##XX##XXXX##XXo%oo%%%%ooo%%%%%o++++++o%&&%o          ",
" XX    XX####XX##XXXXXXXo%&&&&&&&%%%%%%%o++++++o%&&&&o====      ",
" XX    Xooo##XX##XXXXXXXo%&&&&&&%%%%%%%o+++++++o%&&&&o====      ",
" XX##  Xo-;ooooo#####XXXo%ooooo%%%%%%%o++++++++o%&&&&o======    ",
" XX##  XXoo-::::ooo##XXXoooooooo%%%%%o++++++++o%%&&&&o======    ",
"   XX####o>>>>>>:::oooo  o,ooo<o%%%oo+++++++++o%%&&&&o****      ",
"   XX####o111111>>>::::ooo,ooo<oooo+++++++++++o%%%&&%o****      ",
" ##XX#ooo1111111111>>>----o,,<o++++O++++++++++o%%%%%%o          ",
" ##XXo1111111111111111oo;--oooooooOO+++++++++oo%%&&&%o          ",
"*XX##Xo1111111111111oo  ooo-------ooo+++++++o%%o&&&&&o          ",
"*XX##Xo$111111111111o   o&&ooooo;----ooo+ooo%%%o&&&&&o          ",
" XX##XXo$$11111111111o  o%%%%o%ooooo;---oooo%%oo&&&&&o          ",
" XX##XXXoo$$111111$$$o  o%%%%%oo%&&%ooo;----oo%%&&&&&o          ",
" XXXX  XXXoo$$$$$$oooo   ooooo o%&%%%%%ooo;---o%&&&&o           ",
" XXXX  XXXX oooooo         ..  o%&%%%%%&&&ooo;o%%&&&o           ",
" **XX                      ....o%&&%%%&&&&%%%oo%&&&&oo          ",
" **XX                      .... o&%%%%%&&&%%%o%%&&&%o;oo        ",
"                             .. o%&oooo&&%%ooo%%%%%ooo--o       ",
"                             ..  oo222>oooo>>>ooooo   oo        ",
".                  ====      .. o>2222>22>>ooo&o      ##        ",
".                  ====      .. ooo222>oooo3o%&&o     ##        ",
"                 ====          ooo4oooo3333o%%&&&o  ####        ",
"                 ====         o&&o344443333o%%&&&o  ####        ",
"         ====    ==****       o&&o344433333oo%%&&&o ####        ",
"         ====    ==****      o&&&%o3443333o55o%%&&o ####        ",
".          ====              o%&&%o3333333o55o%%&&o ##****      ",
".          ====              o%%%%o3333333oooo%%%%o ##****      ",
".        ****==               ooo%oooooooo  **ooooo             ",
".        ****==               oooo          **ooooo             ",
"                                                                ",
"                                                                ",
"                                                                ",
"                                                                ",
"                                                                ",
"                                                                ",
"                                                                ",
"                                                                "
};
