/* XPM */
static char *result[] = {
/* columns rows colors chars-per-pixel */
"64 64 24 1 ",
"  c #83A448",
". c #8BAC50",
"X c #8CB541",
"o c #2F2F2E",
"O c #983636",
"+ c #7E3030",
"@ c gray69",
"# c #91AF55",
"$ c white",
"% c #804020",
"& c #A06040",
"* c #A0B74F",
"= c #83883C",
"- c #443122",
"; c #6F4827",
": c #50565D",
"> c #9299A4",
", c #C0942D",
"< c #DAA935",
"1 c #D4D4D7",
"2 c #7E8590",
"3 c #285DAA",
"4 c #2D6AC5",
"5 c #255190",
/* pixels */
"                                                                ",
"                                                                ",
"                                                                ",
"                                                                ",
"                                                                ",
"                                                                ",
"                                                                ",
"                                                                ",
".                                                               ",
".                                                               ",
"                                                                ",
"                                                                ",
"               XX                                               ",
"               XX                                               ",
"               XX      oooo      X                              ",
"               XX   oooOOOOoooo  X                              ",
"               XX  oOOO+++OOOOOoo                               ",
"               XX o++O+o++OOOOOOOo  o                           ",
"         XX    XXo+++Oo@o+++OOOOOOoo@o                ####      ",
"         XX    Xo+++++o@$o+ooooo+Oo$@o                ####      ",
"           XX  o++++++o@$oo%%%%%ooo$@o              ####        ",
"           XX o+++++++o@$o%&&&&&&%%o@o              ####        ",
"   XX      XX o+++++ooo@$$o&&&&&&&&%o       ****    ##====      ",
"   XX      XXoo++++o%%%@$$$%&&&%&&&&o       ****    ##====      ",
"     XX    Xo%o++++o%%%%@$%&%%&&%&%&%o        ****              ",
"     XX    o%%o+++++oo%%%%%o@@%&%%&%@o        ****              ",
"     XXXX o%&&%o++++++o%%%%o@$$o%%o@$o      ====**              ",
"     XXXX o&&&&o++++++o%%%%%ooo%%%%oo%o     ====**              ",
" XX    XX#o&&&&%o++++++o%%%%%%%&&&&&&&%o            *ooo**      ",
" XX    XX#o&&&&%o+++++++o%%%%%%%&&&&&&%o        ooooo-;o**      ",
" XX##  XXXo&&&&%o++++++++o%%%%%%%ooooo%o     ooo::::;oo*****    ",
" XX##  XXXo&&&&%%o++++++++o%%%%%oooooooo oooo:::>>>>>>o*****    ",
"   XX####Xo%&&%%%o+++++++++oo%%%o,ooo<ooo::::>>>111111o===      ",
"   XX####Xo%%%%%%o+++++++++++oooo,ooo<o;;;>>>1111111111ooo      ",
" ##XX##XXXo%&&&%%oo+++++++++O++ooo,<<o;-oo1111111111111111o     ",
" ##XX##XXXo&&&&&%o%o++++++++ooo;;;oooooo  oo1111111111111o      ",
"=XX##XXXXXo&&&&&o%%%ooo++ooo;;;-ooo%&&&o   o111111111111$o      ",
"=XX##XXXXXo&&&&&oo%%%%ooo;;;-oooo%o%%%%o  o11111111111$$o       ",
" XX##XXXXXo&&&&&%%oooo;;;;-oo&&%oo%%%%%o  o$$$111111$$oo        ",
" XX##XXXXXXo&&&&%o;;;;;-ooo%%%&%o ooooo.  oooo$$$$$$oo          ",
" XXXX  XXXXo&&&%%o;-oooo&%%%%%&%o.  ....      oooooo            ",
" XXXX  XXXoo&&&&%ooo%%&&&&%%%&&%o.  ....                        ",
" ==XX   oo-o%&&&%%o%%%&&&%%%%%&o .  ....                        ",
" ==XX  o;;ooo%%%%%o%%%%&&&%%%&%o .  ....                        ",
"        oo   oooooooo%%&&oooo%%o .  ..                          ",
"                 o>>>oooo>222oo  .  ..                          ",
".               o&ooo>>22>2222>o    ..                ##        ",
".              o&&%o3oooo>222ooo    ..                ##        ",
"              o&&&%%o3333oooo4ooo                   ####        ",
"              o&&&%%o333344443o&&o                  ####        ",
"         ****o&&&%%oo333334443o&&o            ##    ####        ",
"         ****o&&%%o55o3333443o%&&&o           ##    ####        ",
".          **o&&%%o55o3333333o%&&%o           ####  ##====      ",
".          **o%%%%oooo3333333o%%%%o           ####  ##====      ",
".        ====ooooo    oooooooo%ooo          ====##              ",
".        ====ooooo            oooo          ====##              ",
"                                                                ",
"                                                                ",
"                                                                ",
"                                                                ",
"                                                                ",
"                                                                ",
"                                                                ",
"                                                                "
};
