/* XPM */
static char *result[] = {
/* columns rows colors chars-per-pixel */
"64 64 57 1 ",
"  c #1C0E04",
". c #4C2711",
"X c #4E2812",
"o c #512B14",
"O c #542F18",
"+ c #553119",
"@ c #5A371E",
"# c #5F3A1E",
"$ c #61391F",
"% c #593622",
"& c #5D3C25",
"* c #5D3E29",
"= c #623E22",
"- c #5E402C",
"; c #514439",
": c #56493F",
"> c #654127",
", c #62422D",
"< c #6A472A",
"1 c #6E4B2E",
"2 c #614430",
"3 c #574A40",
"4 c #594D42",
"5 c #5C5146",
"6 c #5E534A",
"7 c #655E54",
"8 c #676056",
"9 c #686156",
"0 c #676158",
"q c #6C655C",
"w c #6E685F",
"e c #706256",
"r c #6F6A60",
"t c #726D64",
"y c #767066",
"u c #7A7267",
"i c #767269",
"p c #7A766C",
"a c #7C786C",
"s c #7D7A71",
"d c #846A4A",
"f c #886E4D",
"g c #886F51",
"h c #807D72",
"j c #83A448",
"k c #8BAC50",
"l c #858377",
"z c #878579",
"x c #89867A",
"c c #8A887A",
"v c #8A8680",
"b c #8E8C83",
"n c #908D83",
"m c #96938B",
"M c #99968E",
"N c #9E9A92",
"B c #A09C94",
/* pixels */
"jjjjjjjjjjjjjjjjjjj-222,2&&*------>***&&-,2-2jjjjjjjjjjjjjjjjjjj",
"jjjX..XX.X..o.XXX,,llzhlzlllllee9ee9eellllllz,-+++++OOOO+OOOOjjj",
"jjjzzzzzzttttMMmzx+llllleetyuyuuuuuu9eellllll*zzttrmMMmzzzzzOjjj",
"jX*zzzzzzzzzzzzzz2nlllll++++OOOOOOOO++OOlllllm*vzzzzzzxzxzzzxxOj",
"jX*zzzzzzzzzzzzzz,nlllll++O+++OOOOOO++++zlllzm*czzzzzzzzzzzzzxOj",
"jXzxxxxzxxxxzzxzz2mlll@%euyyyuyaaaayuuyu@@llzm*zzzxxxxxxxzxxxzOj",
"jXzzzxxxxzzczxxzz,nzlz@@69euyaaaaaayuuuu@@lllm*zxxxxxxxxxzzxzxOj",
"jXzzxxxxxxxxcxxcz,Nblz##676eyaauauapuuuu@@zlzN>zxxzcxzxxxxxzvxOj",
"jXnzxxxxxxcxxxxxx=sxxxxx+OO$++O$OOO+++++czxxceOcxxxxxccxvxxxxx+j",
"jXnzxxxnnxxxxcxxx*sBcxxzcxxhcnhhccccczcccccxN9Ozxxccxxxcxxccxx+j",
"jXnnnnnnnxxcxxxxx%uhBBNNBMBMMmmmmmmmmMmMmMNN99Oxxvcxcxxxxxbbbv+j",
"jXnnnnnnnxxxxvxcx%psBBNNMBMMmmmmmmmmmmMMMmMN97Oxcxxxcxxxxxbnnx+j",
"j.nnnnnxcxxxxxxxx%imriiyuirrtwwtwwhhawwwwwwwh7Oxxxxxxxxcxznnnn+j",
"juXbnnzzxxxxxxcxz%irriyie++O++O++++++wwwwwwww7XxxxxxczzcnnnbnN+j",
"juXnnnxzxxzzzzxxv%ir7iuur+++O+OO+++++wwewwwww7oxxxxxzzcxnnbnbN+j",
"j9qtytyyttwwrwwrtXhqqr<<1=           @>>ttteqhXyrrqrwwwtttbvqq7j",
"jqqyyyyqqwwwwqwqtXhq*1                  ===eqhXwrqrqqrqttitt*77j",
"j9vyiyirwwwqwwwwwXh$                       O$uXqrrqrrqrqrqtii*7j",
"j9vyirrrqwqqqwwwwo*$                       =5hXwrrrqrqrqqqtttrOj",
"jXyyrrqrqqhup5q**dg                         f1$wqri5rtrqqrqqqrOj",
"jXtrqrqrqwww5uy==g                           dOwrq5y55qrwqqqqqOj",
"j.trrqrqwq55ywt*=                              ==ryqtr5rqwwqqwOj",
"jXtrqrqrww56yw++$                              ==ryrrr5rwwqwqqOj",
"jXtrrqrqww55qq++%                              *,rrqrr5rwqwwwrOj",
"j.ttwwqqqwwqqq++                               OOOwqrqwwwqwwqwOj",
"jXtrqwwwww556q++                               OOO6qwq6qqwqwwqOj",
"j.tqq7wrww55u6++                                ooi6wwtwwwwwqrOj",
"j.qqqq7rww55qu++                                ooqt66qwwqqwrqOj",
"j.7r7r7rqw55qw++                                oowwii6qqwwqqqOj",
"jXqqq77rqwuuqq++                                oowwwqiwwwqwwqOj",
"jXqq7q7qqqqwwwO+                                ooqwwwwqqwwqqq%j",
"jXqqr7rrqqwqqw++                                oowqqwqwwqwqqqOj",
"jX7qq7qwqqwqew++                                OowwwqwwqwwwqqOj",
"jXqqqqqqqq5555++                                oo55555qwqqwqqOj",
"jXqqqqqqqqttyt++                                ootttt5qwqwqqwOj",
"jXqq9q9qqq55rr++                                oowwrrrqewqwwqOj",
"jXqqqq0qqq4494O+                                ooq444400rwrwwOj",
"jX7qq0qqq9ttqy++                                Oo0yyuyeq0000wOj",
"jXqqqqqqq0qq00++                                oOe0700000000qOj",
"jXq7q00q0q34wu++                                ooqyyy400000wwoj",
"jX7r7r7qq0440q++                                oo0q44t000qwq*Xj",
"jXq7q77q0q430q++                                ooqq33t000qww*oj",
"jX7q00qqq034q3++                                Xo03tt0000eqq35j",
"jXq7q0q70q3:3t++                                Xo3tee3000qqq35j",
"jXq07q7qq8yyi8++                                ooi000q0000q6pij",
"jX7000q78888::++                                XX33330005pp00%j",
"jXr000700q::wy++                                XXwttt;000q000Oj",
"jXqq000000::8:++                                X.0300300000q0Oj",
"j3X70077r7337rO+                                XX0w0030000000Oj",
"j3Xq7r0007330r++                                XX0t70;000e700Oj",
"jX3377000r70ri++                                X.wttt00700000Oj",
"j*ii3307777777++                                ..000077077000Oj",
"j*r7ip0070;;;7++                                ..;000;0070777Oj",
"j*r7pi7007;;;0++                                X.;070;7707007Oj",
"j*r7777770;;r3++                                .Xt;;;q0707777%j",
"j*rqrq7077;;73++                                ..e;;;7777777qOj",
"j-qqqq0707*3;r++                                ..;wyw;7777777%j",
"j;qq777777ttr7++                                .Xr7779777777qOj",
"j-0q7777777777++                                X.777777q7777qOj",
"j-r07778777770++                                ..7777777q7777Oj",
"j-000r0q777777oO                                X.877777qq0077Oj",
"j@q00000077777++                                ..77776990077qOj",
"j.....................X......X.....XXX.......................XXj",
"jjjjjjjjjjjjkkjjjjjjjjjjjjjjjjjjjjjjjjjjjjjjjjjjjjjjjjjjjjjjjjjj"
};
