/* XPM */
static char *result[] = {
/* columns rows colors chars-per-pixel */
"64 64 59 1 ",
"  c #1C0E04",
". c #111111",
"X c #7C191A",
"o c #4C2711",
"O c #4E2812",
"+ c #512B14",
"@ c #542F18",
"# c #553119",
"$ c #5A371E",
"% c #61391F",
"& c #593622",
"* c #5D3C25",
"= c #5D3E29",
"- c #623E22",
"; c #5E402C",
": c #514439",
"> c #56493F",
", c #654127",
"< c #62422D",
"1 c #6A472A",
"2 c #6E4B2E",
"3 c #614430",
"4 c #574A40",
"5 c #594D42",
"6 c #5C5146",
"7 c #5E534A",
"8 c #655E54",
"9 c #676056",
"0 c #686156",
"q c #676158",
"w c #6C655C",
"e c #6E685F",
"r c #706256",
"t c #6F6A60",
"y c #726D64",
"u c #767066",
"i c #7A7267",
"p c #767269",
"a c #7A766C",
"s c #7C786C",
"d c #7D7A71",
"f c #846A4A",
"g c #886F51",
"h c #807D72",
"j c #83A448",
"k c #8BAC50",
"l c #858377",
"z c #878579",
"x c #89867A",
"c c #8A887A",
"v c #8A8680",
"b c #8E8C83",
"n c #908D83",
"m c #96938B",
"M c #99968E",
"N c #9E9A92",
"B c #A09C94",
"V c #BFC3C6",
"C c #FFFFF2",
/* pixels */
"jjjjjjjjjjjjjjjjjjj;33;<;**=-;;;;;===***<<;;3jjjjjjjjjjjjjjjjjjj",
"jjjOooOOoOoo+oOOO;;zlzllzzlllzrrrrrrrrlzllzzz<;#####@@@@#@@@@jjj",
"jjjzzzzzzyyyyMMmxx#lllllrruuuuuiuiyiwrrllllll=zzyytMMMMzxzzz@jjj",
"jO=zzzzzzzzzzzzzx<nlllll############@##@lllllm=vzzzzzzzzzzzzxx#j",
"jO=zzzzzzzzzzzzzz<nlllll##########@@####lllllm=bzzzzzzzzzzzzzz@j",
"jOzxxxxzxxxxzzxzz<mlll$$ruiuiyyssihuuuui$$lllm=zzzxxxxxxxxvzxz@j",
"jOzzzxxxxzzczxxzz<nlxl$$70riisaasssuiiii$$lllm=zzxxxxxzxzxzxxx@j",
"jOzzxxxxxxxxcxxcc<Nnll$$787rysssssssiiii$$zlzN,zzczxxxxxxxxxzx#j",
"jOnzxxxxxxcxxxxxc=hczzxc@@@@##@@+###@@##ccczcr+cxxxccxxcxxcxxx#j",
"jOnzxxxnnxxxxcxxz=sBccxxcxxxxxvxccccccccccczN0#zxcxxxxxxxxcvxc#j",
"jOnnnnnnnxxcxxxxc&adBBBNBNMBMmmmmmmmmmMMmMNN80@xxvcxxcxxxxbbbx#j",
"jOnnnnnnnxxxxvxcc&adBBNNBMMMmmmmmmmmMmmMMMMNw8@xxcxxcxxcxxbbbx#j",
"jonnnnnxcxxxxxxxx&pmtpuuuutttttyeehhieeeeewtd8+xcxxxccxczznnbm#j",
"jiObnnzzxxxxxxcxx&pttpuuw@#@@@@@####@eeeertet8+xxxxxzxxznnnnnN@j",
"jiOnnnxzxxzzzzxxv&ptwyiie###@@@@#####eeeeeetw8+xxxxxzzcxnnnnbN#j",
"j0wyuyuuyyeeteett+dwwt112-           $,-yyyrwh+uttwteeeyyyvvww8j",
"jwwuuuuwweeeewewyOhw=2        CCCC      ---rqhOwtwtwwtwyypyp=88j",
"j0vupupteeeweeeeeOh%          CCCC         %&hOettwtwttwtwyyy=8j",
"j0vuptttwewwweeee+=%        CC    CC       %2iOetttwtwwtwwyyyt@j",
"jOuuttwtwwhia6w==fg         CC    CC        g6&ewtp6tytwtwwtwt@j",
"jOytwtwtweee6iu--g          CC               7%gtw6u66wteewwee@j",
"joyttwtwew66uey=-           CC                 --tuwty6twweeww@j",
"jOytwtwtee67ue##%           CCCCCCCC           --tutyt6weewwww@j",
"jOyttwtwee66ww##&           CCCCCCCC           -<ttwtw7teweeee@j",
"joyyeewwweewww##          CCCCCCCCCCCC         &&@eweewtweeewe@j",
"jOytweeeee667w##          CCCCCCCCCCCC         @@@6wee7wweweew@j",
"joyww8etee66i7##        CCCCCCCCCCCCCCCC        ++p6eeyweeeewt@j",
"jowwww8tee66wi##        CCCCCCCCCCCCCCCC        O+wy77twewwetw@j",
"jo8t8t8twe66we##        CCCCCCCCCCCCCCCC        ++eepp7etwewww@j",
"jOwww88tweiiww##        CCCCCCCCCCCCCCCC        ++eeewpwwtweew&j",
"jOww8w8wwwweee@#        CCCCCCCCCCCCCCCC        ++weeetwewewww@j",
"jOwwt8ttwwewwe##        CCCCCCCCCCCCCCCC        ++wwweweweewww@j",
"j+ww88wwweeeee##      CCCCCCCCCCCCCCCCCCCC      ++wwweweweewew@j",
"j+8wtwwwww5666##      CCCCCCCCCCCCCCCCCCCC      ++66666wewewww@j",
"jOwwwwwwwwyuyy##      CCCCCCCCCCCCCCCCCCCC      ++yyuy6wwwwwew@j",
"jOw8wwwwww55ey##      CCCCCCCCCCCCCCCCCCCC      ++yteeywweeeee@j",
"jO8twwwwww>5w5@#      CCCCCCCCCCCCCCCCCCCC      ++w55558qewwee@j",
"jO8www8wwwyy8u##      CCCCCCCCCCCCCCCCCCCC      ++8pppuwqqwwqe@j",
"jOtww8wwwwwww8##    CCCCCCCCCCCCCCCCCCCCCCCC    ++w8888wqqqqqw@j",
"jOw8ww8w0w5>ti##    CCCCCCCCCCCCCCCCCCCCCCCC    ++tppu68qqwqew+j",
"jOwqqqqww945ww##    CCCCCCCCCCCCCCCCCCCCCCCC    ++wq64yqqqwew=Oj",
"jO8wwq8ww9458w##    CCCCCCCCCCCCCCCCCCCCCCCC    ++qw54yqrqwwe=+j",
"jO8wqwwqww45w4@#    VVCCCCCCCCCCCCCCCCCCCCVV    ++w4yyrqqqwwe45j",
"jOw8qqqqqw444y##    VVCCCCCCCCCCCCCCCCCCCCVV    +O4yqr4qqqwwe55j",
"jO8wq8wqw9uuu9##    VVVVCCCCCCCCCCCCCCCCVVVV    ++pqqqtqqqwq6pdj",
"j+q8qwqqqq98>>##    VVVVCCCCCCCCCCCCCCCCVVVV    oO4444q8q6pdqw@j",
"jOewq8qwqq44tu##      VVVVCCCCCCCCCCCCVVVV      OOeyet4q8qwqqq@j",
"jOw8wwq8qq>>9>@@      VVVVCCCCCCCCCCCCVVVV      Ooq4qq>qqqqqwq@j",
"j4oqqw8qq8448t##      VVVVVVVVVVVVVVVVVVVV      OOqeqq:qqqqqqq@j",
"j4Oqqw8q8w44qt##      VVVVVVVVVVVVVVVVVVVV      OOqtqq>qqqq8qq@j",
"j+44888wqq88yy##      XXVVVVVVVVVVVVVVVVXX      OOtyyyqq8qqqqq@j",
"j=pp44q88qw888##      XXVVVVVVVVVVVVVVVVXX      ooqq8qqqq88q8q@j",
"j=t8pp8qqq::48##      XXXXXXXXXXXXXXXXXXXX      Oo:qq8:q8888q8@j",
"j=t8dpq8qq:::8##      XXXXXXXXXXXXXXXXXXXX      oO:q8q=8qqqw8q@j",
"j=t8888qq8::t:##        XXXXXXXXXXXXXXXX        ooy:::wq888888&j",
"j=twww8qq8:=t4##        XXXXXXXXXXXXXXXX        Oow:::q888888q@j",
"j;eqwq8q88:::t##          ....    ....          oo:eye:888888t@j",
"j;qe9q8888ttt8##          ....    ....          ooy88898888888@j",
"j;qe8888888888##          ..        ..          oo888888ww8888@j",
"j;eq888888888q##          ..        ..          oo888888w88888@j",
"j;8qqqtw888888+#                                o+8899880wqw8w@j",
"j;wqqqqqq88888##                                oo8878899qq8w8@j",
"joooooooooooooooooooOooooooOoooOoooOOooOooooooooooooooooooooooOj",
"jjjjjjjjjjjjkkjjjjjjjjjjjjjjjjjjjjjjjjjjjjjjjjjjjjjjjjjjjjjjjjjj"
};
