/* XPM */
static char *result[] = {
/* columns rows colors chars-per-pixel */
"64 64 96 2 ",
"   c #4C2711",
".  c #4E2812",
"X  c #522C14",
"o  c #542F18",
"O  c #5A3117",
"+  c #553119",
"@  c #5A361D",
"#  c #5E391E",
"$  c #613A1F",
"%  c #5A3721",
"&  c #5E3B22",
"*  c #5D3E29",
"=  c #623D23",
"-  c #5E402C",
";  c #514439",
":  c #56493F",
">  c #644226",
",  c #63442C",
"<  c #69462A",
"1  c #67482B",
"2  c #6A4A2D",
"3  c #614430",
"4  c #6C4D31",
"5  c #644F3C",
"6  c #6F5234",
"7  c #66523F",
"8  c #6C553E",
"9  c #715537",
"0  c #765837",
"q  c #725738",
"w  c #755A3A",
"e  c #795E3E",
"r  c #7B603F",
"t  c #574A40",
"y  c #594D42",
"u  c #5C5146",
"i  c #5E534A",
"p  c #675240",
"a  c #695542",
"s  c #6C5A46",
"d  c #6D5B48",
"f  c #715C46",
"g  c #7A5F40",
"h  c #705D48",
"j  c #655E54",
"k  c #7D6241",
"l  c #75634D",
"z  c #676056",
"x  c #686156",
"c  c #676158",
"v  c #6C655C",
"b  c #6E685F",
"n  c #736452",
"m  c #786751",
"M  c #7B6A55",
"N  c #7E6E59",
"B  c #7F705B",
"V  c #6F6A60",
"C  c #726D64",
"Z  c #767066",
"A  c #7B7267",
"S  c #767269",
"D  c #7A766C",
"F  c #7C786C",
"G  c #7D7A71",
"H  c #816645",
"J  c #836947",
"K  c #856B4B",
"L  c #886E4E",
"P  c #8A714F",
"I  c #886F51",
"U  c #8C7454",
"Y  c #81715C",
"T  c #907756",
"R  c #947D5E",
"E  c #847562",
"W  c #867966",
"Q  c #897B67",
"!  c #8C7F6C",
"~  c #807D72",
"^  c #83A448",
"/  c #8BAC50",
"(  c #8E806D",
")  c #9A8365",
"_  c #858377",
"`  c #878579",
"'  c #89867A",
"]  c #8A887A",
"[  c #938674",
"{  c #8A8680",
"}  c #8E8C83",
"|  c #908D83",
" . c #96938B",
".. c #99968E",
"X. c #9E9A92",
"o. c #A09C94",
/* pixels */
"^ ^ ^ ^ ^ ^ ^ ^ ^ ^ ^ ^ ^ ^ ^ ^ ^ ^ ^ - 3 3 - - 3 & & - * , * * * * * * * = * * - - , - 3 ^ ^ ^ ^ ^ ^ ^ ^ ^ ^ ^ ^ ^ ^ ^ ^ ^ ^ ^ ",
"^ ^ ^ .     . .   .     X   .   . - - ' _ ` _ _ ` _ _ _ _ _ n v v n n n n j { ~ _ _ _ _ ` 3 - + + + + o o o o o + + o o o ^ ^ ^ ",
"^ ^ ^ ` ` ` ` ` ` C C C b ......` ' + _ _ _ _ _ n v Z Z A Z Z Z S S Z S v v n ~ _ _ _ _ _ * ` ` C C V .... ...` ` ` ` ` o ^ ^ ^ ",
"^ . * ` ` ` ` ` ` ` ` ` ` ` ` ` ' - | ` _ _ _ _ o + + + + + + + o + O o O + + + _ _ _ _ _  .* { ` ` ` ` ` ` ` ` ' ` ` ` ' ' o ^ ",
"^ . * ` ` ` ` ` ` ` ` ` ` ` ` ' ' - | _ _ _ _ ` + + o o + + O o O o + + O o O o _ _ _ _ _  .* } ` ` ` ` ` ` ` ' ` ' ` ` ' ' o ^ ",
"^ . ` ' ' ' ' ` ' ' ' ' ` ` ' ' ' ,  ._ _ ` @ @ n Z Z S S S C F D ~ D Z Z Z Z S % @ ` _ `  .* ' ` ` ' ' ' ' ' ` ` ` ' ` ` ` o ^ ",
"^ . ` ` ` ' ' ' ' ' ' ' ' ' ` ' ' - | ` ` _ @ @ i b n S S F A F D D D Z A A A A @ @ _ ` `  .* ' ' ' ' ' ` ' ' ' { ' ' ' ' ' o ^ ",
"^ . ` ` ' ' ' ' ` ' ' ` ' ' ' ' ' - X.} ` ` @ # i i i n Z F F F D D D D A A A A @ @ ` ` ' ..= ` ' ` ' ' ' ' ' ' ' ' ' ' ' ' o ^ ",
"^ . | ` ' ' ` ` ' ' ' ' ' ' ] ' ' * G ] ] ] ] ` + O + + + + + + O o o + O o O + ' ' ' ' ` j O ] ' ' ] ' ' ' ' ' ' ' { ] ' ' + ^ ",
"^ . | ` ' ' ' | | ' ' ' ' ] ] ' ] - F X.] ] ` ] ] ] ] ` ] ] ] ] ' ' ' ' ] ' ' ' ' ] ] ' o.v o ` ' ' ' ' ] ' ' ' ' ' ' ] ' ' + ^ ",
"^ . | | | | | | | ' ' ' ' ] ' ' ' % S G o.o.X.X.X.....X. . . . . . ..... . .........X.X.n j o ' ] { ' ] ' ' ' ' ' ' } } } ' + ^ ",
"^ . | | | | | | | ' ' ' ] { ' ] ' % D G o.X.X.X.X....... . . . . . . ..... . .........X.j j o ' ' ] ] ' ' ] ' ' ' ' } } } ' + ^ ",
"^ X } | | } | ' ' ] ` ' ' ' ' ' ' % S  .V S S Z Z Z b V b b b b V V F G F V V v b b V v ~ j o ' ' ' ] ' ` ' ' ' ' ' | | } | + ^ ",
"^ S   } | | ' ' ] ' ] ` ' ' ' ' ' % D V v S Z Z b + + + + + + + o o + + o V V v b b V v V j . ' ' ' ' ' ' ' ' ' | | | | | X.+ ^ ",
"^ A . | | | ' ' ` ' ` ` ` ` ' ] ' % S V v S Z Z b O + + O O O O o O o o o b v b v V v b v j o ' ' ' ' ' ` ` ' ' | | | | | X.+ ^ ",
"^ x v C Z C Z Z C C b b V b b V V . _ v v v < < 2 > P P P K O K L K L K L @ = < C C C v v ~ . Z V V v V V V V V Z C { } x b j ^ ",
"^ x v Z Z Z Z v b v b v b b b b C   ~ v * = R T T $ U L L K O K K L K K K O e e = = = v v ~ X v V v V v v V v S C C C C * j j ^ ",
"^ v { Z S Z S V v b b b v b v b b   ~ $ T T T T T $ ) ) ) R $ R R R R R T O e e g g g + = S . V V V v V v V V v v b C C S * j ^ ",
"^ x { Z S V V V v v b b b v b b b . = $ U R R R ) $ 0 0 0 H $ e r e e e H @ T U I U g = 4 S . v V V V v v v V v b v C C C C o ^ ",
"^ . Z Z V V v V v v ~ S D i b C * I U = H 0 U T H $ H e r H > e e e 0 e H < < J g g g = I 6 @ V v V D y V C C v b b v b v V o ^ ",
"^ . C V v V v V v b v b i S V Z = K R $ 6 L H H H < e H e H < e e e k k r < K e g g g = g 4 = v V v u S u u v V b v V v v v o ^ ",
"^   C V V v V v b b u u Z V = = H I g = 0 L H H H < H e r H < e e e k k r 2 r H g g g 4 g K 4 @ j V C v V C u V v V v v b v o ^ ",
"^ . C V v V v V b v u u Z b * = H I 0 $ 6 L H H H = g e H H < e r r k k r < e H g g g 4 g I 4 @ V V C V C V u v V v b v v v o ^ ",
"^ . C V V v V v b b u u b b 2 * U 0 H = H H H H H < H H e g = H r k k k e < H g g g g 4 g g I % V V V v V v i V b b v v V V o ^ ",
"^   C C b b v b v b v b v v O + g g 0 = H H H H H * H H H H = H k H H k k < H r g g g 6 H H g I o o b v b b v b b v b b v b o ^ ",
"^ . C V v v b b b b u u i v o + 9 q g 4 H H g H H = g H g H < H H H k k H < k r g H g * H 0 g I o o i v v v i b b b v b b v o ^ ",
"^ . C v v j V v v b u u S i + + g 0 q 2 H H H H = 4 g g g H < J J J H k H 2 r $ H H H * 0 H g g X X S i b b C v b b b v v b o ^ ",
"^ . c v v v j V b b u u b S + + O # $ = = = = = ! * g g g H < K J J k k k < < ) = = = $ $ O O % X X v C i i v b v b v b b b o ^ ",
"^ . j V j V v V b b u u v b o O Y Y Y E E E E E Y = g g g H 2 K J J r r k $ ) K E E Y Y Y Y H Y . . b b S S i b b v b v b b o ^ ",
"^ . v v j j j v v v A A v b o O f h l I n K K Y I O g g g g = K J J H r k O M M n Y f f d n p d X X v b b b S b b b v b v v o ^ ",
"^ . v v V v j V v v b b b b o O X X X X X X X X Y 4 g g g H * K J J r H H 2 X M X X X X X X X X X X b b b v b b v b v b v b o ^ ",
"^ . v v j v v V v v v b b v o o X X X X o o O X K 4 g g g g = I J K H r r 2 X M X X X X X X X X . X b v v b v v b v v b v b o ^ ",
"^   v v v j v v V v V V V V + + X X X o X O X X M 6 w r r r 1 J J J H k k 2 O M . o o X o X X X . X v v b b b b b v v v V v o ^ ",
"^   v v v v v b j v y u y i + + > > > # 2 2 2 2 X 4 r r r r 1 J J J k k k 2 2 X 2 1 1 2 1 1 1 1 X X u u u y y b v b v v v v o ^ ",
"^   v v v v v v V V C C C C + + w w q & k k r r 2 6 r r r k 1 K K K k k k 2 r 2 g g g 6 q 0 q q X X C C C C y b v v b v v V o ^ ",
"^   v j v v j v V j u y V V + + q q q 2 k g e e r 4 r r r k 1 K K K k k k 2 r r k e e 6 q q q q X X b b V V V b v V b V V V o ^ ",
"^ . v v v v c v j v y y v y o o q q q 2 k e f e w 2 e w r r 1 K K K k r r 4 k r e e e 4 q q q q . o x y u y y v j V V V V V X ^ ",
"^ . v v v v v v V v C C j S O o q q q 2 k w w e r 6 w r w r - K L K r k k 2 k e w e w 6 8 q 6 q o . c Z Z Z Z x c c j v j V o ^ ",
"^ . j v c v v v v v j v j v + + q q q 2 k w e w w 4 w w r r 1 M K K r r k 4 k w e e g 4 9 9 q 6 o . v c c x x x c c c c j V o ^ ",
"^   v c v v c v j v y y V S + + 9 9 q 2 k w q q q 6 w w O ( ( ( ( ( Q r e 6 k e e e e 4 4 9 6 9 . X b Z Z C y x c c c j V V . ^ ",
"^ . j v c v c v v j y y v v + + 9 q 0 2 k w q q q 4 q w # l l l l l l r e 6 r w w e w 1 4 9 6 6 X X c v t t Z c c j v b v * . ^ ",
"^ . v c v j j v v j y y v c + + 9 9 0 2 k q q w 0 4 w w # l l l l l l r e 6 r w w w w 1 9 9 6 6 . . v v u t Z c j v v v b * . ^ ",
"^ . c v c v v c j V t y c y o + q 9 q 4 k 9 q q q 4 q w @ l . l l l l q r 6 r w w w w 1 9 4 4 9 X X c t C C c j v j b v v t u ^ ",
"^ . c c c c c c V j y y t C o + 9 9 9 2 k 9 q q q 4 w w o h X e f h s w w 2 k w w w w 1 6 4 9 6 X X t C v c t c j c v b v y u ^ ",
"^ . v c c c v j v j Z S A x + + q q q 2 e 0 0 6 9 4 9 w . 8 8 8 8 8 8 q w 2 k w w w 0 < 6 6 9 4   X S j c c C c c c v c u D D ^ ",
"^ . c c v j v c j v j j t : + + + @ @ $ % % % & ( 4 w 9 q 1 @ 1 1 1 1 q 9 6 & ( & # % % % + @ +     t t t t j j j u D G v c o ^ ",
"^ . b c c c j c v j t t C C + + m N M Y W Y W Y l & q w q q > w w r 0 q w & ( l Y Y N M M M m m     b Z C b t j c c c c c v o ^ ",
"^ . b c c c j v x j : : x : + + a f l l l l m m l ( & 9 q w > q q q 0 0 & ( l l l h d f h h a 8     c t c c t c c c c c c v o ^ ",
"^ t . c j c c j c c t t j V o o 8 l d l l l m m m . q 9 9 w - q q q 9 0 0 . l m l l f f s f 8 8 . . c b c j t c j c j c c c o ^ ",
"^ t . c v c j v c j t t j C O o 8 8 l l m l m m m   q 9 q q > q q q 9 0 6 . l l l l d d f s a a . . c C c j t c j c v j v j o ^ ",
"^   t t j j j c c j c c C C o o $ > 1 @ 1 1 1 1 . > q 9 9 9 - 9 9 9 9 6 9 - 2 . > , 1 & > > & =     b Z Z C c c v c c v c c o ^ ",
"^ * S E t t v c j v j c j j o % 6 4 6 @ 9 6 9 9 1 - 9 9 9 9 # 9 q q 6 6 6 - 0 1 w w w = 4 2 4 4     c j c c j j j j j j j c + ^ ",
"^ * b c S S c j j c ; ; ; c o + 4 6 4 & 9 6 9 6 9 & 9 9 9 9 + 8 9 9 6 6 6 - w w w w w > 4 4 4 4   . ; c c j ; c j j j c c c o ^ ",
"^ * b j S S c j c c t * ; j + + 6 4 6 $ 8 6 6 6 6 - 9 9 9 9 % 9 6 6 9 6 6 - w w w w w # 4 4 4 4 .   ; c c j ; j c c c j j j O ^ ",
"^ * b c c c c c c j ; t C ; + + 6 6 6 & 6 6 8 6 6 > 9 9 6 8 + 9 9 q 6 6 6 & w w w q w - 4 4 4 4     C ; ; ; b j j j j c c c o ^ ",
"^ * b v v v j j c j ; ; j t + + l l l n m m m m m m m m M B   B A B A M M M M m n m l l l n n l   . v ; ; ; j j j j j j j c + ^ ",
"^ - v v v v j j j j ; ; ; V o o W W W ( A ( W W Y _ ( ( ( [ . ] [ [ [ ( ( ( W W F W W W W E Y W     ; b Z b ; j j j j j j V o ^ ",
"^ - v c j j j j j j V V V j % o 7 7 7 7 7 5 a s s s s s d m . l n m d d d d s s a a 8 a 7 7 7 5     V j j j x j j j j j j j o ^ ",
"^ - v v j j j j j j j j j j o o 7 7 7 7 7 7 s a s s i s d m . n n n s d d s d s a a a a 7 5 5 7 .   j j j j j j v v j j j j o ^ ",
"^ - v v j j z z j j j j j c + + 7 7 7 7 7 8 s s a s s s s n . l n l d d d s s s a a a a 5 5 : 4 .   j j j j j j v j j j j j o ^ ",
"^ - j c c v v c j j j j j j o o 7 5 7 s a a a a s a d d d n . n n l d d d d d a a a a a 8 7 7 7     z j j j j j v v x c j v o ^ ",
"^ - v c c c c v z j j j j j o o 7 i 8 7 d d d d d d s d d n . n n n n j d d d d a a a a 7 7 8 - .   j j j j i z c x c c v j o ^ ",
"^                                                               . .   . .                                                     ^ ",
"^ ^ ^ ^ ^ ^ ^ ^ ^ ^ ^ ^ / / ^ ^ ^ ^ ^ ^ ^ ^ ^ ^ ^ ^ ^ ^ ^ ^ ^ ^ ^ ^ ^ ^ ^ ^ ^ ^ ^ ^ ^ ^ ^ ^ ^ ^ ^ ^ ^ ^ ^ ^ ^ ^ ^ ^ ^ ^ ^ ^ ^ ^ "
};
