/* XPM */
static char *result[] = {
/* columns rows colors chars-per-pixel */
"64 64 14 1 ",
"  c #83A448",
". c #D4D69A",
"X c #D9D48C",
"o c #B78356",
"O c #CEA272",
"+ c #805A42",
"@ c #349AA4",
"# c #4BD3CF",
"$ c #42ACAF",
"% c #4EBCB9",
"& c #CFBF82",
"* c #C9AD77",
"= c #A5734D",
"- c white",
/* pixels */
"        ............XXXXooooOOOOoooo++++@@@@####@@@@@@@@$$$$%%%%",
"        ............XXXXooooOOOOoooo++++@@@@####@@@@@@@@$$$$%%%%",
"        ........&&&&XXXXooooooooOOOOoooo++++@@@@####@@@@$$$$%%%%",
"        ........&&&&XXXXooooooooOOOOoooo++++@@@@####@@@@$$$$%%%%",
"        ........&&&&XXXXooooooooOOOOoooo++++@@@@####@@@@$$$$%%%%",
"        ........&&&&XXXXooooooooOOOOoooo++++@@@@####@@@@$$$$%%%%",
"            &&&&&&&&XXXX&&&&ooooOOOOOOOO++++@@@@####@@@@$$$$%%%%",
"            &&&&&&&&XXXX&&&&ooooOOOOOOOO++++@@@@####@@@@$$$$%%%%",
"            &&&&&&&&XXXX&&&&ooooOOOOOOOO++++@@@@####@@@@$$$$%%%%",
"            &&&&&&&&XXXX&&&&ooooOOOOOOOO++++@@@@####@@@@$$$$%%%%",
"        &&&&****XXXXXXXX&&&&====OOOOOOOO====++++@@@@####%%%%$$$$",
"        &&&&****XXXXXXXX&&&&====OOOOOOOO====++++@@@@####%%%%$$$$",
"        &&&&****XXXXXXXX&&&&====OOOOOOOO====++++@@@@####%%%%$$$$",
"        &&&&****XXXXXXXX&&&&====OOOOOOOO====++++@@@@####%%%%$$$$",
"****XXXXXXXXXXXX&&&&XXXXXXXXoooo====OOOO====++++@@@@####@@@@$$$$",
"****XXXXXXXXXXXX&&&&XXXXXXXXoooo====OOOO====++++@@@@####@@@@$$$$",
"****XXXXXXXXXXXX&&&&XXXXXXXXoooo====OOOO====++++@@@@####@@@@$$$$",
"****XXXXXXXXXXXX&&&&XXXXXXXXoooo====OOOO====++++@@@@####@@@@$$$$",
"********XXXXXXXXoooo&&&&&&&&oooo====oooo====++++@@@@####@@@@$$$$",
"********XXXXXXXXoooo&&&&&&&&oooo====oooo====++++@@@@####@@@@$$$$",
"********XXXXXXXXoooo&&&&&&&&oooo====oooo====++++@@@@####@@@@$$$$",
"********XXXXXXXXoooo&&&&&&&&oooo====oooo====++++@@@@####@@@@$$$$",
"OOOO****&&&&&&&&oooo====oooo****&&&&OOOO++++@@@@@@@@####@@@@$$$$",
"OOOO****&&&&&&&&oooo====oooo****&&&&OOOO++++@@@@@@@@####@@@@$$$$",
"OOOO****&&&&&&&&oooo====oooo****&&&&OOOO++++@@@@@@@@####@@@@$$$$",
"OOOO****&&&&&&&&oooo====oooo****&&&&OOOO++++@@@@@@@@####@@@@$$$$",
"OOOO&&&&&&&&&&&&oooo========&&&&&&&&OOOO====++++####@@@@@@@@$$$$",
"OOOO&&&&&&&&&&&&oooo========&&&&&&&&OOOO====++++####@@@@@@@@$$$$",
"OOOO&&&&&&&&&&&&oooo========&&&&&&&&OOOO====++++####@@@@@@@@$$$$",
"OOOO&&&&&&&&&&&&oooo========&&&&&&&&OOOO====++++####@@@@@@@@$$$$",
"oooooooo********============&&&&****oooooooo++++####@@@@$$$$$$$$",
"oooooooo********============&&&&****oooooooo++++####@@@@$$$$$$$$",
"oooooooo********============&&&&****oooooooo++++####@@@@$$$$$$$$",
"oooooooo********============&&&&****oooooooo++++####@@@@$$$$$$$$",
"oooo====oooooooo****========****OOOOoooooooo++++####@@@@$$$$$$$$",
"oooo====oooooooo****========****OOOOoooooooo++++####@@@@$$$$$$$$",
"oooo====oooooooo****========****OOOOoooooooo++++####@@@@$$$$$$$$",
"oooo====oooooooo****========****OOOOoooooooo++++####@@@@$$$$$$$$",
"============************====oooooooooooooooo++++####@@@@$$$$%%%%",
"============************====oooooooooooooooo++++####@@@@$$$$%%%%",
"============************====oooooooooooooooo++++####@@@@$$$$%%%%",
"============************====oooooooooooooooo++++####@@@@$$$$%%%%",
"====++++====ooooOOOOOOOOoooo====oooooooo++++@@@@####@@@@$$$$%%%%",
"====++++====ooooOOOOOOOOoooo====oooooooo++++@@@@####@@@@$$$$%%%%",
"====++++====ooooOOOOOOOOoooo====oooooooo++++@@@@####@@@@$$$$%%%%",
"====++++====ooooOOOOOOOOoooo====oooooooo++++@@@@####@@@@$$$$%%%%",
"++++++++++++====oooooooo====++++++++++++@@@@####@@@@@@@@$$$$%%%%",
"++++++++++++====oooooooo====++++++++++++@@@@####@@@@@@@@$$$$%%%%",
"++++++++++++====oooooooo====++++++++++++@@@@####@@@@@@@@$$$$%%%%",
"++++++++++++====oooooooo====++++++++++++@@@@####@@@@@@@@$$$$%%%%",
"@@@@++++++++++++========++++++++@@@@@@@@####@@@@@@@@$$$$$$$$%%%%",
"@@@@++++++++++++========++++++++@@@@@@@@####@@@@@@@@$$$$$$$$%%%%",
"@@@@++++++++++++========++++++++@@@@@@@@####@@@@@@@@$$$$$$$$%%%%",
"@@@@++++++++++++========++++++++@@@@@@@@####@@@@@@@@$$$$$$$$%%%%",
"################@@@@@@@@@@@@@@@@########@@@@@@@@$$$$$$$$%%%%%%%%",
"################@@@@@@@@@@@@@@@@########@@@@@@@@$$$$$$$$%%%%%%%%",
"################@@@@@@@@@@@@@@@@########@@@@@@@@$$$$$$$$%%%%%%%%",
"################@@@@@@@@@@@@@@@@########@@@@@@@@$$$$$$$$%%%%%%%%",
"@@@@@@@@@@@@@@@@################@@@@@@@@@@@@$$$$$$$$%%%%%%%%%%%%",
"@@@@@@@@@@@@@@@@################@@@@@@@@@@@@$$$$$$$$%%%%%%%%%%%%",
"@@@@@@@@@@@@@@@@################@@@@@@@@@@@@$$$$$$$$%%%%%%%%%%%%",
"@@@@@@@@@@@@@@@@################@@@@@@@@@@@@$$$$$$$$%%%%%%%%%%%%",
"$$$$$$$$$$$$@@@@@@@@@@@@@@@@@@@@$$$$$$$$$$$$$$$$%%%%%%%%%%%%%%%%",
"$$$$$$$$$$$$@@@@@@@@@@@@@@@@@@@@$$$$$$$$$$$$$$$$%%%%%%%%%%%%%%%%"
};
