/* XPM */
static char *result[] = {
/* columns rows colors chars-per-pixel */
"64 64 15 1 ",
"  c #4EBCB9",
". c #42ACAF",
"X c #349AA4",
"o c #4BD3CF",
"O c #A5734D",
"+ c #C9AD77",
"@ c #CFBF82",
"# c #83A448",
"$ c #D4D69A",
"% c #B78356",
"& c #805A42",
"* c #CEA272",
"= c #D9D48C",
"- c #8CB541",
"; c white",
/* pixels */
"    ....XXXXooooXXXXXXXXOOOO++++@@@@@@@@@@@@####$$$$############",
"    ....XXXXooooXXXXXXXXOOOO++++@@@@@@@@@@@@####$$$$############",
"........XXXXooooXXXXOOOO%%%%@@@@@@@@++++$$$$$$$$$$$$############",
"........XXXXooooXXXXOOOO%%%%@@@@@@@@++++$$$$$$$$$$$$############",
"........XXXXooooXXXXOOOO%%%%@@@@@@@@++++$$$$$$$$$$$$############",
"........XXXXooooXXXXOOOO%%%%@@@@@@@@++++$$$$$$$$$$$$############",
"....XXXXooooXXXXXXXX&&&&%%%%@@@@++++++++$$$$$$$$$$$$############",
"....XXXXooooXXXXXXXX&&&&%%%%@@@@++++++++$$$$$$$$$$$$############",
"....XXXXooooXXXXXXXX&&&&%%%%@@@@++++++++$$$$$$$$$$$$############",
"....XXXXooooXXXXXXXX&&&&%%%%@@@@++++++++$$$$$$$$$$$$############",
"....XXXXooooXXXXOOOOOOOO****++++++++@@@@@@@@====$$$$##--########",
"....XXXXooooXXXXOOOOOOOO****++++++++@@@@@@@@====$$$$##--########",
"....XXXXooooXXXXOOOOOOOO****++++++++@@@@@@@@====$$$$--##########",
"....XXXXooooXXXXOOOOOOOO****++++++++@@@@@@@@====$$$$--##########",
"....XXXXooooXXXXOOOO%%%%****++++%%%%========@@@@========@@@@++++",
"....XXXXooooXXXXOOOO%%%%****++++%%%%========@@@@========@@@@++++",
"....XXXXooooXXXXOOOO%%%%****++++%%%%========@@@@========@@@@++++",
"....XXXXooooXXXXOOOO%%%%****++++%%%%========@@@@========@@@@++++",
"....XXXXooooXXXX&&&&************%%%%========%%%%@@@@@@@@++++++++",
"....XXXXooooXXXX&&&&************%%%%========%%%%@@@@@@@@++++++++",
"....XXXXooooXXXX&&&&************%%%%========%%%%@@@@@@@@++++++++",
"....XXXXooooXXXX&&&&************%%%%========%%%%@@@@@@@@++++++++",
"....XXXXooooXXXXOOOO&&&&%%%%====@@@@++++OOOO****@@@@@@@@++++%%%%",
"....XXXXooooXXXXOOOO&&&&%%%%====@@@@++++OOOO****@@@@@@@@++++%%%%",
"....XXXXooooXXXXOOOO&&&&%%%%====@@@@++++OOOO****@@@@@@@@++++%%%%",
"....XXXXooooXXXXOOOO&&&&%%%%====@@@@++++OOOO****@@@@@@@@++++%%%%",
"........XXXXoooo&&&&OOOO****========@@@@OOOO****@@@@@@@@@@@@%%%%",
"........XXXXoooo&&&&OOOO****========@@@@OOOO****@@@@@@@@@@@@%%%%",
"........XXXXoooo&&&&OOOO****========@@@@OOOO****@@@@@@@@@@@@%%%%",
"........XXXXoooo&&&&OOOO****========@@@@OOOO****@@@@@@@@@@@@%%%%",
"    ....XXXXooooOOOO%%%%****@@@@========OOOOOOOO++++++++%%%%%%%%",
"    ....XXXXooooOOOO%%%%****@@@@========OOOOOOOO++++++++%%%%%%%%",
"    ....XXXXooooOOOO%%%%****@@@@========OOOOOOOO++++++++%%%%%%%%",
"    ....XXXXooooOOOO%%%%****@@@@========OOOOOOOO++++++++%%%%%%%%",
"    ....XXXXoooo&&&&%%%%****++++++++++++OOOO%%%%%%%%%%%%OOOO%%%%",
"    ....XXXXoooo&&&&%%%%****++++++++++++OOOO%%%%%%%%%%%%OOOO%%%%",
"    ....XXXXoooo&&&&%%%%****++++++++++++OOOO%%%%%%%%%%%%OOOO%%%%",
"    ....XXXXoooo&&&&%%%%****++++++++++++OOOO%%%%%%%%%%%%OOOO%%%%",
"    ....XXXXoooo&&&&%%%%%%%%****++++OOOO%%%%%%%%%%%%OOOOOOOOOOOO",
"    ....XXXXoooo&&&&%%%%%%%%****++++OOOO%%%%%%%%%%%%OOOOOOOOOOOO",
"    ....XXXXoooo&&&&%%%%%%%%****++++OOOO%%%%%%%%%%%%OOOOOOOOOOOO",
"    ....XXXXoooo&&&&%%%%%%%%****++++OOOO%%%%%%%%%%%%OOOOOOOOOOOO",
"    ....XXXXooooXXXX&&&&%%%%%%%%OOOO&&&&%%%%%%%%OOOOOOOO&&&&OOOO",
"    ....XXXXooooXXXX&&&&%%%%%%%%OOOO&&&&%%%%%%%%OOOOOOOO&&&&OOOO",
"    ....XXXXooooXXXX&&&&%%%%%%%%OOOO&&&&%%%%%%%%OOOOOOOO&&&&OOOO",
"    ....XXXXooooXXXX&&&&%%%%%%%%OOOO&&&&%%%%%%%%OOOOOOOO&&&&OOOO",
"    ....XXXXooooXXXXXXXX&&&&&&&&&&&&&&&&%%%%%%%%OOOO&&&&&&&&&&&&",
"    ....XXXXooooXXXXXXXX&&&&&&&&&&&&&&&&%%%%%%%%OOOO&&&&&&&&&&&&",
"    ....XXXXooooXXXXXXXX&&&&&&&&&&&&&&&&%%%%%%%%OOOO&&&&&&&&&&&&",
"    ....XXXXooooXXXXXXXX&&&&&&&&&&&&&&&&%%%%%%%%OOOO&&&&&&&&&&&&",
"    ....XXXXXXXXooooooooXXXXXXXX&&&&OOOOOOOOOOOO&&&&&&&&XXXXXXXX",
"    ....XXXXXXXXooooooooXXXXXXXX&&&&OOOOOOOOOOOO&&&&&&&&XXXXXXXX",
"    ....XXXXXXXXooooooooXXXXXXXX&&&&OOOOOOOOOOOO&&&&&&&&XXXXXXXX",
"    ....XXXXXXXXooooooooXXXXXXXX&&&&OOOOOOOOOOOO&&&&&&&&XXXXXXXX",
"    ........XXXXXXXXXXXXooooXXXXXXXXXXXXXXXXXXXXXXXXXXXXXXXXoooo",
"    ........XXXXXXXXXXXXooooXXXXXXXXXXXXXXXXXXXXXXXXXXXXXXXXoooo",
"    ........XXXXXXXXXXXXooooXXXXXXXXXXXXXXXXXXXXXXXXXXXXXXXXoooo",
"    ........XXXXXXXXXXXXooooXXXXXXXXXXXXXXXXXXXXXXXXXXXXXXXXoooo",
"    ........XXXXXXXXXXXXXXXXooooooooooooooooooooooooooooooooXXXX",
"    ........XXXXXXXXXXXXXXXXooooooooooooooooooooooooooooooooXXXX",
"    ........XXXXXXXXXXXXXXXXooooooooooooooooooooooooooooooooXXXX",
"    ........XXXXXXXXXXXXXXXXooooooooooooooooooooooooooooooooXXXX",
"        ............XXXXXXXXXXXXXXXXXXXXXXXXXXXXXXXXXXXX........",
"        ............XXXXXXXXXXXXXXXXXXXXXXXXXXXXXXXXXXXX........"
};
