/* XPM */
static char *result[] = {
/* columns rows colors chars-per-pixel */
"64 64 16 1 ",
"  c #83A448",
". c #8CB541",
"X c #8BAC50",
"o c #91AF55",
"O c #D9D48C",
"+ c #D4D69A",
"@ c #CFBF82",
"# c #B78356",
"$ c #C9AD77",
"% c #CEA272",
"& c #A5734D",
"* c #805A42",
"= c #349AA4",
"- c #4BD3CF",
"; c #42ACAF",
": c white",
/* pixels */
"                                                                ",
"                                                                ",
"                                                                ",
"                                                                ",
"                  ..                                        XX  ",
"                  ..                                        XX  ",
"                XX  ..XX                          XXXX  XXXX    ",
"                XX  ..XX                          XXXX  XXXX    ",
"                XX  XX..  XX..            ..    XXXX  XXXX    XX",
"                XX  XX..  XX..            ..    XXXX  XXXX    XX",
"          XX  XXXXXXXX..  XX..          ..      XX    XX    XX  ",
"          XX  XXXXXXXX..  XX..          ..      XX    XX    XX  ",
"    XX  XXXXXXXX  XX  ....oo..    ..    ..                XXXX  ",
"    XX  XXXXXXXX  XX  ....oo..    ..    ..                XXXX  ",
"OOOO++++++++OOOOOOOO@@@@++++++++++++  oo..  @@@@OOOO++++++++OOOO",
"OOOO++++++++OOOOOOOO@@@@++++++++++++  oo..  @@@@OOOO++++++++OOOO",
"OOOO++++++++OOOOOOOO@@@@++++++++++++......  @@@@OOOO++++++++OOOO",
"OOOO++++++++OOOOOOOO@@@@++++++++++++......  @@@@OOOO++++++++OOOO",
"####@@@@++++++++OOOO@@@@++++++++@@@@$$$$$$$$++++++++++++$$$$####",
"####@@@@++++++++OOOO@@@@++++++++@@@@$$$$$$$$++++++++++++$$$$####",
"####@@@@++++++++OOOO@@@@++++++++@@@@$$$$$$$$++++++++++++$$$$####",
"####@@@@++++++++OOOO@@@@++++++++@@@@$$$$$$$$++++++++++++$$$$####",
"####$$$$$$$$$$$$####%%%%$$$$$$$$$$$$$$$$%%%%########$$$$########",
"####$$$$$$$$$$$$####%%%%$$$$$$$$$$$$$$$$%%%%########$$$$########",
"####$$$$$$$$$$$$####%%%%$$$$$$$$$$$$$$$$%%%%########$$$$########",
"####$$$$$$$$$$$$####%%%%$$$$$$$$$$$$$$$$%%%%########$$$$########",
"########$$$$####%%%%%%%%%%%%$$$$@@@@@@@@@@@@####@@@@$$$$########",
"########$$$$####%%%%%%%%%%%%$$$$@@@@@@@@@@@@####@@@@$$$$########",
"########$$$$####%%%%%%%%%%%%$$$$@@@@@@@@@@@@####@@@@$$$$########",
"########$$$$####%%%%%%%%%%%%$$$$@@@@@@@@@@@@####@@@@$$$$########",
"####@@@@@@@@@@@@&&&&####$$$$@@@@@@@@@@@@########@@@@@@@@&&&&####",
"####@@@@@@@@@@@@&&&&####$$$$@@@@@@@@@@@@########@@@@@@@@&&&&####",
"####@@@@@@@@@@@@&&&&####$$$$@@@@@@@@@@@@########@@@@@@@@&&&&####",
"####@@@@@@@@@@@@&&&&####$$$$@@@@@@@@@@@@########@@@@@@@@&&&&####",
"$$$$$$$$@@@@$$$$####&&&&%%%%%%%%%%%%####&&&&####$$$$####&&&&####",
"$$$$$$$$@@@@$$$$####&&&&%%%%%%%%%%%%####&&&&####$$$$####&&&&####",
"$$$$$$$$@@@@$$$$####&&&&%%%%%%%%%%%%####&&&&####$$$$####&&&&####",
"$$$$$$$$@@@@$$$$####&&&&%%%%%%%%%%%%####&&&&####$$$$####&&&&####",
"%%%%$$$$$$$$%%%%####&&&&################****&&&&########&&&&****",
"%%%%$$$$$$$$%%%%####&&&&################****&&&&########&&&&****",
"%%%%$$$$$$$$%%%%####&&&&################****&&&&########&&&&****",
"%%%%$$$$$$$$%%%%####&&&&################****&&&&########&&&&****",
"&&&&%%%%%%%%####&&&&****####$$$$$$$$&&&&********&&&&&&&&********",
"&&&&%%%%%%%%####&&&&****####$$$$$$$$&&&&********&&&&&&&&********",
"&&&&%%%%%%%%####&&&&****####$$$$$$$$&&&&********&&&&&&&&********",
"&&&&%%%%%%%%####&&&&****####$$$$$$$$&&&&********&&&&&&&&********",
"****&&&&&&&&&&&&****&&&&$$$$$$$$$$$$$$$$&&&&&&&&****&&&&********",
"****&&&&&&&&&&&&****&&&&$$$$$$$$$$$$$$$$&&&&&&&&****&&&&********",
"****&&&&&&&&&&&&****&&&&$$$$$$$$$$$$$$$$&&&&&&&&****&&&&********",
"****&&&&&&&&&&&&****&&&&$$$$$$$$$$$$$$$$&&&&&&&&****&&&&********",
"====****************&&&&####$$$$$$$$########****************====",
"====****************&&&&####$$$$$$$$########****************====",
"====****************&&&&####$$$$$$$$########****************====",
"====****************&&&&####$$$$$$$$########****************====",
"--------------------************************============--------",
"--------------------************************============--------",
"--------------------************************============--------",
"--------------------************************============--------",
"====================------------------------------------========",
"====================------------------------------------========",
"====================------------------------------------========",
"====================------------------------------------========",
";;;;;;;;;;;;;;;;============================================;;;;",
";;;;;;;;;;;;;;;;============================================;;;;"
};
