/* XPM */
static char *result[] = {
/* columns rows colors chars-per-pixel */
"64 64 5 1 ",
"  c #83A448",
". c #8BAC50",
"X c #91AF55",
"o c #83883C",
"O c white",
/* pixels */
"                                                                ",
"                                                                ",
"                                                       ..       ",
"                                                       ..       ",
"                                         ..    ..      ..       ",
"                                         ..    ..      ..       ",
"                                         ....  ..    ....       ",
"                                         ....  ..    ....       ",
"                                           ..    ..  ..         ",
"                                           ..    ..  ..         ",
"                                           ....  ..  ..         ",
"                                           ....  ..  ..         ",
"                                             ..  ..             ",
"                                             ..  ..             ",
"                                             ..        XX       ",
"                                             ..        XX       ",
"            XXXXX                                      XXXX     ",
"            XXXXX                                      XXXX     ",
"              XXXXX      XXXXXX                        XXXX     ",
"              XXXXX      XXXXXX                        XXXX     ",
"            oooooXX    XXXXXX                        ooooXX     ",
"            oooooXX    XXXXXX                        ooooXX     ",
"                       XXoooooo                XXXXXX           ",
"                       XXoooooo                XXXXXX           ",
"                                           XXXXXXXXoo           ",
"                                           XXXXXXXXoo           ",
"                                             oooooo             ",
"                                             oooooo             ",
"                                                                ",
"                                                                ",
"                                         ..                     ",
"                                         ..                     ",
"                               ....  ....                       ",
"                               ....  ....                       ",
"              ...            ....  ....    ..                   ",
"              ...            ....  ....    ..                   ",
"                 ....  ....  ..    ..    ..                     ",
"                 ....  ....  ..    ..    ..                     ",
"            ..     ....  ....          ....                     ",
"            ..     ....  ....          ....                     ",
"              ...    ..    ..          ..                       ",
"              ...    ..    ..          ..                       ",
"              .....                                             ",
"              .....                                             ",
"                 ..                                             ",
"                 ..                                             ",
"                                                                ",
"                                                                ",
"        ..                                       XXXX           ",
"        ..                                       XXXX           ",
"        ..       ..                  XXXXXX    XXXX             ",
"        ..       ..                  XXXXXX    XXXX             ",
"    ..  ..       ..                XXXXXXoo    XXoooo           ",
"    ..  ..       ..                XXXXXXoo    XXoooo           ",
"    ..  ....  .....                  oooo                       ",
"    ..  ....  .....                  oooo                       ",
"    ....  ..  .....                                             ",
"    ....  ..  .....                                             ",
"      ..  ..  ...                                               ",
"      ..  ..  ...                                               ",
"      ..      ...                                               ",
"      ..      ...                                               ",
"                                                                ",
"                                                                "
};
