/* XPM */
static char *result[] = {
/* columns rows colors chars-per-pixel */
"64 64 6 1 ",
"  c #83A448",
". c #A0B74F",
"X c #8BAC50",
"o c #83883C",
"O c #91AF55",
"+ c white",
/* pixels */
"                                                                ",
"                                                                ",
"                                                                ",
"                                                                ",
"                                                                ",
"                                                                ",
"                                                                ",
"                                                                ",
"                                                                ",
"                                                                ",
"                                                                ",
"                                                                ",
"            ..                                             XX   ",
"            ..                                             XX   ",
"            ....                            XX     XX      XX   ",
"            ....                            XX     XX      XX   ",
"            ....    ....                    XXXXX  XX    XXXX   ",
"            ....    ....                    XXXXX  XX    XXXX   ",
"          oooo..  ....                        XXX    XX  XX     ",
"          oooo..  ....                        XXX    XX  XX     ",
"                  ..oooo                      XXXXX  XX  XX     ",
"                  ..oooo                      XXXXX  XX  XX     ",
"                                                 XX  XX         ",
"                                                 XX  XX         ",
"                                                 XX             ",
"                                                 XX             ",
"                          OOOO                                  ",
"                          OOOO                                  ",
"                            OOOO    ....                        ",
"                            OOOO    ....                        ",
"              OOOO        ooooOO  ....                          ",
"              OOOO        ooooOO  ....                          ",
"    ....    OOOO                  ..oooo               ..       ",
"    ....    OOOO                  ..oooo               ..       ",
"      ....  OOoooo                            ...    ....       ",
"      ....  OOoooo                            ...    ....       ",
"    oooo..                ..                  .....  ..oooo     ",
"    oooo..                ..                  .....  ..oooo     ",
"                        ....                ooooo..             ",
"                        ....                ooooo..             ",
"                ....    ....                                    ",
"                ....    ....                                    ",
"                  ....  ..oooo                                  ",
"                  ....  ..oooo                                  ",
"              oooooo..                                          ",
"              oooooo..                                          ",
"                                                                ",
"                                                                ",
"                                              XXX               ",
"                                              XXX               ",
"                                    XXXX  XXXX                  ",
"                                    XXXX  XXXX                  ",
"          XX                      XXXX  XXXX     XX             ",
"          XX                      XXXX  XXXX     XX             ",
"            XXXX  XXXX            XX    XX    XXX               ",
"            XXXX  XXXX            XX    XX    XXX               ",
"        XX    XXXX  XXXX                    XXXXX               ",
"        XX    XXXX  XXXX                    XXXXX               ",
"          XX    XX    XX                    XX                  ",
"          XX    XX    XX                    XX                  ",
"          XXXX                                                  ",
"          XXXX                                                  ",
"            XX                                                  ",
"            XX                                                  "
};
