/* XPM */
static char *result[] = {
/* columns rows colors chars-per-pixel */
"64 64 7 1 ",
"  c #83A448",
". c #8BAC50",
"X c #8CB541",
"o c #91AF55",
"O c #A0B74F",
"+ c #83883C",
"@ c white",
/* pixels */
"                                                                ",
"                                                                ",
"                                                                ",
"                                                                ",
"                                                                ",
"                                                                ",
"                                                                ",
"                                                                ",
".                                                               ",
".                                                               ",
"                                                                ",
"                                                                ",
"               XX                                               ",
"               XX                                               ",
"               XX                X                              ",
"               XX                X                              ",
"               XX              XX                               ",
"               XX              XX                               ",
"         XX    XXXX          XX                       oooo      ",
"         XX    XXXX          XX                       oooo      ",
"           XX    XX    XX  ooXX                     oooo        ",
"           XX    XX    XX  ooXX                     oooo        ",
"   XX      XX    XX    XX  XX               OOOO    oo++++      ",
"   XX      XX    XX    XX  XX               OOOO    oo++++      ",
"     XX    XXXXooXX  ooXXooXX                 OOOO              ",
"     XX    XXXXooXX  ooXXooXX                 OOOO              ",
"     XXXX  ooXXooXXXXooXXooXX               ++++OO              ",
"     XXXX  ooXXooXXXXooXXooXX               ++++OO              ",
" XX    XXooooXXooXXXXXXXXXX                         OOOOOO      ",
" XX    XXooooXXooXXXXXXXXXX                         OOOOOO      ",
" XXoo  XXXXXXXXooooooXXXXXX++++                     ++OOOOOO    ",
" XXoo  XXXXXXXXooooooXXXXXX++++                     ++OOOOOO    ",
"   XXooooXXXXXXXXXX  XX  XX++                         ++++      ",
"   XXooooXXXXXXXXXX  XX  XX++                         ++++      ",
" ooXXooXXXXXXXXXX              ..                               ",
" ooXXooXXXXXXXXXX              ..                               ",
"+XXooXXXXXXXX++++              ..     ..                        ",
"+XXooXXXXXXXX++++              ..     ..                        ",
" XXooXXXXXXXX              ..  ..     ..                        ",
" XXooXXXXXXXX              ..  ..     ..                        ",
" XXXX  XXXX                ..  ...  ....                        ",
" XXXX  XXXX                ..  ...  ....                        ",
" ++XX                      ....  .  ....                        ",
" ++XX                      ....  .  ....                        ",
"                             ..  .  ..                          ",
"                             ..  .  ..                          ",
".                  OOOO      ..     ..                oo        ",
".                  OOOO      ..     ..                oo        ",
"                 OOOO                               oooo        ",
"                 OOOO                               oooo        ",
"         OOOO    OO++++                       oo    oooo        ",
"         OOOO    OO++++                       oo    oooo        ",
".          OOOO                               oooo  oo++++      ",
".          OOOO                               oooo  oo++++      ",
".        ++++OO                             ++++oo              ",
".        ++++OO                             ++++oo              ",
"                                                                ",
"                                                                ",
"                                                                ",
"                                                                ",
"                                                                ",
"                                                                ",
"                                                                ",
"                                                                "
};
