/* XPM */
static char *result[] = {
/* columns rows colors chars-per-pixel */
"64 64 7 1 ",
"  c #83A448",
". c #91AF55",
"X c #83883C",
"o c #8CB541",
"O c #A0B74F",
"+ c #8BAC50",
"@ c white",
/* pixels */
"                                                                ",
"                                                                ",
"                                                                ",
"                                                                ",
"                                                                ",
"                                                                ",
"                                               ..               ",
"                                               ..               ",
"                                               ....  ......     ",
"                                               ....  ......     ",
"                                               ....  XX......   ",
"                                               ....  XX......   ",
"                                             XXXX..    XXXX     ",
"                                             XXXX..    XXXX     ",
"                                                                ",
"                                                                ",
"                     oo            oo                           ",
"                     oo            oo                           ",
"                 oo  oo      oo      oo                         ",
"                 oo  oo      oo      oo                         ",
"           oo    oo  oo    oo      OOoooo    oo            oo   ",
"           oo    oo  oo    oo      OOoooo    oo            oo   ",
"       oo    oo  oo  oo    oo    OOOOOOoo    oo          oo     ",
"       oo    oo  oo  oo    oo    OOOOOOoo    oo          oo     ",
"         oo  oo  oo..oooooo..      XXXXoooo..oo    oo    oo     ",
"         oo  oo  oo..oooooo..      XXXXoooo..oo    oo    oo     ",
"         oo  ooooooooooooooXXXX          oo..oooo..oo  ..oo     ",
"         oo  ooooooooooooooXXXX          oo..oooo..oo  ..oo     ",
"         ..oo..oooooo..oooo              oooo..oooooooooooo     ",
"         ..oo..oooooo..oooo              oooo..oooooooooooo     ",
"           oo..oooo  ..oo                oooooooooooooooo       ",
"           oo..oooo  ..oo                oooooooooooooooo       ",
"           XXoooooo                    XXXXoo..oo  oo..ooXXXX   ",
"           XXoooooo                    XXXXoo..oo  oo..ooXXXX   ",
"         XXXXoo                            oo      oo..ooXX     ",
"         XXXXoo                            oo      oo..ooXX     ",
"                                   ++              oo           ",
"                                   ++              oo           ",
"                         ++++  ++++                             ",
"                         ++++  ++++                             ",
"                       ++++  ++++    ++                         ",
"                       ++++  ++++    ++                         ",
"                       ++    ++    ++                           ",
"                       ++    ++    ++                           ",
"                                 ++++                           ",
"                                 ++++                           ",
"                                 ++                             ",
"                                 ++                             ",
"                                                       OOOOOO   ",
"                                                       OOOOOO   ",
"               ....                              OO    OOOO     ",
"               ....                              OO    OOOO     ",
"             ....                                OOOO  OOXXXX   ",
"             ....                                OOOO  OOXXXX   ",
"     OOOO    ..XXXX                              OOOO           ",
"     OOOO    ..XXXX                              OOOO           ",
"       OOOO                                    XXXXOO           ",
"       OOOO                                    XXXXOO           ",
"     XXXXOO                                                     ",
"     XXXXOO                                                     ",
"                                                                ",
"                                                                ",
"                                                                ",
"                                                                "
};
