/* XPM */
static char *result[] = {
/* columns rows colors chars-per-pixel */
"64 64 16 1 ",
"  c #4EBCB9",
". c #42ACAF",
"X c #349AA4",
"o c #4BD3CF",
"O c #805A42",
"+ c #B78356",
"@ c #C9AD77",
"# c #D4D69A",
"$ c #83A448",
"% c #D9D48C",
"& c #A5734D",
"* c #CEA272",
"= c #CFBF82",
"- c #8BAC50",
"; c #91AF55",
": c white",
/* pixels */
"    ....XXXXooooXXXXXXXXOOOO++++@@@@++++########$$$$$$$$$$$$$$$$",
"    ....XXXXooooXXXXXXXXOOOO++++@@@@++++########$$$$$$$$$$$$$$$$",
"    ....XXXXooooXXXXOOOO++++++++++++++++%%%%$$$$$$$$$$$$$$$$$$$$",
"    ....XXXXooooXXXXOOOO++++++++++++++++%%%%$$$$$$$$$$$$$$$$$$$$",
"    ....XXXXooooXXXXOOOO++++++++++++++++%%%%$$$$$$$$$$$$$$$$$$$$",
"    ....XXXXooooXXXXOOOO++++++++++++++++%%%%$$$$$$$$$$$$$$$$$$$$",
"    ....XXXXooooXXXX&&&&++++@@@@++++****====$$$$$$$$$$$$$$$$$$$$",
"    ....XXXXooooXXXX&&&&++++@@@@++++****====$$$$$$$$$$$$$$$$$$$$",
"    ....XXXXooooXXXX&&&&++++@@@@++++****====$$$$$$$$$$$$$$$$$$$$",
"    ....XXXXooooXXXX&&&&++++@@@@++++****====$$$$$$$$$$$$$$$$$$$$",
"    ....XXXXooooXXXX&&&&++++@@@@@@@@====****========$$$$$$$$$$$$",
"    ....XXXXooooXXXX&&&&++++@@@@@@@@====****========$$$$$$$$$$$$",
"    ....XXXXooooXXXX&&&&++++@@@@@@@@====****========$$$$$$$$$$$$",
"    ....XXXXooooXXXX&&&&++++@@@@@@@@====****========$$$$$$$$$$$$",
"    ....XXXXooooXXXXOOOO&&&&++++%%%%====@@@@====$$$$$$$$$$$$$$$$",
"    ....XXXXooooXXXXOOOO&&&&++++%%%%====@@@@====$$$$$$$$$$$$$$$$",
"    ....XXXXooooXXXXOOOO&&&&++++%%%%====@@@@====$$$$$$$$$$$$$$$$",
"    ....XXXXooooXXXXOOOO&&&&++++%%%%====@@@@====$$$$$$$$$$$$$$$$",
"........XXXXooooXXXXOOOO&&&&++++%%%%%%%%@@@@%%%%$$$$$$$$$$$$$$$$",
"........XXXXooooXXXXOOOO&&&&++++%%%%%%%%@@@@%%%%$$$$$$$$$$$$$$$$",
"........XXXXooooXXXXOOOO&&&&++++%%%%%%%%@@@@%%%%$$$$$$$$$$$$$$$$",
"........XXXXooooXXXXOOOO&&&&++++%%%%%%%%@@@@%%%%$$$$$$$$$$$$$$$$",
"....XXXXooooXXXX&&&&&&&&++++@@@@====%%%%@@@@%%%%$$$$$$$$$$$$$$$$",
"....XXXXooooXXXX&&&&&&&&++++@@@@====%%%%@@@@%%%%$$$$$$$$$$$$$$$$",
"....XXXXooooXXXX&&&&&&&&++++@@@@====%%%%@@@@%%%%$$$$$$$$--$$$$$$",
"....XXXXooooXXXX&&&&&&&&++++@@@@====%%%%@@@@%%%%$$$$$$$$--$$$$$$",
"....XXXXooooXXXXOOOO++++====@@@@****====####%%%%--$$----$$$$$$$$",
"....XXXXooooXXXXOOOO++++====@@@@****====####%%%%--$$----$$$$$$$$",
"....XXXXooooXXXXOOOO++++====@@@@****====####%%%%$$----$$$$--$$$$",
"....XXXXooooXXXXOOOO++++====@@@@****====####%%%%$$----$$$$--$$$$",
"....XXXXooooXXXXOOOO++++========++++====########$$--$$$$--$$$$$$",
"....XXXXooooXXXXOOOO++++========++++====########$$--$$$$--$$$$$$",
"....XXXXooooXXXXOOOO++++========++++====########$$$$$$----$$$$$$",
"....XXXXooooXXXXOOOO++++========++++====########$$$$$$----$$$$$$",
"....XXXXooooXXXXOOOO@@@@========++++@@@@########$$$$$$--$$$$$$$$",
"....XXXXooooXXXXOOOO@@@@========++++@@@@########$$$$$$--$$$$$$$$",
"....XXXXooooXXXXOOOO@@@@========++++@@@@########$$$$$$$$$$$$$$$$",
"....XXXXooooXXXXOOOO@@@@========++++@@@@########$$$$$$$$$$$$$$$$",
"....XXXXXXXXoooo&&&&@@@@@@@@====++++++++%%%%####$$$$$$$$$$$$$$$$",
"....XXXXXXXXoooo&&&&@@@@@@@@====++++++++%%%%####$$$$$$$$$$$$$$$$",
"....XXXXXXXXoooo&&&&@@@@@@@@====++++++++%%%%####;;$$$$$$$$$$$$$$",
"....XXXXXXXXoooo&&&&@@@@@@@@====++++++++%%%%####;;$$$$$$$$$$$$$$",
"........XXXXoooo&&&&++++++++@@@@++++++++====$$;;;;$$$$$$$$$$$$$$",
"........XXXXoooo&&&&++++++++@@@@++++++++====$$;;;;$$$$$$$$$$$$$$",
"........XXXXoooo&&&&++++++++@@@@++++++++====$$;;;;$$$$$$$$$$$$$$",
"........XXXXoooo&&&&++++++++@@@@++++++++====$$;;;;$$$$$$$$$$$$$$",
"    ....XXXXoooo&&&&++++++++++++++++@@@@@@@@====----$$$$$$$$$$$$",
"    ....XXXXoooo&&&&++++++++++++++++@@@@@@@@====----$$$$$$$$$$$$",
"    ....XXXXoooo&&&&++++++++++++++++@@@@@@@@====$$$$$$$$$$$$$$$$",
"    ....XXXXoooo&&&&++++++++++++++++@@@@@@@@====$$$$$$$$$$$$$$$$",
"    ....XXXXoooo&&&&++++++++&&&&++++====@@@@====;;;;;;$$$$$$$$$$",
"    ....XXXXoooo&&&&++++++++&&&&++++====@@@@====;;;;;;$$$$$$$$$$",
"    ....XXXXoooo&&&&++++++++&&&&++++====@@@@====--;;;;;;$$$$$$$$",
"    ....XXXXoooo&&&&++++++++&&&&++++====@@@@====--;;;;;;$$$$$$$$",
"    ....XXXXooooXXXX&&&&OOOO++++@@@@====****====$$----$$$$$$$$$$",
"    ....XXXXooooXXXX&&&&OOOO++++@@@@====****====$$----$$$$$$$$$$",
"    ....XXXXooooXXXX&&&&OOOO++++@@@@====****====$$$$$$$$$$$$$$$$",
"    ....XXXXooooXXXX&&&&OOOO++++@@@@====****====$$$$$$$$$$$$$$$$",
"    ....XXXXooooXXXXXXXXOOOO++++============$$$$$$$$$$$$$$$$$$$$",
"    ....XXXXooooXXXXXXXXOOOO++++============$$$$$$$$$$$$$$$$$$$$",
"    ....XXXXooooXXXXXXXXOOOO++++============$$$$$$$$$$$$$$$$$$$$",
"    ....XXXXooooXXXXXXXXOOOO++++============$$$$$$$$$$$$$$$$$$$$",
"    ....XXXXooooXXXXXXXX&&&&@@@@============$$$$####$$$$$$$$$$$$",
"    ....XXXXooooXXXXXXXX&&&&@@@@============$$$$####$$$$$$$$$$$$"
};
