/* XPM */
static char *result[] = {
/* columns rows colors chars-per-pixel */
"64 64 73 1 ",
"  c #4F2913",
". c #512C15",
"X c #532F19",
"o c #55321C",
"O c #59351E",
"+ c #573720",
"@ c #5A3721",
"# c #5C3B24",
"$ c #5B3D29",
"% c #603E27",
"& c #603F29",
"* c #5F402A",
"= c #554434",
"- c #5E4633",
"; c #5E4836",
": c #574A3C",
"> c #594B3D",
", c #63422C",
"< c #634632",
"1 c #664C36",
"2 c #684D37",
"3 c #624F3C",
"4 c #694E3A",
"5 c #63533F",
"6 c #69513C",
"7 c #5B4F42",
"8 c #5C5042",
"9 c #5F564A",
"0 c #615344",
"q c #6C5440",
"w c #625749",
"e c #655A4C",
"r c #695D4E",
"t c #705D45",
"y c #725D4A",
"u c #655D52",
"i c #6A5F51",
"p c #6B6255",
"a c #6C655A",
"s c #6F695E",
"d c #726555",
"f c #716B5E",
"g c #7A6E5E",
"h c #6D6760",
"j c #746E62",
"k c #7B6F61",
"l c #767164",
"z c #7A7364",
"x c #767168",
"c c #7A766B",
"v c #7E796C",
"b c #6D7271",
"n c #807562",
"m c #837D6E",
"M c #827E71",
"N c #83883C",
"B c #83A448",
"V c #8BAC50",
"C c #91AF55",
"Z c #858274",
"A c #898476",
"S c #878478",
"D c #898679",
"F c #8C897C",
"G c #908D7E",
"H c #CDBE7A",
"J c #8F8C80",
"K c #918E83",
"L c #949185",
"P c #969489",
"I c #99968B",
"U c #9B998D",
"Y c #D5C78E",
/* pixels */
"BBBBBBBBBBBBBBBBBBBBBBBBBBBBBBBBBBBBBBBBBBBBBBBBBBBBBBBBBBBBBBBB",
"BBBBBBBBBBBBBBBBBBBBBBBBBBBBBBBBBBBBBBBBBBBBBBBBBBBBBBBBBBBBBBBB",
"BBBBBBBVVBBBBBBBBBBBBBBBBBBBBBBBBBBBBBBBBBBBBBBBBBBBBBBBBBBBBBBB",
"BBBBBBBVVBBBBBBBBBBBBBBBBBBBBBBBBBBBBBBBBBBBBBBBBBBBBBBBBBBBBBBB",
"BBbBBbBVVBbBBBBVVBBBBVVBBBBBBBBBBBBBBBBBBBBBBBBBbbbBbBbBbbBbbbBB",
"BbbBbbBVbBbBBBBVVBBBBVVBBBBBBBBBBBBBBBBBBBBBBBBBYYYBYYYYYYYYYbBB",
"BYYBYYBYYVYBBBBVVBBVVVVBBBBBBBBBBBBBBBBBBBBBBBBBYYYYYYYYYYYYYYBB",
"BYYYYYYYYYYBBBBVVBBVVVVBBBBBBBBBBBBBBBBBBBBBBbBbYYYYYYYYYYYYYYBB",
"BYYYYYYYYYYbBVVBBBBVVBBBBBBBBBBBBBBBBBBBBBBBBbbbYYYYYYYYYYYYYYBB",
"BYYYYYYYYYYbBVVBBBBVVBBBBBBBBBBBBBBBBBBBBBBBBYYYYYYYYYYYYYYYYYBB",
"BYYYYYYYYYYYBVVBBVVVVBBBBBBBBBBBBBBBBBBBBBBBBYYYYYYYYYYYYYYYYYBB",
"BBYYYYYYYYYYBVVBBVVVVBBBBBBBBBBBBBBBBBBBBBBBBYYYYYYYYYYYYYYYYYBB",
"BBYYYYYYYYYYBVVBBVVBBBBBBBBBBBBBBBBBBBBBBBBBBYYYYYYYYYYYYYYYYYBB",
"BBYYYYYYYYYYBVVBBVV%++%BBBBBBBBBBBBBBBBBBBBBBYYYYYYYYYYYYYYYYBBB",
"BBYYYYYYYYYYBBBB,,*znzn+BBBBBBBBBBBBBBBBBBBBBYYYYYYYYYYYYYYYYBBB",
"BBYYYYYYYYYYBB,,vvvvvnngOBBBBBBBBBBBBBBBBBBbBYYYYYYYYYYYYYYYYBBB",
"BBYYYYYYCbBbB<mnvvvvvZmZ+BBB%%%%#YYYYYYYbBbbBbBbC,,,BBBBBBBBBBBB",
"BBBBBCCCCbBb<MmAvvvmZmKF+%%%FAGAL#HHHHHHYBYYBY$**mmm,BBBBBBBBBBB",
"BBBBBCCCCYY<MMMMmmZZLLff+ddDAAGGGP#YYYYYYYYYY$MZvvmvM-BBBBBBBBBB",
"BBBBBCCCCY&nMAAMMZAPfdff+ddDFFAGGP#YYYYYYYYYY#JZZZvmZZ*BBbbBBBBB",
"BBBBBCCNN&nnMMMMDSPufdgf+dDDFFFGGP#YYYYYYYYYY#lJZZvZZZS=BbbbBBBB",
"BBBBBCCN%ckMMMJJSPppppff+dDFFFGUPU#YYYYYYYYYY#clKZZZZZSZ,YYYbBBB",
"BBBBBBBB%kMDFFFMPerpppfd+DGGGGlljjOYYYYYYYYYY#clxKZZZSSSA,YYBBBB",
"BBBBBBB#DDJDDDMIeurrppOOGLpippdpjjOYYYYYYYYYY+cclxKSMSSSAA*YBbBB",
"BBBBBBB#DDSDMJMIureurO-weuuuppppdx@YYYYYYYYY+#llxfsPSSSJGLL*YbBB",
"BBBBBB#DDDDSJMUweur@#q;wwpuruippajoYYYYYYYY#vM#llsffPJJpppu*YYbB",
"BBBBBB@JKJJJKKP70r@00w;wwrriiurtpjoYYYYYYYY+hhc#lsfpSappppp*YYbB",
"BBBBBB@2yyy12%000%00uu-9wwuuii#O#jOYYYYYYYY#hssc*sppS+O**O**YYYB",
"BBBBB#Kmmmmmm&70@0uuei-wwwwiuoZZM%%&YYYYYYY+hshc+ppp*MMcccFoYYYB",
"BBBBBOKAZMMMmm%0#6ieuu#www9eoZnZMDMM%#BYYYYoshhpt*a+MMvvvcFoYYYB",
"BBBBB@fKZSMAMm%0@0iiuuOOOOooZmZZMMAADD&BBBBOsspupt+*MvvccDwoYYYB",
"BBBBB%jKSMSMMMM%07uueoVBBBoMZZZZMFADJJP%BBBB$spppet#ccvvcSwoBBBB",
"BBBBY@jKFMMMMDMO708roBBVVXKFZAAAFFFJFFP%BBBBBXippee#vvMMMSeXBBBB",
"BYYYY@jxPMJMDMMm@80oBBBVV.ppJFFAFFFFFPe&BBBBBB.pri#nnmMvvFeXBBBB",
"BYYYY#jiKMMJJMMM#7oYYYYYYXruppaPPLFFFPeXBBBYYYYorr#nnMmmF99XBBBB",
"BYYYY@kadIFJMJMMA&YYYYYYYopppaaadsPPPwe.YYYYYYYYor*nMMMZS99+BBBB",
"BYYYY%jaaPMKFFMMP%YYYYYYYYoopdadshhnwe.YYYYYYYYYXXXXmmmmD85XBBBB",
"BbYYYYOpjhPFFFIPi#$YYYYYYYYYOooafhjxew.YYYYYYYY*AAAZX+DG589+BBBB",
"BbYYYYOsjhkPPPdd2MM,YYYYYYYYYYBoookmwoCYYYYYY<3MmmDZZZ++:5.BBBBB",
"BBbYBYY%hhamddd&DMMM#,YYYYYYYYBBBBO%OVVYYYYY1mMMmmDZZG5+::.BBBBB",
"BBbBYY@@jhsMdd#SDDAMMD&,YYYYYYBBBBBVVBBYYY22ZZZDAZZDG98+::.BBBBB",
"BBBBY@hMosjmd%KDDDDDFASF,Y,&#YBBBBBVV%%%Y4DJDZZZZZZG558+::.BBBBB",
"BBBbY$ihv+fMd%gGKFFAASFFF6DAA##@O%%%%knn&FFDFAAAZGA5895X:oBBBBBB",
"BBBBb$iasv#c0%gfkPPSJFFFD4DAAZZMmmmnndnA2FDFFAAFD999858.+>.BBBBB",
"BBBBB$hiajZ#w*gfgjjLFFFF4DDAZZZvMMmMMFGmM6FFDGGrr955958+::.BBBBB",
"BBBBB$aaffjZ*#fgzgzzPPJFqFDAZmZZMMFMGMMmAA2LPiirr595ruX88:.BBBBB",
"BBBBB$ihfjjjA#glglxzjjL<UPPLLmZmMMFFMMIKIP2ziiiii59eu.888:.BBBBB",
"BBBBB$iafsjlFF#gllkzjkM<MfffsLKLKKKKLGnsdx6jyiiywwwr 8888:.BBBBB",
"BBBYYY-hahjjkFF@jzjzjjM,csaffjsfffssssssfl3drreewww :988:: BBBBB",
"BBBYYY$iaajjxxFJ@&jzzjv#xsssfhshfffllssapf2drte95e =::88:XBBBBBB",
"BBBYYYY#aakjjxc#0w<jgjl@xfassfhjffsssaaups-pr999  =:::88XBBBBBBB",
"BBYYYYYY#aajjjc$000$jgxoxasasasasfsssapapsOpr   ===:::88XBBBBBBB",
"BBYYYYYYY+shxxc$00s0oX@ xasaaaassssuupppps   888 =:>:5:.BBVVBBBB",
"BBYYYYYYYY jjjc+0sss0000. XXassassu9eeooX 9998:8 =:::>.VBBVVBBBB",
"BBYYYYYYYYY jxc$0asshauw0000oXoooo+Xoo>5>5999888 =:::.VVBBVVBBBB",
"BBYYYYYYYYYY hco0asaaaaauuu000X05:5555u9uu999887 ==..VVVBBVVBBBB",
"BBYYYYYYYYYYY   0uhihihuiiuuu9=hppuuuuuuuu999777   BVVBBVVVVBBBB",
"BBYYYYYYYYYYYYYY   hihiiiuuu99:huauuuu9u9u999777 VBBVVBBVVVVBBBB",
"BBbYYYYYYYYYBYYYBBB   uuuuuuu9:hhaahuuuu9u9997  VVBBVVBBVVBBBBBB",
"BBbbbBbbBbBbBbbbBBBBBBX  Xw9uu buhuubu9uu9    BBVVBBVVBBVVBBBBBB",
"BBBBBBBBBBBBBBBBBBBBBBBBBB o=  buubu9     BBBBBVVVBBBBBBVVBBBBBB",
"BBBBBBBBBBBBBBBBBBBBBBBBBBBBBBB      BBBBBBBBBBVVVBBBBBBVVBBBBBB",
"BBBBBBBBBBBBBBBBBBBBBBBBBBBBBBBBBBBBBBBBBBBBBBBBBBBBBBBBBBBBBBBB",
"BBBBBBBBBBBBBBBBBBBBBBBBBBBBBBBBBBBBBBBBBBBBBBBBBBBBBBBBBBBBBBBB"
};
