/* XPM */
static char *result[] = {
/* columns rows colors chars-per-pixel */
"64 64 54 1 ",
"  c #4F2A13",
". c #512F19",
"X c #4F311A",
"o c #54321C",
"O c #553720",
"+ c #553923",
"@ c #5A3C25",
"# c #5C422C",
"$ c #5F4632",
"% c #5D4935",
"& c #534A3D",
"* c #5F4C38",
"= c #604732",
"- c #604E3A",
"; c #5F5648",
": c #615749",
"> c #635A4B",
", c #685E4E",
"< c #665E50",
"1 c #695F50",
"2 c #676051",
"3 c #6B6354",
"4 c #6E6857",
"5 c #6E6758",
"6 c #6F6958",
"7 c #746E5E",
"8 c #75705F",
"9 c #766F60",
"0 c #767060",
"q c #7B7464",
"w c #7C7866",
"e c #7D7668",
"r c #6D7271",
"t c #817C6E",
"y c #837E70",
"u c #83883C",
"i c #83A448",
"p c #8BAC50",
"a c #91AF55",
"s c #84806F",
"d c #868271",
"f c #898576",
"g c #8D8877",
"h c #8B8778",
"j c #8D8979",
"k c #928D7D",
"l c #CDBE7A",
"z c #8F8C80",
"x c #918E82",
"c c #959184",
"v c #96948A",
"b c #9A968E",
"n c #9B988F",
"m c #D5C78E",
/* pixels */
"iiiiiiiiiiiiiiiiiiiiiiiiiiiiiiiiiiiiiiiiiiiiiiiiiiiiiiiiiiiiiiii",
"iiiiiiiiiiiiiiiiiiiiiiiiiiiiiiiiiiiiiiiiiiiiiiiiiiiiiiiiiiiiiiii",
"iiiiiippiiiiiipppiiiiiiiiiiiiiiiiiiiiiiiiiiiiiiiiiiiiiiiiiiiiiii",
"iiiiiippiiiiiipppiiiiiiiiiiiiiiiiiiiiiiiiiiiiiiiiiiiiiiiiiiiiiii",
"iiiiiippiippiipppiiiiiimmimmimimmimiiiiiiiiiiiiirrriririrrirrrii",
"iiiiiippiippiipppiiiiiimmmmmimmmmmmimimiiiiiiiiimmmimmmmmmmmmrii",
"iiiippppiippiipppppiiiimmmmmmmmmmmmmmmmiiiiiiiiimmmmmmmmmmmmmmii",
"iiiippppiippiipppppiiiimmmmmmmmmmmmmmmmmiiiiirirmmmmmmmmmmmmmmii",
"iiiippiippppiipppppiiiimmmmmmmmmmmmmmmmmuiiiirrrmmmmmmmmmmmmmmii",
"iiiippiippppiipppppiiiimmmmmmmmmmmmmmmmmuiiiimmmmmmmmmmmmmmmmmii",
"iiiippiippiiiiiiippiiiimmmmmmmmmmmmmmmmmauuiimmmmmmmmmmmmmmmmmii",
"iiiippiippiiiiiiippiiiimmmmmmmmmmmmmmmmmauuiimmmmmmmmmmmmmmmmmii",
"iiiiiiiippiiiiiiippiiiimmmmmmmmmmmmmmmmmaaaiimmmmmmmmmmmmmmmmmii",
"iiiiiiiippiiiiiiippiiiimmmmmmmmmmmmmmmmmaaaiimmmmmmmmmmmmmmmmiii",
"iiiiiiiippiiiiiiiiiiiiimmmmmmmmmmmmmmmmmiiiiimmmmmmmmmmmmmmmmiii",
"iiiiiiiippiiiiiiiiiiiirmmmmmm$$$$$$$=mmmriirimmmmmmmmmmmmmmmmiii",
"iiiiiiiiiririirrir===========ytteyeyy=mmrirririeiiiiiiiiiiiiiiii",
"iiiiiiiiiririrrmi=787yyyyyyyyytteeyeey=lmimmimimiiiiiiiiiiiiiiii",
"iiiiiiiiimmmimmm#7777yyyyyyyytttfreyt11=mmmmmmmmiiiiiiiiiiiiiiii",
"iiiiiiiiimmmmmm#8877yyytyyyyttttyyy1<53=mmmmmmmmiiiiiiiiirriiiii",
"iiiiiiiiimmmmm#8777yyyjjjyyyttyty:::1551=mmmmmmmiiiiiiiiirrriiii",
"iiiiiiiiimmmm#78779yyjjjjjyfyttty::::315=mmmmmmmiiiiririimmmriii",
"iiiiiiiiimmmm#78777yyggjjjjfyftty;:::1553=mmmmmmirririmmimmmiiii",
"iiiiiiiiimmmm#777997cjjjjjjkyftteeeeqt333=====miirrimimmmmmmirii",
"iiiiiiiiimmm#78798899ccvchhhjhjgheeeeeeetttttt@uimmimmmmmmmimrii",
"iiiiiiiiimm#sw78899933313chxjhgjhheeeeeq5t,tt,t@immmmmmmmmmmmmri",
"iiiiiiiiim#twsts7793313333xkkhhjkjjheeeettttt,t,==##=mmmmmmmmmri",
"iiiiiiiii#ttstttyx3333139q9ccjjjhhkhjqte5ttttttt9tt9t=mmmmmmmmmi",
"iiiiiiiii#stttttkxhhhhhh9qq0qxkhjjggjffdytttgyyyyyyttt#mmmmmmmmi",
"iiiiiiii#ttttstxkghhhhhhh99q0qcxjgkkjfffggyyygygjygjyt9#mmmmmmmi",
"iiiiiii#stststkxxfjhhhhhhjhqqqq9kjgjjfffgyyggkgjggjjyzqq$mmmmmmi",
"iiiiii#988844kkxxffhhhhhjhjhffffkjkkkkkfyggykgjggkyjzy<11#mmiiii",
"iiiimm#q03555zzzhhhhhhhhhjjhffgkkkkkkkkkkgfkjjggjggggg2<<#iiiiii",
"immmmm#054566zzjhhhhhhhhhjjffgjkkkkkkkkkkkjjkjjjgjgjk1<<<#iiiiii",
"immmmm#0546679xjhhhhhhhhfffffjkjkkkkkkkkkkjkjjjjjgkk>>22,,#iiiii",
"immmmm%%%467666zhhhhhhhfffffhkkkkkkkkkkkkkkjkkkjjgj,>;;2<<>@iiii",
"immmm%fff%667579zjjhzzezfffffcjkkkkkkkkkkkkkjkkjkc,-,>:;&&&+iiii",
"irmm#fddff%757570zzzxxxxfffffckkkkkkkkkkkkkkkkknn,,,>>:;&&&+iiii",
"irm+hffffff*75757>>>;<;>xxfffcckckkckkkkknnnbck,,:,,::::&&&+iiii",
"iir@6xffdfff*779;;>>>>>;<2vvvccckkkkkcccn88877t-,,,-:::%&&&Xiiii",
"iir@70vfyzezf&9>>><;;<;;33444cvckkkkcckn887777,,,,,>>;:&&&Xiiiii",
"iii+070zvyzefy$;<;;;>;<32323498vncbcccb8888788@@o@@@>>,&& iiiiii",
"iii+99443vzzzzzO;;;;<32<243337708ddddd1311777@t4w332@>>& aaiiiii",
"iiiO94343555;>;o&;;2<2<<2334397788ddd3111317@8ut88323@>oupaiiiii",
"iiiiO4335<5><;>O&;2<<22223337779887s,,1131,@ttt4ww842&Xaaaaiiiii",
"iiiiiXXX55;>;>;X&;2<22<3<3439777888y,,113@@t6tt4w8882&Opaaaiiiii",
"iiiiiiiio5>>;>Xa ;<<<3<231666677777,,111@dydtttt8wwd&&oaaaaiiiii",
"iiiiiiiiiooXXOaarXO2222216666667777,,,1@yddyssttwwd-;&oammmmmmii",
"iiimmmmmmmmmmmmmmmmoo332366666667971,,@xssdddsssdk>&&;ommmmmmmii",
"iiimmmmmmmmmmmmmmmmiioo..456356655>1>@xzsstdsssdj>><&&& mmmmmmii",
"iiimmmmmmmmmmmmmmmmiiiiiio.oo353331>,@77zzzxhhgc>;>;>&&Xmmmmmmii",
"iimmmmmmmmmmmmmmmmmiiiiiiiiiioooo3>1>@777990zjc>>>>>>&&Xmmmmmmii",
"iimmmmmmmmmmmmmmmmmiiiiiiiiiiiiiioooo@7777776c>>>>;>;oXmmmmmmmii",
"iimmmmmmmmmmmmmmmmmiiiiiiiiiiiiiiiiii+7777864::>>;;  mmmmmmmmmmi",
"iimmmmmmmmmmmmmmmmmiiiiiiiiiiiiiiiiii 9696466::;;  irmmmmmmmmmmi",
"iimmmmmmmmmmmmmmrrriiiiiiiiiiiiiiiiiii 777446;> Xppirmmmmmmmmmmi",
"iimmmmmmmmmmmmmmririiiiiiiiiiiiiiiiiiii.       ppiiiimmmmmmmmmmi",
"iimmmmmmmmmmmmmmiiiiiiiiiiiiiiiiiiiiiiiiippppiippiiiimpmmimmimmi",
"iirmmmmmmmmmimmmiiiiiiiiiiiiiiiiiiiiiiiiippiiiippiiiirirpirrirri",
"iirrrirriririrrriiiiiiiiiiiiiiiiiiiiiiiiippiiiippiiiirippiriirii",
"iiiiiiiiiiiiiiiiiiiiiiiiiiiiiiiiiiiiiiiiiiiiiiiiiiiiiiippiiiiiii",
"iiiiiiiiiiiiiiiiiiiiiiiiiiiiiiiiiiiiiiiiiiiiiiiiiiiiiiippiiiiiii",
"iiiiiiiiiiiiiiiiiiiiiiiiiiiiiiiiiiiiiiiiiiiiiiiiiiiiiiiiiiiiiiii",
"iiiiiiiiiiiiiiiiiiiiiiiiiiiiiiiiiiiiiiiiiiiiiiiiiiiiiiiiiiiiiiii"
};
