/* XPM */
static char *result[] = {
/* columns rows colors chars-per-pixel */
"64 64 62 1 ",
"  c #4F2913",
". c #522B14",
"X c #54321E",
"o c #59331C",
"O c #553521",
"+ c #553826",
"@ c #5D3A23",
"# c #563B2A",
"$ c #593D2C",
"% c #603F27",
"& c #564535",
"* c #5A4232",
"= c #574837",
"- c #574839",
"; c #5A4A3B",
": c #63432D",
"> c #654630",
", c #6B533F",
"< c #5B4E40",
"1 c #5E5144",
"2 c #5F574B",
"3 c #605447",
"4 c #6D5745",
"5 c #655847",
"6 c #6F5946",
"7 c #60564A",
"8 c #655A4B",
"9 c #685E4E",
"0 c #635B51",
"q c #695F50",
"w c #676056",
"e c #696154",
"r c #676159",
"t c #6A645B",
"y c #6E685F",
"u c #7D735D",
"i c #6C6760",
"p c #6E6961",
"a c #726E63",
"s c #757165",
"d c #7D7867",
"f c #767169",
"g c #79766B",
"h c #7D7A6D",
"j c #6D7271",
"k c #7E7C70",
"l c #80755F",
"z c #817E72",
"x c #83883C",
"c c #83A448",
"v c #8BAC50",
"b c #91AF55",
"n c #848174",
"m c #85837A",
"M c #89877D",
"N c #8C8A7D",
"B c #8E8B81",
"V c #918E84",
"C c #929087",
"Z c #949289",
"A c #9A968D",
"S c #D5C78E",
/* pixels */
"cccccccccccccccccccccccccccccccccccccccccccccccccccccccccccccccc",
"cccccccccccccccccccccccccccccccccccccccccccccccccccccccccccccccc",
"cccccccccccccccccccccccccccccccccccccccccccccccccccccccvvccccccc",
"cccccccccccccccccccccccccccccccccccccccccccccccccccccccvvccccccc",
"ccjjjcjjcjcjcjjjcccccccccccccccccccccccccvvccccvvccccjcvvcjccjcc",
"ccjSSSSSSSSScSSScccccccccccccccvcccccccccvvccccvvccccjcjvcjjcjjc",
"ccSSSSSSSSSSSSSSccc:>>>>>>>>>>>>>>>>cccccvvvvccvvccccSvSScSScSSc",
"ccSSSSSSSSSSSSSSj%%zzzzzzzmzzmzzzzzz>%cccvvvvccvvccccSSSSSSSSSSc",
"ccSSSSSSSSSSSSSSj:@,66666NNNNNNNVBNBNN>ccccvvccccvvcjSSSSSSSSSSc",
"ccSSSSSSSSSSSSSS>ddddddhd@@1teetttttty%ccccvvccccvvcjSSSSSSSSSSc",
"ccSSSSSSSSSSSSSS>dhhhhhsdoo1eetteyttyeoccccvvvvccvvcSSSSSSSSSSSc",
"ccSSSSSSSSSSSSSS>hhhhhhhhoo1eewwyeytty.ccccvvvvccvvcSSSSSSSSSScc",
"ccSSSSSSSSSSSSSS:hhhdhhhhoo;wwwwqetttt.:>>>>>vvccvvcSSSSSSSSSScc",
"cccSSSSSSSSSSSSS:zzlkkhhhXo;110eeetttt.zzlkhh>vccvvcSSSSSSSSSScc",
"cccSSSSSSSSSSSSS:hdnkdhddXo;1;9eqqqqte.zhzdhh>vcccccSSSSSSSSSScc",
"cccSSSSSSSSSSSSS:hhhhhhdhXX.    .......NMMNNN>vcccccSSSSSSSSSScc",
"ccccccccccccbbbb@NNNMNNmM  -;1227728w0wweeter.jcjjccjcjbSSSSSScc",
"ccccccccccccbbbb@gdaayyty  -;--22288qqwreewerXScSjjcjcjbbbbccccc",
"ccccccccccccccbbXggayyttt  ;-;=0078088qrrwwww.SSSSScSSSbbbbccccc",
"cccccjjcccccccbb fsyyyyyy  &;==2080028q0wwwww.SSSSSSSSSbbbbccccc",
"ccccjjjcccccxxxx ssytyttt  &&&&27078088we0wwr.SSSSSSSSSxxbbccccc",
"cccjSSSccjcjxxxx ssyytyyt         22qw00qqw00.SSSSSSSSSxxbbccccc",
"ccccSSScSScjcjjc sjtyttyy&&555ssaa  00000q000.SSSSSSSSSccccccccc",
"ccjcSSSSSScScjjc sstytytt$&5sspjsf  ****&$*&$SSSSSSSSSSccccccccc",
"ccjScSSSSSSScSSccXXXXXXOXzzmmkmmmm  222222  SSSSSSSSSSSccccccccc",
"cjSSSSSSSSSSSSSc ssaijpss20002008y  22222222 SSSSSSSSSSccccccccc",
"cjSSSSSSSSSSSSSc 0200000022020000y  222222222 SSSSSSSSSccccccccc",
"cSSSSSSSSSSSSScc 2000020002020208y  222222202 SSSSSSSSSccccccccc",
"cSSSSSSSSSSSSScc 2020002000200000y  &*&$&$&*$SSSSSSSSSSccccccccc",
"cSSSSSSSSSSSSccc 0200022022002008y  890gggfff SSSSSSSSSccccccccc",
"cSSSSSSSSSSSSccc 0000000020022<1<a  8q8gfgggg cccSSSSSSScccccccc",
"ccccSSSSSSSScccc 000002222112<111t  q8gggggfg ccccccSSSSSScccccc",
"ccccccSSSSSScccccOO+OO#$$$##$$OOOOlhzzdzzzzzz ccccccSSSSSSSScccc",
"ccccccccS>:*:>::.fffjgg$#$$gjggggfrrqr0qt0000        . SSSSSSSSc",
"ccccccc:Ngggfggg.t0tqtq$$i0ipt0irrrtrrrrrrrrq 855555555 SSSSSSSc",
"ccccccc:Nggggggg tttiqi$$riqiqtttrrretrrtrrtt 855555555 SSSSSSSc",
"ccccccc>Nhgghggh.ttqttq--0i0ttqtwtwtrwtwrtqrq 574785495 SSSSSSSc",
"ccccccc>Mgkgfhhf.tqitqi$*itiqtiqtwtrtrtrrrrrq.898858585 SSSSSSjc",
"ccccccc*Nghghhhh.iiqiii$*qtqtrttwttetwwwtrtri 844885959 SSSSSSjc",
"ccccccc>Bkkkhhgg.qiiqtt-*iqiqtrrtewtwtwtrqrrr 99qq99999 SSScSjcc",
"ccccccc>NzzlzzgzkOOOoXO$****=>;;><####OXOOXXX999q0qq0mm SSSScjcc",
"ccccccc>Nzzzhhzg.fffffffffffffffffffff$trtitt.qqqqqq0mm cSSScccc",
"ccccccc:Nnzzzzzz.fafffapiiiippiiiiiiit*000000.eqwqqqfBm cSSSjccc",
"ccccccc:Nzzzzzzh.ffiiipiiiiiititriitii;000009.qeewgghzk cjjjcccc",
"ccccccc:Nzzzzzzzofjpiiiipptiipptiiiiii-000000.qeq9hghBz cjjccccc",
"ccccccc:Zznzzzzz.pppiiipypppwwrtiiirri&000000.ttezhghzB cccccccc",
"ccccccc@Nzznzzzz.pppiipppwrrrwwyiiiiiiO270000.qqwgkggBB cccccccc",
"cccccccoZzzzzzzzoppapiiqrrwrr0ww0iiiirO138000.qqekkkhMM cccccccc",
"ccccccc%Nnnnnnnnn.o..............  .         q0khhkkjBB SSSSSccc",
"ccccccc%NnnnnnnnzllllllllllluuuuuuuuuuuuuuuuskzkkkkhkBm SSSSSccc",
"cccccccoNnnnnnnnznzznzznnzzzzhzzzzkkzzzhzzzgzzkkkkkkkmB SSSSSccc",
"cccccccoZnNnnnnnmzmznnnnzzzzzzzzzhzhzhzzzgzgzzkkkkkkkBz SSSSSScc",
"ccccvvcoAAAAAAAAAZZAZZZZZZZZZZZVVCCCVCCVVCVVCCVCBCVZVZC SSSSSScc",
"ccccvvcomyyyyeyyyttyyypaauaaaaayyyppiitiqiqitrrrrrtrrkk SSSSSScc",
"ccccvvc.Ntyyyyeytyytyyaytyyaaaayyyyyiititiitrrtrrtpppzk SSSSSScc",
"ccccvvconyeueyeyyttytyppyyyyyyyyypyyiiititttirrqrtppazz SSSSSScc",
"ccccvvv.......o............ ....  . .                   SSSSSScc",
"ccccvvvvccvvccvvvvvccccSSSSSSSSSSSSSSSScccccccccSSSSSSSSSSSSSScc",
"ccccccvvccbvccvvvccccccSSSSScSSSSSScScScccccccccSSScSSSSSSSSSjcc",
"ccccccvvccvvccvvvccccccSScSScScSScScccccccccccccjjjcjcjcjjcjjjcc",
"ccccccvvccccccvvvccccccccccccccccccccccccccccccccccccccccccccccc",
"ccccccvvccccccvvvccccccccccccccccccccccccccccccccccccccccccccccc",
"cccccccccccccccccccccccccccccccccccccccccccccccccccccccccccccccc",
"cccccccccccccccccccccccccccccccccccccccccccccccccccccccccccccccc"
};
