/* XPM */
static char *result[] = {
/* columns rows colors chars-per-pixel */
"64 64 66 1 ",
"  c #4E2913",
". c #532C15",
"X c #522E19",
"o c #573016",
"O c #55321C",
"+ c #5A361F",
"@ c #573621",
"# c #593723",
"$ c #593A25",
"% c #543D2D",
"& c #5D3E29",
"* c #543F30",
"= c #57402F",
"- c #5E422E",
"; c #564232",
": c #5D4332",
"> c #56463A",
", c #57483B",
"< c #5B493C",
"1 c #61422D",
"2 c #624531",
"3 c #664934",
"4 c #684B36",
"5 c #634B3A",
"6 c #6B503D",
"7 c #5F594F",
"8 c #5F5950",
"9 c #655747",
"0 c #61574C",
"q c #63594C",
"w c #635C54",
"e c #6A6256",
"r c #676159",
"t c #6B645B",
"y c #6E685D",
"u c #70675C",
"i c #706A5E",
"p c #6E6960",
"a c #736C62",
"s c #777065",
"d c #787466",
"f c #777168",
"g c #7B766C",
"h c #7E796E",
"j c #6D7271",
"k c #817B6F",
"l c #827D72",
"z c #83883C",
"x c #83A448",
"c c #8BAC50",
"v c #91AF55",
"b c #838176",
"n c #868479",
"m c #89867A",
"M c #8B887D",
"N c #CDBE7A",
"B c #8E8C81",
"V c #918E84",
"C c #939187",
"Z c #95938A",
"A c #99968D",
"S c #9B988F",
"D c #999790",
"F c #9E9B94",
"G c #A19E96",
"H c #D5C78E",
/* pixels */
"xxxxxxxxxxxxxxxxxxxxxxxxxxxxxxxxxxxxxxxxxxxxxxxxxxxxxxxxxxxxxxxx",
"xxxxxxxxxxxxxxxxxxxxxxxxxxxxxxxxxxxxxxxxxxxxxxxxxxxxxxxxxxxxxxxx",
"xxxxxxxxxxxxxxxxxxxxxxxxxxxxxxxxxxxxxxxxxxxxxxxcccxxxxxxccxxxxxx",
"xxxxxxxxxxxxxxxxxxxxxxxxxxxxxxxxxxxxxxxxxxxxxxxcccxxxxxxccxxxxxx",
"xxjjjxjjxjxjxjjjxxxxxxxxxxxxxHxHHxHxHHxHHxxxxxxcccxxccxxccxxxxxx",
"xxjHHHHHHHHHxHHHxxxxxxxxxHxHxHHHHHHxHHHHHxxxxxxcccxxccxxccxxxxxx",
"xxHHHHHHHHHHHHHHxxxxxxxxxHHHHHHHHHHHHHHHHxxxxcccccxxccxxccccxxxx",
"xxHHHHHHHHHHHHHHjxjxxxxxHHHHHHHHHHHHHHHHHxxxxcccccxxccxxccccxxxx",
"xxHHHHHHHHHHHHHHjjjxxxxzHHHHHHHHHHHHHHHHHxxxxcccccxxccccxxccxxxx",
"xxHHHHHHHHHHHHHHHHHxxxxzHHHHHHHHHHHHHHHHHxxxxcccccxxccccxxccxxxx",
"xxHHHHHHHHHHHHHHHHHxxzzvHHHHHHHHHHHHHHHHHxxxxccxxxxxxxccxxccxxxx",
"xxHHHHHHHHHHHHHHHHHxxzzvHHHHHHHHHHHHHHHHHxxxxccxxxxxxxccxxccxxxx",
"xxHHHHHHHHHHHHHHHHHxxvvvHHHHHHHHHHHHHHHHHxxxxccxxxxxxxccxxxxxxxx",
"xxxHHHHHHHHHHHHHHHHxxvvvHHHHHHHHHHHHHHHHHxxxxccxxxxxxxccxxxxxxxx",
"xxxHHHHHHHHHHHHHHHHxxxxxHHHHHHHHHHHHHHHHHxxxxxxxxxxxxxccxxxxxxxx",
"xxxHHHHHHHHHHHHHHHHxjxxfHHHHHHHHHHHHHHHHHjxxxxxxxxxxxxccxxxxxxxx",
"xxxxxxxxxxxxxxxxjxjxjjxjHHHHH443&&&xxxxjjjxjxxjxjjxxjxjxxxxxxxxx",
"xxxxxxxxxxxxxxxxHxHxHHxHNNN44CCCMmm+#xxHHHxHxHHxHjjxjxjxxxxxxxxx",
"xxxxxxxxxxxxxxxxHHHHHHHHHH6SSCCCMmmlkoxHHHHHHHHHHHHxHHHxxxxxxxxx",
"xxxxxjjxxxxxxxxxHHHHHHHHH6SSSACCmMnklu#HHHHHHHHHHHHHHHHxxxxxxxxx",
"xxxxjjjxxxxxxxxxHHHHHHHH4MFSSCCCMmmkkuu1HHHHHHHHHHHHHHHxxxxxxxxx",
"xxxjHHHxxjxjxxxxHHHHH3334MSFSSGGAZZkkuu111#HHHHHHHHHHHHxxxxxxxxx",
"xxxxHHHxHHxjxjjxHHHH1VmMmMAGGkassaiMVuplBlB1HHHHHHHHHHHxxxxxxxxx",
"xxjxHHHHHHxHxjjxxHHH4VmmmMGkauakiiisalammmV2HHHHHHHHHHHxxxxxxxxx",
"xxjHxHHHHHHHxHHxxHHH4VnmmFassiaaiksiaakmmmV2HHHHHHHHHHHxxxxxxxxx",
"xjHHHHHHHHHHHHHxxHHH4VmmmsssaaaiuuiaisanmmV1HHHHHHHHHHHxxxxxxxxx",
"xjHHHHHHHHHHHHHxxHHH$GFGGassaiaaiiaaasaAZZZ1HHHHHHHHHHHxxxxxxxxx",
"xHHHHHHHHHHHHHxxxHHH.lyyyiiaaapaaaaiaasaatl.HHHHHHHHHHHxxxxxxxxx",
"xHHHHHHHHHHHHHxxxHHH.ltuiyuay555555papaatwlXHHHHHHHHHHHxxxxxxxxx",
"xHHHHHHHHHHHHxxxxHHH.ltyyi5555Bmmm9211pttulXHHHHHHHHHHHxxxxxxxxx",
"xHHHHHHHHHHHHxxxxxxx.hyyyy5nl2aaaa2gkXuwpwa.xxxxxHHHHHHHxxxxxxxx",
"xxxxHHHHHHHHxxxxxxxx.gyyyy0o.oaaafo..0tuwwu.xxxxxxxxHHHHHHxxxxxx",
"xxxxxxHHHHHHxxxxxxxx.stytyy000.XXX000ttweey xxxxxxxxHHHHHHHHxxxx",
"xxxxxxxxHHHHHHHxxxxxx.uayyyyupq009tuttttyi xxxxxxxxHHHHHHHHHHHHx",
"xxxxxxxxxHHHHHHHHHHHHx.oayytutuuuputttwa  HHHHHxxxxHHHHHHHHHHHHx",
"xxxxxxxxxHHHHHHHHHHHHHH.atyyrtwuwwwtwtwaoHHHHHHxxxHHHHHHHHHHHHHx",
"xxxxxxxxxHHHHHHHHHHHHHH.ay:**ww*%%w;**wa HHHHHHxxxHHHHHHHHHHHHHx",
"xxxxxxxxxHHHHHHHHHHHHHH.ft;ga*ta*ar;aa%a HHHHHHxxHHHHHHHHHHHHHjx",
"xxxxxxxxxHHHHHHHHHHHHHH.ay<<9www,ww>>>ap HHHHHHxxHHHHHHHHHHHHHjx",
"xxxxxxxxxHHHHHHHHHHHHH$Xaw,fw*w9<<w>afwp. HHHHHxxHHxHHHHHHHxHjxx",
"xxxxxxxxxHHHHHHHHH&1&&aOatftwlwaaywuwwwy@9oXX HxxjjxHxHHHHHHxjxx",
"xxxxxxxxxHHHHHHHH$Bnn&sOawwwwwwwwwwww87y@qOeem=HxjjxjxHHxHHHxxxx",
"xxxxxvvzzHHHHHHHH&Vnm$dOpwwwwwwwwwww888t$y ehM$HzzzzjxjxxHHHjxxx",
"xxxxxvvzzHHHHHHHH3Mmm&s+awwwwwwwww87787p-e.ebn$Hzzzzxxxxxjjjxxxx",
"xxxxxvvvvHHHHHHHH1Mmn&d+pwwwwwww88q8888p-eXebM$Hvvxxxxxxxjjxxxxx",
"xxxxxvvvvHHHxHHHH2Cmm$ds@$*&&1:*:&::-&$&eeXebM$Hvvxxxxxxxxxxxxxx",
"xxxxxvvvvjxjxjjHx3Mmn-dnlBnhlBlnbbblbbbbbeoebM$Hvvvvxxxxxxxxxxxx",
"xxHHHHHHvjxjxxjjx3Vmm-FADZDBBBBBBVVCVCZZASOybM$jvvvvxxxxxxxxxxxx",
"xxHHHHHHHHHHxxxxx3Vmm4apttpupptpppprppttrpOybn$HHHHHHHHHHHHHHxxx",
"xxHHHHHHHHHHxxxxx3Vmm3ayttptpppwprpprrrrrpOybn$HHHHHHHHHHHHHHxxx",
"xxHHHHHHHHHHxccxx3Smm3atptwppwtpwpttrrwrrp;sbB$HHHHHHHHHHHHHHxxx",
"xxHHHHHHHHHHxccxx4Ammm33:2212:&:&*::&::;--bbbn$HHHHHHHHHHHHHHHxx",
"xxHHHHHHHHHHxccxx4AnmnmmlBnlmllnllnlbbbbbbbbbM$HHHHHHHHHHHHHHHxx",
"xHHHHHHHHHHHxccxx1GFGGASZZZSZAZZZZCZCZCCCZDDDD$HHHHHHHHHHHHHHHxx",
"xHHHHHHHHHHjxccxx.afwwuwwwwwwwwwwwww8wwwww8ppp HHHHHHHHHHHHHHHxx",
"xHHHHHHHHHHjxccxx.fwttwwwwwtwwwww8wwwwwww8r8yp jHHHHHHHHHHHHHHxx",
"xHHHHHHHHHHxxxxcc   ... XX      X              jHHHHHHHHHHHHHHxx",
"xHHxHHxHHcHxxxxccxxccccxxxxxxxxxxxxxxxxxxxxxxxxxHHHHHHHHHHHHHHxx",
"xjjxjjxcjxjxxxxccxxxxccxxxxxxxxxxxxxxxxxxxxxxxxxHHHxHHHHHHHHHjxx",
"xxjxxjxccxjxxxxccxxxxccxxxxxxxxxxxxxxxxxxxxxxxxxjjjxjxjxjjxjjjxx",
"xxxxxxxccxxxxxxxxxxxxxxxxxxxxxxxxxxxxxxxxxxxxxxxxxxxxxxxxxxxxxxx",
"xxxxxxxccxxxxxxxxxxxxxxxxxxxxxxxxxxxxxxxxxxxxxxxxxxxxxxxxxxxxxxx",
"xxxxxxxxxxxxxxxxxxxxxxxxxxxxxxxxxxxxxxxxxxxxxxxxxxxxxxxxxxxxxxxx",
"xxxxxxxxxxxxxxxxxxxxxxxxxxxxxxxxxxxxxxxxxxxxxxxxxxxxxxxxxxxxxxxx"
};
