/* XPM */
static char *result[] = {
/* columns rows colors chars-per-pixel */
"64 64 16 1 ",
"  c #83A448",
". c #D9D48C",
"X c #C9AD77",
"o c #B78356",
"O c #A5734D",
"+ c #805A42",
"@ c #349AA4",
"# c #4BD3CF",
"$ c #42ACAF",
"% c #4EBCB9",
"& c #CFBF82",
"* c #CEA272",
"= c #D4D69A",
"- c #91AF55",
"; c #8BAC50",
": c white",
/* pixels */
"                ....XXXXooooXXXXOOOO++++@@@@####@@@@$$$$$$$$%%%%",
"                ....XXXXooooXXXXOOOO++++@@@@####@@@@$$$$$$$$%%%%",
"                ....&&&&XXXXXXXX****OOOO++++####@@@@$$$$$$$$%%%%",
"                ....&&&&XXXXXXXX****OOOO++++####@@@@$$$$$$$$%%%%",
"                ....&&&&XXXXXXXX****OOOO++++####@@@@$$$$$$$$%%%%",
"                ....&&&&XXXXXXXX****OOOO++++####@@@@$$$$$$$$%%%%",
"                    ....&&&&ooooooooOOOO++++@@@@####@@@@$$$$%%%%",
"                    ....&&&&ooooooooOOOO++++@@@@####@@@@$$$$%%%%",
"                    ....&&&&ooooooooOOOO++++@@@@####@@@@$$$$%%%%",
"                    ....&&&&ooooooooOOOO++++@@@@####@@@@$$$$%%%%",
"                    ====&&&&OOOOoooooooo++++@@@@####@@@@$$$$$$$$",
"                    ====&&&&OOOOoooooooo++++@@@@####@@@@$$$$$$$$",
"                    ====&&&&OOOOoooooooo++++@@@@####@@@@$$$$$$$$",
"                    ====&&&&OOOOoooooooo++++@@@@####@@@@$$$$$$$$",
"            ============&&&&ooooOOOOooooOOOO@@@@####@@@@$$$$$$$$",
"            ============&&&&ooooOOOOooooOOOO@@@@####@@@@$$$$$$$$",
"            ============&&&&ooooOOOOooooOOOO@@@@####@@@@$$$$$$$$",
"            ============&&&&ooooOOOOooooOOOO@@@@####@@@@$$$$$$$$",
"            ============&&&&XXXXOOOOOOOOOOOO@@@@####@@@@$$$$$$$$",
"            ============&&&&XXXXOOOOOOOOOOOO@@@@####@@@@$$$$$$$$",
"            ============&&&&XXXXOOOOOOOOOOOO@@@@####@@@@$$$$$$$$",
"            ============&&&&XXXXOOOOOOOOOOOO@@@@####@@@@$$$$$$$$",
"                ====....&&&&****ooooooooOOOOOOOO####@@@@$$$$$$$$",
"                ====....&&&&****ooooooooOOOOOOOO####@@@@$$$$$$$$",
"                ====....&&&&****ooooooooOOOOOOOO####@@@@$$$$$$$$",
"                ====....&&&&****ooooooooOOOOOOOO####@@@@$$$$$$$$",
"                ........&&&&oooooooooooooooo++++####@@@@$$$$$$$$",
"                ........&&&&oooooooooooooooo++++####@@@@$$$$$$$$",
"                ........&&&&oooooooooooooooo++++####@@@@$$$$$$$$",
"                ........&&&&oooooooooooooooo++++####@@@@$$$$$$$$",
"                ....****ooooooooooooOOOOoooo++++@@@@####$$$$$$$$",
"                ....****ooooooooooooOOOOoooo++++@@@@####$$$$$$$$",
"                ....****ooooooooooooOOOOoooo++++@@@@####$$$$$$$$",
"                ....****ooooooooooooOOOOoooo++++@@@@####$$$$$$$$",
"                ....&&&&oooooooo****ooooOOOO++++@@@@####@@@@$$$$",
"                ....&&&&oooooooo****ooooOOOO++++@@@@####@@@@$$$$",
"                ....&&&&oooooooo****ooooOOOO++++@@@@####@@@@$$$$",
"                ....&&&&oooooooo****ooooOOOO++++@@@@####@@@@$$$$",
"            ........&&&&XXXX****&&&&&&&&ooooOOOO@@@@####@@@@$$$$",
"            ........&&&&XXXX****&&&&&&&&ooooOOOO@@@@####@@@@$$$$",
"            ........&&&&XXXX****&&&&&&&&ooooOOOO@@@@####@@@@$$$$",
"            ........&&&&XXXX****&&&&&&&&ooooOOOO@@@@####@@@@$$$$",
"            ............&&&&****&&&&****ooooOOOO@@@@####@@@@$$$$",
"            ............&&&&****&&&&****ooooOOOO@@@@####@@@@$$$$",
"            ............&&&&****&&&&****ooooOOOO@@@@####@@@@$$$$",
"            ............&&&&****&&&&****ooooOOOO@@@@####@@@@$$$$",
"                ........&&&&OOOO****ooooooooOOOO@@@@####@@@@$$$$",
"                ........&&&&OOOO****ooooooooOOOO@@@@####@@@@$$$$",
"                ........&&&&OOOO****ooooooooOOOO@@@@####@@@@$$$$",
"                ........&&&&OOOO****ooooooooOOOO@@@@####@@@@$$$$",
"        ----    --;;&&&&&&&&OOOOOOOOoooooooo++++####@@@@@@@@$$$$",
"        ----    --;;&&&&&&&&OOOOOOOOoooooooo++++####@@@@@@@@$$$$",
"          ----      &&&&&&&&OOOOOOOOoooooooo++++####@@@@@@@@$$$$",
"          ----      &&&&&&&&OOOOOOOOoooooooo++++####@@@@@@@@$$$$",
"        ;;;;--      &&&&....ooooooooOOOO++++@@@@####@@@@@@@@$$$$",
"        ;;;;--      &&&&....ooooooooOOOO++++@@@@####@@@@@@@@$$$$",
"                    &&&&....ooooooooOOOO++++@@@@####@@@@@@@@$$$$",
"                    &&&&....ooooooooOOOO++++@@@@####@@@@@@@@$$$$",
"            ====    ........****oooo++++@@@@####@@@@@@@@$$$$%%%%",
"            ====    ........****oooo++++@@@@####@@@@@@@@$$$$%%%%",
"            ====    ........****oooo++++@@@@####@@@@@@@@$$$$%%%%",
"            ====    ........****oooo++++@@@@####@@@@@@@@$$$$%%%%",
"        ============....oooo****oooo++++@@@@####@@@@@@@@$$$$%%%%",
"        ============....oooo****oooo++++@@@@####@@@@@@@@$$$$%%%%"
};
