/* XPM */
static char *result[] = {
/* columns rows colors chars-per-pixel */
"64 64 13 1 ",
"  c #42ACAF",
". c #349AA4",
"X c #4EBCB9",
"o c #4BD3CF",
"O c #B78356",
"+ c #A5734D",
"@ c #CFBF82",
"# c #D4D69A",
"$ c #805A42",
"% c #D9D48C",
"& c #83A448",
"* c #8BAC50",
"= c white",
/* pixels */
"                ............................................    ",
"                ............................................    ",
"XXXXXXXXXXXX                                                    ",
"XXXXXXXXXXXX                                                    ",
"XXXXXXXXXXXX                                                    ",
"XXXXXXXXXXXX                                                    ",
"XXXXXXXXXXXXXXXXXXXXXXXXXXXXXXXXXXXXXXXXXXXXXXXXXXXXXXXXXXXXXXXX",
"XXXXXXXXXXXXXXXXXXXXXXXXXXXXXXXXXXXXXXXXXXXXXXXXXXXXXXXXXXXXXXXX",
"XXXXXXXXXXXXXXXXXXXXXXXXXXXXXXXXXXXXXXXXXXXXXXXXXXXXXXXXXXXXXXXX",
"XXXXXXXXXXXXXXXXXXXXXXXXXXXXXXXXXXXXXXXXXXXXXXXXXXXXXXXXXXXXXXXX",
"XXXXXXXXXXXXXXXXXXXXXXXXXXXXXXXXXXXXXXXXXXXXXXXXXXXXXXXXXXXXXXXX",
"XXXXXXXXXXXXXXXXXXXXXXXXXXXXXXXXXXXXXXXXXXXXXXXXXXXXXXXXXXXXXXXX",
"XXXXXXXXXXXXXXXXXXXXXXXXXXXXXXXXXXXXXXXXXXXXXXXXXXXXXXXXXXXXXXXX",
"XXXXXXXXXXXXXXXXXXXXXXXXXXXXXXXXXXXXXXXXXXXXXXXXXXXXXXXXXXXXXXXX",
"XXXXXXXXXXXXXXXXXXXXXXXXXXXXXXXXXXXXXXXXXXXXXXXXXXXXXXXXXXXXXXXX",
"XXXXXXXXXXXXXXXXXXXXXXXXXXXXXXXXXXXXXXXXXXXXXXXXXXXXXXXXXXXXXXXX",
"XXXXXXXXXXXXXXXXXXXXXXXXXXXXXXXXXXXXXXXXXXXXXXXXXXXXXXXXXXXXXXXX",
"XXXXXXXXXXXXXXXXXXXXXXXXXXXXXXXXXXXXXXXXXXXXXXXXXXXXXXXXXXXXXXXX",
"XXXXXXXXXXXXXXXXXXXXXXXXXXXXXXXXXXXXXXXXXXXXXXXXXXXXXXXXXXXXXXXX",
"XXXXXXXXXXXXXXXXXXXXXXXXXXXXXXXXXXXXXXXXXXXXXXXXXXXXXXXXXXXXXXXX",
"XXXXXXXXXXXXXXXXXXXXXXXXXXXXXXXXXXXXXXXXXXXXXXXXXXXXXXXXXXXXXXXX",
"XXXXXXXXXXXXXXXXXXXXXXXXXXXXXXXXXXXXXXXXXXXXXXXXXXXXXXXXXXXXXXXX",
"XXXXXXXXXXXXXXXXXXXXXXXXXXXXXXXXXXXXXXXXXXXXXXXXXXXXXXXXXXXXXXXX",
"XXXXXXXXXXXXXXXXXXXXXXXXXXXXXXXXXXXXXXXXXXXXXXXXXXXXXXXXXXXXXXXX",
"XXXXXXXXXXXXXXXXXXXXXXXXXXXXXXXXXXXXXXXXXXXXXXXXXXXXXXXXXXXXXXXX",
"XXXXXXXXXXXXXXXXXXXXXXXXXXXXXXXXXXXXXXXXXXXXXXXXXXXXXXXXXXXXXXXX",
"................XXXXXXXXXXXXXXXXXXXXXXXX........................",
"................XXXXXXXXXXXXXXXXXXXXXXXX........................",
"................XXXXXXXXXXXXXXXXXXXXXXXX........................",
"................XXXXXXXXXXXXXXXXXXXXXXXX........................",
"oooooooooooooooo........................oooooooooooooooooooooooo",
"oooooooooooooooo........................oooooooooooooooooooooooo",
"oooooooooooooooo........................oooooooooooooooooooooooo",
"oooooooooooooooo........................oooooooooooooooooooooooo",
"OOOOOOOOOOOO++++ooooooooooooooooooooooooOOOOOOOOOOOO++++++++++++",
"OOOOOOOOOOOO++++ooooooooooooooooooooooooOOOOOOOOOOOO++++++++++++",
"OOOOOOOOOOOO++++ooooooooooooooooooooooooOOOOOOOOOOOO++++++++++++",
"OOOOOOOOOOOO++++ooooooooooooooooooooooooOOOOOOOOOOOO++++++++++++",
"@@@@########@@@@++++++++++++$$$$$$$$++++@@@@%%%%############@@@@",
"@@@@########@@@@++++++++++++$$$$$$$$++++@@@@%%%%############@@@@",
"@@@@########@@@@++++++++++++$$$$$$$$++++@@@@%%%%############@@@@",
"@@@@########@@@@++++++++++++$$$$$$$$++++@@@@%%%%############@@@@",
"############%%%%%%%%%%%%@@@@%%%%%%%%@@@@%%%%%%%%%%%%############",
"############%%%%%%%%%%%%@@@@%%%%%%%%@@@@%%%%%%%%%%%%############",
"############%%%%%%%%%%%%@@@@%%%%%%%%@@@@%%%%%%%%%%%%############",
"############%%%%%%%%%%%%@@@@%%%%%%%%@@@@%%%%%%%%%%%%############",
"&&&&####&&&&&&&&%%%%%%%%&&****&&&&&&&&&&@@@@@@@@**&&&&**&&&&&&&&",
"&&&&####&&&&&&&&%%%%%%%%&&****&&&&&&&&&&@@@@@@@@**&&&&**&&&&&&&&",
"&&&&####&&&&**&&%%%%%%%%&&&&**&&&&&&&&&&@@@@@@@@&&&&**&&&&&&&&&&",
"&&&&####&&&&**&&%%%%%%%%&&&&**&&&&&&&&&&@@@@@@@@&&&&**&&&&&&&&&&",
"&&&&&&&&&&&&**&&&&&&**&&&&&&&&&&&&&&&&&&&&&&&&&&&&****&&&&&&&&&&",
"&&&&&&&&&&&&**&&&&&&**&&&&&&&&&&&&&&&&&&&&&&&&&&&&****&&&&&&&&&&",
"&&&&&&&&**&&**&&&&&&**&&&&&&&&&&&&&&&&&&&&&&&&&&&&**&&&&&&&&&&&&",
"&&&&&&&&**&&**&&&&&&**&&&&&&&&&&&&&&&&&&&&&&&&&&&&**&&&&&&&&&&&&",
"&&&&&&&&**&&****&&****&&&&&&&&&&&&&&&&&&&&&&&&&&&&&&&&&&&&&&&&&&",
"&&&&&&&&**&&****&&****&&&&&&&&&&&&&&&&&&&&&&&&&&&&&&&&&&&&&&&&&&",
"&&&&&&&&****&&**&&****&&&&&&&&&&&&&&&&&&&&&&&&&&&&&&&&&&&&&&&&&&",
"&&&&&&&&****&&**&&****&&&&&&&&&&&&&&&&&&&&&&&&&&&&&&&&&&&&&&&&&&",
"&&&&&&&&&&**&&**&&**&&&&&&&&&&&&&&&&&&&&&&&&&&&&&&&&&&&&&&&&&&&&",
"&&&&&&&&&&**&&**&&**&&&&&&&&&&&&&&&&&&&&&&&&&&&&&&&&&&&&&&&&&&&&",
"&&&&&&&&&&**&&&&&&**&&&&&&&&&&&&&&&&&&&&&&&&&&&&&&&&&&&&&&&&&&&&",
"&&&&&&&&&&**&&&&&&**&&&&&&&&&&&&&&&&&&&&&&&&&&&&&&&&&&&&&&&&&&&&",
"&&&&&&&&&&&&&&&&&&&&&&&&&&&&&&&&&&&&&&&&&&&&&&&&&&&&&&&&&&&&&&&&",
"&&&&&&&&&&&&&&&&&&&&&&&&&&&&&&&&&&&&&&&&&&&&&&&&&&&&&&&&&&&&&&&&"
};
