/* XPM */
static char *result[] = {
/* columns rows colors chars-per-pixel */
"64 64 15 1 ",
"  c #4EBCB9",
". c #42ACAF",
"X c #349AA4",
"o c #4BD3CF",
"O c #A5734D",
"+ c #B78356",
"@ c #CFBF82",
"# c #D9D48C",
"$ c #D4D69A",
"% c #83A448",
"& c #8BAC50",
"* c #805A42",
"= c #CEA272",
"- c #C9AD77",
"; c white",
/* pixels */
"        ............XXXXXXXXXXXXXXXXXXXXXXXXXXXXXXXXXXXX........",
"        ............XXXXXXXXXXXXXXXXXXXXXXXXXXXXXXXXXXXX........",
"                ............................................    ",
"                ............................................    ",
"                ............................................    ",
"                ............................................    ",
"                                                                ",
"                                                                ",
"                                                                ",
"                                                                ",
"                                                                ",
"                                                                ",
"                                                                ",
"                                                                ",
"                                                                ",
"                                                                ",
"                                                                ",
"                                                                ",
"                                                                ",
"                                                                ",
"                                                                ",
"                                                                ",
"                                                                ",
"                                                                ",
"                                                                ",
"                                                                ",
"                                                            ....",
"                                                            ....",
"                                                            ....",
"                                                            ....",
"                                        ....XXXXXXXXXXXXXXXXXXXX",
"                                        ....XXXXXXXXXXXXXXXXXXXX",
"                                        ....XXXXXXXXXXXXXXXXXXXX",
"                                        ....XXXXXXXXXXXXXXXXXXXX",
"                                ....XXXXXXXXoooooooooooooooooooo",
"                                ....XXXXXXXXoooooooooooooooooooo",
"                                ....XXXXXXXXoooooooooooooooooooo",
"                                ....XXXXXXXXoooooooooooooooooooo",
"                        ....XXXXXXXXooooooooOOOOOOOOOOOO++++++++",
"                        ....XXXXXXXXooooooooOOOOOOOOOOOO++++++++",
"                        ....XXXXXXXXooooooooOOOOOOOOOOOO++++++++",
"                        ....XXXXXXXXooooooooOOOOOOOOOOOO++++++++",
"                    ....XXXXooooooooXXXX++++@@@@@@@@########$$$$",
"                    ....XXXXooooooooXXXX++++@@@@@@@@########$$$$",
"                    ....XXXXooooooooXXXX++++@@@@@@@@########$$$$",
"                    ....XXXXooooooooXXXX++++@@@@@@@@########$$$$",
"            ........XXXXooooXXXXXXXXOOOO@@@@########%%%%%%%%%%%%",
"            ........XXXXooooXXXXXXXXOOOO@@@@########%%%%%%%%%%%%",
"            ........XXXXooooXXXXXXXXOOOO@@@@########%%%%%%%%%%%%",
"            ........XXXXooooXXXXXXXXOOOO@@@@########%%%%%%%%%%%%",
"        ........XXXXooooXXXXXXXXOOOO++++@@@@####&&%%%%%%%%%%%%%%",
"        ........XXXXooooXXXXXXXXOOOO++++@@@@####&&%%%%%%%%%%%%%%",
"        ........XXXXooooXXXXXXXXOOOO++++@@@@####&&%%%%%%%%%%%%%%",
"        ........XXXXooooXXXXXXXXOOOO++++@@@@####&&%%%%%%%%%%%%%%",
"        ....XXXXooooXXXXXXXX****++++========####&&%%%%%%%%%%%%%%",
"        ....XXXXooooXXXXXXXX****++++========####&&%%%%%%%%%%%%%%",
"        ....XXXXooooXXXXXXXX****++++========####%%%%%%%%%%%%%%%%",
"        ....XXXXooooXXXXXXXX****++++========####%%%%%%%%%%%%%%%%",
"        ....XXXXooooXXXX****++++----====####$$$$%%%%%%%%%%%%%%%%",
"        ....XXXXooooXXXX****++++----====####$$$$%%%%%%%%%%%%%%%%",
"        ....XXXXooooXXXX****++++----====####$$$$%%%%%%%%%%%%%%%%",
"        ....XXXXooooXXXX****++++----====####$$$$%%%%%%%%%%%%%%%%",
"    ....XXXXooooXXXXXXXX****++++----++++$$$$$$$$%%%%%%%%%%%%%%%%",
"    ....XXXXooooXXXXXXXX****++++----++++$$$$$$$$%%%%%%%%%%%%%%%%"
};
