/* XPM */
static char *result[] = {
/* columns rows colors chars-per-pixel */
"64 64 13 1 ",
"  c #42ACAF",
". c #349AA4",
"X c #4EBCB9",
"o c #4BD3CF",
"O c #B78356",
"+ c #A5734D",
"@ c #D9D48C",
"# c #CFBF82",
"$ c #83A448",
"% c #C9AD77",
"& c #805A42",
"* c #D4D69A",
"= c white",
/* pixels */
"            ....................                XXXXXXXXXXXXXXXX",
"            ....................                XXXXXXXXXXXXXXXX",
"XXXXXXXX                            XXXXXXXXXXXXXXXXXXXXXXXXXXXX",
"XXXXXXXX                            XXXXXXXXXXXXXXXXXXXXXXXXXXXX",
"XXXXXXXX                            XXXXXXXXXXXXXXXXXXXXXXXXXXXX",
"XXXXXXXX                            XXXXXXXXXXXXXXXXXXXXXXXXXXXX",
"XXXXXXXXXXXXXXXXXXXXXXXXXXXXXXXXXXXXXXXXXXXXXXXXXXXXXXXXXXXXXXXX",
"XXXXXXXXXXXXXXXXXXXXXXXXXXXXXXXXXXXXXXXXXXXXXXXXXXXXXXXXXXXXXXXX",
"XXXXXXXXXXXXXXXXXXXXXXXXXXXXXXXXXXXXXXXXXXXXXXXXXXXXXXXXXXXXXXXX",
"XXXXXXXXXXXXXXXXXXXXXXXXXXXXXXXXXXXXXXXXXXXXXXXXXXXXXXXXXXXXXXXX",
"XXXXXXXXXXXXXXXXXXXXXXXXXXXXXXXXXXXXXXXXXXXXXXXXXXXXXXXXXXXXXXXX",
"XXXXXXXXXXXXXXXXXXXXXXXXXXXXXXXXXXXXXXXXXXXXXXXXXXXXXXXXXXXXXXXX",
"XXXXXXXXXXXXXXXXXXXXXXXXXXXXXXXXXXXXXXXXXXXXXXXXXXXXXXXXXXXXXXXX",
"XXXXXXXXXXXXXXXXXXXXXXXXXXXXXXXXXXXXXXXXXXXXXXXXXXXXXXXXXXXXXXXX",
"XXXXXXXXXXXXXXXXXXXXXXXXXXXXXXXXXXXXXXXXXXXXXXXXXXXXXXXXXXXXXXXX",
"XXXXXXXXXXXXXXXXXXXXXXXXXXXXXXXXXXXXXXXXXXXXXXXXXXXXXXXXXXXXXXXX",
"XXXXXXXXXXXXXXXXXXXXXXXXXXXXXXXXXXXXXXXXXXXXXXXXXXXXXXXXXXXXXXXX",
"XXXXXXXXXXXXXXXXXXXXXXXXXXXXXXXXXXXXXXXXXXXXXXXXXXXXXXXXXXXXXXXX",
"XXXXXXXXXXXXXXXXXXXXXXXXXXXXXXXXXXXXXXXXXXXXXXXXXXXXXXXXXXXXXXXX",
"XXXXXXXXXXXXXXXXXXXXXXXXXXXXXXXXXXXXXXXXXXXXXXXXXXXXXXXXXXXXXXXX",
"XXXXXXXXXXXXXXXXXXXXXXXXXXXXXXXXXXXXXXXXXXXXXXXXXXXXXXXXXXXXXXXX",
"XXXXXXXXXXXXXXXXXXXXXXXXXXXXXXXXXXXXXXXXXXXXXXXXXXXXXXXXXXXXXXXX",
"XXXXXXXXXXXXXXXXXXXXXXXXXXXXXXXXXXXXXXXXXXXXXXXXXXXXXXXXXXXXXXXX",
"XXXXXXXXXXXXXXXXXXXXXXXXXXXXXXXXXXXXXXXXXXXXXXXXXXXXXXXXXXXXXXXX",
"XXXXXXXXXXXXXXXXXXXXXXXXXXXXXXXXXXXXXXXXXXXXXXXXXXXXXXXXXXXXXXXX",
"XXXXXXXXXXXXXXXXXXXXXXXXXXXXXXXXXXXXXXXXXXXXXXXXXXXXXXXXXXXXXXXX",
"    XXXXXXXXXXXXXXXXXXXXXXXXXXXXXXXXXXXXXXXXXXXXXXXXXXXXXXXXXXXX",
"    XXXXXXXXXXXXXXXXXXXXXXXXXXXXXXXXXXXXXXXXXXXXXXXXXXXXXXXXXXXX",
"    XXXXXXXXXXXXXXXXXXXXXXXXXXXXXXXXXXXXXXXXXXXXXXXXXXXXXXXXXXXX",
"    XXXXXXXXXXXXXXXXXXXXXXXXXXXXXXXXXXXXXXXXXXXXXXXXXXXXXXXXXXXX",
"........            XXXXXXXXXXXXXXXXXXXXXXXXXXXXXXXXXXXXXXXXXXXX",
"........            XXXXXXXXXXXXXXXXXXXXXXXXXXXXXXXXXXXXXXXXXXXX",
"........            XXXXXXXXXXXXXXXXXXXXXXXXXXXXXXXXXXXXXXXXXXXX",
"........            XXXXXXXXXXXXXXXXXXXXXXXXXXXXXXXXXXXXXXXXXXXX",
"oooooooooooooooooooo....    XXXXXXXXXXXXXXXXXXXXXXXXXXXXXXXXXXXX",
"oooooooooooooooooooo....    XXXXXXXXXXXXXXXXXXXXXXXXXXXXXXXXXXXX",
"oooooooooooooooooooo....    XXXXXXXXXXXXXXXXXXXXXXXXXXXXXXXXXXXX",
"oooooooooooooooooooo....    XXXXXXXXXXXXXXXXXXXXXXXXXXXXXXXXXXXX",
"OOOO++++++++++++....oooooooo....        XXXXXXXXXXXXXXXXXXXXXXXX",
"OOOO++++++++++++....oooooooo....        XXXXXXXXXXXXXXXXXXXXXXXX",
"OOOO++++++++++++....oooooooo....        XXXXXXXXXXXXXXXXXXXXXXXX",
"OOOO++++++++++++....oooooooo....        XXXXXXXXXXXXXXXXXXXXXXXX",
"@@@@@@@@####OOOO++++++++....oooo........        XXXXXXXXXXXXXXXX",
"@@@@@@@@####OOOO++++++++....oooo........        XXXXXXXXXXXXXXXX",
"@@@@@@@@####OOOO++++++++....oooo........        XXXXXXXXXXXXXXXX",
"@@@@@@@@####OOOO++++++++....oooo........        XXXXXXXXXXXXXXXX",
"$$$$@@@@@@@@####%%%%++++++++&&&&oooooooo........    XXXXXXXXXXXX",
"$$$$@@@@@@@@####%%%%++++++++&&&&oooooooo........    XXXXXXXXXXXX",
"$$$$@@@@@@@@####%%%%++++++++&&&&oooooooo........    XXXXXXXXXXXX",
"$$$$@@@@@@@@####%%%%++++++++&&&&oooooooo........    XXXXXXXXXXXX",
"$$$$$$$$********@@@@####%%%%++++&&&&....oooo........    XXXXXXXX",
"$$$$$$$$********@@@@####%%%%++++&&&&....oooo........    XXXXXXXX",
"$$$$$$$$********@@@@####%%%%++++&&&&....oooo........    XXXXXXXX",
"$$$$$$$$********@@@@####%%%%++++&&&&....oooo........    XXXXXXXX",
"$$$$$$$$********@@@@####%%%%++++&&&&........oooo....    XXXXXXXX",
"$$$$$$$$********@@@@####%%%%++++&&&&........oooo....    XXXXXXXX",
"$$$$$$$$********@@@@####%%%%++++&&&&........oooo....    XXXXXXXX",
"$$$$$$$$********@@@@####%%%%++++&&&&........oooo....    XXXXXXXX",
"$$$$$$$$$$$$$$$$@@@@OOOO%%%%++++&&&&........oooo....    XXXXXXXX",
"$$$$$$$$$$$$$$$$@@@@OOOO%%%%++++&&&&........oooo....    XXXXXXXX",
"$$$$$$$$$$$$$$$$@@@@OOOO%%%%++++&&&&........oooo....    XXXXXXXX",
"$$$$$$$$$$$$$$$$@@@@OOOO%%%%++++&&&&........oooo....    XXXXXXXX",
"$$$$$$$$$$$$$$$$@@@@%%%%OOOO%%%%++++&&&&....oooo....        XXXX",
"$$$$$$$$$$$$$$$$@@@@%%%%OOOO%%%%++++&&&&....oooo....        XXXX"
};
