/* XPM */
static char *result[] = {
/* columns rows colors chars-per-pixel */
"8 32 2 1 ",
"  c #FFFDF5",
"X c gray77",
/* pixels */
" XXXXXX ",
" XXXXXX ",
" XXXXXX ",
" XXXXXX ",
" XXXXXX ",
" XXXXXX ",
" XXXXXX ",
" XXXXXX ",
" XXXXXX ",
" XXXXXX ",
" XXXXXX ",
" XXXXXX ",
" XXXXXX ",
" XXXXXX ",
" XXXXXX ",
" XXXXXX ",
" XXXXXX ",
" XXXXXX ",
" XXXXXX ",
" XXXXXX ",
" XXXXXX ",
" XXXXXX ",
" XXXXXX ",
" XXXXXX ",
" XXXXXX ",
" XXXXXX ",
" XXXXXX ",
" XXXXXX ",
" XXXXXX ",
" XXXXXX ",
" XXXXXX ",
" XXXXXX ",
};
