/* XPM */
static char *result[] = {
/* columns rows colors chars-per-pixel */
"24 32 4 1 ",
". c #6C6C6C",
"  c #FFFDF5",
"X c white",
"A c gray77",
/* pixels */
" ...................... ",
" ...................... ",
" ...................... ",
" ...XXXXXXXXXXXXXXXX... ",
" ...XXXXXXXXXXXXXXXX... ",
" ...XXXXXXXXXXXXXXXX... ",
" ...XXX.......XXXXXX... ",
" ...XXX.......XXXXXX... ",
" ...XXX.......XXXXXX... ",
" ...XXX.......XXXXXX... ",
" ...XXX.......XXXXXX... ",
" ...XXX.......XXXXXX... ",
" ...XXX.......XXXXXX... ",
" ...XXX.......XXXXXX... ",
" ...XXX.......XXXXXX... ",
" ...XXX.......XXXXXX... ",
" ...XXX.......XXXXXX... ",
" ...XXX.......XXXXXX... ",
" ...AAA.......AAAAAA... ",
" ...AAA.......AAAAAA... ",
" ...AAA.......AAAAAA... ",
" ...AAA.......AAAAAA... ",
" ...AAA.......AAAAAA... ",
" ...AAA.......AAAAAA... ",
" ...AAA.......AAAAAA... ",
" ...AAA.......AAAAAA... ",
" ...AAAAAAAAAAAAAAAA... ",
" ...AAAAAAAAAAAAAAAA... ",
" ...AAAAAAAAAAAAAAAA... ",
" ...................... ",
" ...................... ",
" ...................... "
};
