/* XPM */
static char *result[] = {
/* columns rows colors chars-per-pixel */
"24 32 4 1 ",
". c #6C6C6C",
"  c #FFFDF5",
"X c white",
"A c gray77",
/* pixels */
"    ................    ",
"    ................    ",
"    ................    ",
"    ......XXXXXX....    ",
"    ......XXXXXX....    ",
"    ......XXXXXX....    ",
"    ...XXXXXXXXX....    ",
"    ...XXXXXXXXX....    ",
"    ...XXXXXXXXX....    ",
"    ...XXXXXXXXX....    ",
"    ......XXXXXX....    ",
"    ......XXXXXX....    ",
"    ......XXXXXX....    ",
"       ...XXXXXX....    ",
"       ...XXXXXX....    ",
"       ...XXXXXX....    ",
"       ...XXXXXX....    ",
"       ...XXXXXX....    ",
"       ...AAAAAA....    ",
"       ...AAAAAA....    ",
"       ...AAAAAA....    ",
"       ...AAAAAA....    ",
"       ...AAAAAA....    ",
"       ...AAAAAA....    ",
"       ...AAAAAA....    ",
"       ...AAAAAA....    ",
"       ...AAAAAA....    ",
"       ...AAAAAA....    ",
"       ...AAAAAA....    ",
"       .............    ",
"       .............    ",
"       .............    "
};
