/* XPM */
static char *result[] = {
/* columns rows colors chars-per-pixel */
"24 32 4 1 ",
". c #6C6C6C",
"  c #FFFDF5",
"X c white",
"A c gray77",
/* pixels */
" .................      ",
" ....................   ",
" .....................  ",
" ...XXXXXXXXXXXX....... ",
" ...XXXXXXXXXXXXXX..... ",
" ...XXXXXXXXXXXXXXX.... ",
" ...XXXXX.....XXXXXX... ",
" ...XXXXX.......XXXX... ",
" ...............XXXX... ",
" ................XXX... ",
"          .......XXX... ",
"          .......XXX... ",
"          .....XXXXX... ",
"       .......XXX...... ",
"       .......XXX...... ",
"       ......XXXX...... ",
"    ......XXXXX.....    ",
"    ......XXXX......    ",
"    .....AAAAA......    ",
" ......AAAA......       ",
" ......AAA.......       ",
" ......AAA.......       ",
" ...AAAAAA............. ",
" ...AAAAAA............. ",
" ...AAAAAA............. ",
" ...AAAAAA............. ",
" ...AAAAAAAAAAAAAAAA... ",
" ...AAAAAAAAAAAAAAAA... ",
" ...AAAAAAAAAAAAAA..... ",
" ...................... ",
" ...................... ",
" ...................... "
};
