/* XPM */
static char *result[] = {
/* columns rows colors chars-per-pixel */
"24 32 4 1 ",
". c #6C6C6C",
"  c #FFFDF5",
"X c white",
"A c gray77",
/* pixels */
" ......................X",
" ......................X",
" ......................X",
" ...XXXXXXXXXXXXXXXX...X",
" ...XXXXXXXXXXXXXXXX...X",
" ...XXXXXXXXXXXXXXXX...X",
" .............XXXXXX...X",
" .............XXXXXX...X",
" .............XXXXXX...X",
" .............XXXXXX...X",
" .............XXXXXX...X",
" .............XXXXXX...X",
" .............XXXXXX...X",
" ...XXXXXXXXXXXXXXXX...X",
" ...XXXXXXXXXXXXXXXX...X",
" ...XXXXXXXXXXXXXXXX...X",
" .............XXXXXX...X",
" .............XXXXXX...X",
" .............AAAAAA...X",
" .............AAAAAA...X",
" .............AAAAAA...X",
" .............AAAAAA...X",
" ...AAAAAAAAAAAAAAAA...X",
" ...AAAAAAAAAAAAAAAA...X",
" ...AAAAAAAAAAAAAAAA...X",
" ...AAAAAAAAAAAAAAAA...X",
" ...AAAAAAAAAAAAAAAA...X",
" ...AAAAAAAAAAAAAAAA...X",
" ...AAAAAAAAAAAAAAAA...X",
" ......................X",
" ......................X",
" ......................X"
};
