/* XPM */
static char *result[] = {
/* columns rows colors chars-per-pixel */
"24 32 4 1 ",
". c #6C6C6C",
"  c #FFFDF5",
"X c white",
"A c gray77",
/* pixels */
" ...................... ",
" ...................... ",
" ...................... ",
" ...XXX......XXXXXXX... ",
" ...XXX......XXXXXXX... ",
" ...XXX......XXXXXXX... ",
" ...XXX......XXXXXXX... ",
" ...XXX......XXXXXXX... ",
" ...XXX......XXXXXXX... ",
" ...XXX......XXXXXXX... ",
" ...XXX......XXXXXXX... ",
" ...XXX......XXXXXXX... ",
" ...XXX......XXXXXXX... ",
" ...XXX......XXXXXXX... ",
" ...XXX......XXXXXXX... ",
" ...XXX......XXXXXXX... ",
" ...XXXXXXXXXXXXXXXX... ",
" ...XXXXXXXXXXXXXXXX... ",
" ...AAAAAAAAAAAAAAAA... ",
" ............AAAAAAA... ",
" ............AAAAAAA... ",
" ............AAAAAAA... ",
"          ...AAAAAAA... ",
"          ...AAAAAAA... ",
"          ...AAAAAAA... ",
"          ...AAAAAAA... ",
"          ...AAAAAAA... ",
"          ...AAAAAAA... ",
"          ...AAAAAAA... ",
"          ............. ",
"          ............. ",
"          ............. "
};
