/* XPM */
static char *result[] = {
/* columns rows colors chars-per-pixel */
"24 32 4 1 ",
". c #6C6C6C",
"  c #FFFDF5",
"X c white",
"A c gray77",
/* pixels */
" .......................",
" .......................",
" .......................",
" ....XXXXXXXXXXXXXXXX...",
" ....XXXXXXXXXXXXXXXX...",
" ....XXXXXXXXXXXXXXXX...",
" ....XXXXXX.............",
" ....XXXXXX.............",
" ....XXXXXX.............",
" ....XXXXXX.............",
" ....XXXXXXXXXXXXXXXX...",
" ....XXXXXXXXXXXXXXXX...",
" ....XXXXXXXXXXXXXXXX...",
" ....XXXXXX......XXXX...",
" ....XXXXXX......XXXX...",
" ....XXXXXX......XXXX...",
" ....XXXXXX......XXXX...",
" ....XXXXXX......XXXX...",
" ....AAAAAA......AAAA...",
" ....AAAAAA......AAAA...",
" ....AAAAAA......AAAA...",
" ....AAAAAA......AAAA...",
" ....AAAAAAAAAAAAAAAA...",
" ....AAAAAAAAAAAAAAAA...",
" ....AAAAAAAAAAAAAAAA...",
" ....AAAAAAAAAAAAAAAA...",
" ....AAAAAAAAAAAAAAAA...",
" ....AAAAAAAAAAAAAAAA...",
" ....AAAAAAAAAAAAAAAA...",
" .......................",
" .......................",
" ......................."
};
