/* XPM */
static char *result[] = {
/* columns rows colors chars-per-pixel */
"24 32 5 1 ",
"  c #FFFDF5",
". c #6C6C6C",
"X c white",
"o c #FEFCF4",
"A c gray77",
/* pixels */
" ...................... ",
" ...................... ",
" ...................... ",
" ...XXXXXXXXXXXXXXXX... ",
" ...XXXXXXXXXXXXXXXX... ",
" ...XXXXXXXXXXXXXXXX... ",
" .............XXXXXX... ",
" .............XXXXXX... ",
" .............XXXXXX... ",
" .............XXXXXX... ",
"          ....XXXXXX... ",
"          ....XXXXXX... ",
"          ....XXXXXX... ",
"          ....XXXXXX... ",
"          ....XXXXXX... ",
"          ....XXXXXX... ",
"       .......XXXXXX... ",
"       .......XXXXXX... ",
"       .......AAAAAA... ",
"       ...AAAAAAA...... ",
"       ...AAAAAAA...... ",
"       ...AAAAAAA...... ",
"    ooo...AAAAAAA...    ",
"    ooo...AAAAAAA...    ",
"    ooo...AAAAAAA...    ",
"    ooo...AAAAAAA...    ",
"       ...AAAAAAA...    ",
"       ...AAAAAAA...    ",
"       ...AAAAAAA...    ",
"       .............    ",
"       .............    ",
"       .............    "
};
